<?xml version="1.0" standalone="no"?>
<!DOCTYPE svg PUBLIC "-//W3C//DTD SVG 1.1//EN" "http://www.w3.org/Graphics/SVG/1.1/DTD/svg11.dtd" >
<svg>
<metadata>
Created by FontForge 20090914 at Wed Jun 12 09:17:20 2013
 By www-data
Copyright (c) 2010 by Pablo Impallari. www.impallari.com Igino Marini. www.ikern.com. All rights reserved.
</metadata>
<defs>
<font id="DancingScript" horiz-adv-x="593" >
  <font-face 
    font-family="Dancing Script"
    font-weight="400"
    font-stretch="normal"
    units-per-em="1000"
    panose-1="3 8 6 0 4 5 7 0 13 0"
    ascent="720"
    descent="-280"
    x-height="298.001"
    cap-height="718.002"
    bbox="-239.002 -280.002 1000 919.996"
    underline-thickness="50"
    underline-position="-50"
    unicode-range="U+0020-U+FB02"
  />
<missing-glyph horiz-adv-x="279" 
 />
    <glyph glyph-name="fi" unicode="fi" horiz-adv-x="555" 
d="M452 339c6 0 11.167 -1.83203 15.5 -5.49902s6.5 -9.16699 6.5 -16.5c0 -8 -5.5 -21.167 -16.5 -39.5l-36 -62c-13 -23 -24.833 -47.333 -35.5 -73s-16 -50.167 -16 -73.5c0 -24 4 -40 12 -48s20.333 -12 37 -12c11.333 0 23 2.66699 35 8s24.5 14 37.5 26
s26.333 27.667 40 47s27.5 43.333 41.5 72l9 -10c-10 -28.667 -22.167 -54.167 -36.5 -76.5s-30.166 -41 -47.499 -56s-35.666 -26.333 -54.999 -34s-38.666 -11.5 -57.999 -11.5c-26 0 -45.333 8.16699 -58 24.5s-19 36.166 -19 59.499c0 13.333 2.16699 30.166 6.5 50.499
s10.166 41.5 17.499 63.5c-19.333 -15.333 -39.833 -27.5 -61.5 -36.5s-43.167 -13.5 -64.5 -13.5c-10 0 -21 1.33301 -33 4s-24 6.66699 -36 12c1.33301 -10.667 2.33301 -21.5 3 -32.5s1 -21.5 1 -31.5c0 -42 -4.33301 -84 -13 -126s-20.334 -80 -35.001 -114
s-31.167 -61.5 -49.5 -82.5s-37.166 -31.5 -56.499 -31.5c-5.33301 0 -11.166 1.16699 -17.499 3.5s-12.333 6.66602 -18 12.999s-10.334 15.166 -14.001 26.499s-5.5 26.333 -5.5 45c0 25.333 3.83301 58 11.5 98s18.334 83.667 32.001 131s29.667 97.166 48 149.499
s38.333 103.833 60 154.5s44.334 98.834 68.001 144.501s47.5 85.834 71.5 120.501s47.667 62.334 71 83.001s45.333 31 66 31c14 0 23.167 -4.33301 27.5 -13s6.5 -18.667 6.5 -30c0 -28.667 -7.83301 -60.167 -23.5 -94.5s-36.334 -68.5 -62.001 -102.5
s-54.334 -66.5 -86.001 -97.5s-63.5 -57.833 -95.5 -80.5c-3.33301 -7.33301 -6.33301 -14.666 -9 -21.999l-8 -22c10.667 -4 18.334 -12.333 23.001 -25c9.33301 -31.333 22 -53.333 38 -66s33.333 -19 52 -19c21.333 0 43.166 6.5 65.499 19.5s42.166 28.167 59.499 45.5
c6.66699 16.667 14.167 32.5 22.5 47.5s17 28.333 26 40s18.167 21 27.5 28s18.666 10.5 27.999 10.5zM115 77.001c0 8 -0.166992 17.1689 -0.5 27.502s-1.5 20.666 -3.5 30.999s-5 20.166 -9 29.499s-9.66699 17 -17 23c-13.333 -38 -25.5 -75.5 -36.5 -112.5
s-20.5 -71.833 -28.5 -104.5s-14.333 -62.334 -19 -89.001s-7 -48.667 -7 -66c0 -15.333 1.66699 -27.166 5 -35.499s8 -12.5 14 -12.5c9.33301 0 20 10 32 30s23.167 45.333 33.5 76s19 64.167 26 100.5s10.5 70.5 10.5 102.5zM341 653.003
c-13.333 0 -27.832 -8.16797 -43.499 -24.501s-32.167 -38.666 -49.5 -66.999s-35 -61.333 -53 -99s-35.333 -77.5 -52 -119.5c32 30 61.167 60.333 87.5 91s48.666 59.5 66.999 86.5s32.5 51 42.5 72s15 36.5 15 46.5c0 9.33301 -4.66699 14 -14 14zM505.001 432.002
c-11.333 0 -21 2.66797 -29 8.00098s-12 13.666 -12 24.999c0 6.66699 2.33301 13.167 7 19.5s10.5 12 17.5 17s14.833 8.83301 23.5 11.5s17 4 25 4c10 0 18 -2.33301 24 -7s9 -12.667 9 -24c0 -6 -1.83301 -12.333 -5.5 -19s-8.66699 -12.5 -15 -17.5
s-13.333 -9.16699 -21 -12.5s-15.5 -5 -23.5 -5z" />
    <glyph glyph-name="fl" unicode="fl" horiz-adv-x="549" 
d="M394 677c0 -28.667 -7.83203 -60.1631 -23.499 -94.4961s-36.334 -68.5 -62.001 -102.5s-54.334 -66.5 -86.001 -97.5s-63.5 -57.833 -95.5 -80.5c-3.33301 -7.33301 -6.33301 -14.666 -9 -21.999l-8 -22c6.66699 -2 11.834 -5.83301 15.501 -11.5
s6.16699 -12.167 7.5 -19.5c4.66699 -38 15.667 -64.333 33 -79s37 -22 59 -22c16.667 0 33.834 3.16699 51.501 9.5s34.5 14.166 50.5 23.499c8 36 19.667 74.833 35 116.5s32.333 83.334 51 125.001s38.5 81.667 59.5 120s41.333 72.333 61 102s37.667 53.334 54 71.001
s29.5 26.5 39.5 26.5c5.33301 0 10 -2.5 14 -7.5s7.5 -11.333 10.5 -19s5.16699 -15.834 6.5 -24.501s2 -16.334 2 -23.001c0 -14.667 -3.16699 -33.667 -9.5 -57s-15.333 -48.833 -27 -76.5s-25.667 -56.834 -42 -87.501s-34.333 -60.834 -54 -90.501
s-40.834 -57.834 -63.501 -84.501s-46 -50 -70 -70c-4 -18 -7.16699 -35.5 -9.5 -52.5s-3.5 -33.167 -3.5 -48.5c0 -51.333 14.667 -77 44 -77c13.333 0 26.666 4.66699 39.999 14s26.166 21.5 38.499 36.5s24 32.167 35 51.5s20.833 38.666 29.5 57.999l16 -8
c-26.667 -57.333 -55.667 -102.333 -87 -135s-65 -49 -101 -49c-28.667 0 -49.167 9.66699 -61.5 29s-18.5 44 -18.5 74c0 18 2 38 6 60c-37.333 -20.667 -74.333 -31 -111 -31c-11.333 0 -23.333 1.5 -36 4.5s-24.667 7.83301 -36 14.5c0.666992 -8 1.16699 -16 1.5 -24
s0.5 -15.667 0.5 -23c0 -42 -4.33301 -84 -13 -126s-20.334 -80 -35.001 -114s-31.167 -61.5 -49.5 -82.5s-37.166 -31.5 -56.499 -31.5c-5.33301 0 -11.166 1.16699 -17.499 3.5s-12.333 6.66602 -18 12.999s-10.334 15.166 -14.001 26.499s-5.5 26.333 -5.5 45
c0 25.333 3.83301 58 11.5 98s18.334 83.667 32.001 131s29.667 97.166 48 149.499s38.333 103.833 60 154.5s44.334 98.834 68.001 144.501s47.5 85.834 71.5 120.501s47.667 62.334 71 83.001s45.333 31 66 31c14 0 23.167 -4.33301 27.5 -13s6.5 -18.667 6.5 -30z
M115.001 72.0039c0 17.333 -1.66699 36.5 -5 57.5s-12 39.167 -26 54.5c-13.333 -38 -25.5 -75.333 -36.5 -112s-20.5 -71 -28.5 -103s-14.167 -61.167 -18.5 -87.5s-6.5 -48.166 -6.5 -65.499c0 -15.333 1.66699 -27.166 5 -35.499s8 -12.5 14 -12.5c9.33301 0 20 10 32 30
s23.167 45.167 33.5 75.5s19 63.166 26 98.499s10.5 68.666 10.5 99.999zM622.001 639.004c-4.66699 0 -12 -6.00195 -22 -18.002s-21.5 -28.333 -34.5 -49s-27.167 -45 -42.5 -73s-30.333 -57.667 -45 -89s-28.5 -63.833 -41.5 -97.5s-24.167 -66.5 -33.5 -98.5
c28.667 29.333 56.667 64 84 104s51.5 79.833 72.5 119.5s37.833 76.334 50.5 110.001s19 58.834 19 75.501c0 6.66699 -0.833008 11 -2.5 13s-3.16699 3 -4.5 3zM341.001 653.002c-13.333 0 -27.832 -8.16797 -43.499 -24.501s-32.167 -38.666 -49.5 -66.999
s-35 -61.333 -53 -99s-35.333 -77.5 -52 -119.5c32 30 61.167 60.333 87.5 91s48.666 59.5 66.999 86.5s32.5 51 42.5 72s15 36.5 15 46.5c0 9.33301 -4.66699 14 -14 14z" />
    <glyph glyph-name="b_r" unicode="br" horiz-adv-x="743" 
d="M105 270c-3.33301 -5.33301 -7.66602 -15.5029 -12.999 -30.5029s-10.5 -32.333 -15.5 -52s-9.5 -40.834 -13.5 -63.501s-6 -44.334 -6 -65.001c0 -28 4.16699 -50.667 12.5 -68s22.5 -26 42.5 -26c19.333 0 39.166 7.83301 59.499 23.5s37.166 35.834 50.499 60.501
c-24.667 12.667 -43 31 -55 55s-18 48.667 -18 74c0 32 8.33301 57.667 25 77s36.334 29 59.001 29c19.333 0 34.666 -7.83301 45.999 -23.5s17 -38.5 17 -68.5c0 -44.667 -11 -89 -33 -133c3.33301 -1.33301 6.83301 -2 10.5 -2h10.5c26.667 0 50.334 9.16699 71.001 27.5
s38.667 41 54 68s28.5 55.333 39.5 85l28.5 79.5c-3.33301 3.33301 -5.83301 6.83301 -7.5 10.5s-2.5 8.83398 -2.5 15.501c0 8.66699 1.66699 17 5 25s7.16602 15 11.499 21s9 10.833 14 14.5s9.5 5.5 13.5 5.5c5.33301 0 8.66602 -3.33301 9.99902 -10s2 -11 2 -13
c0 -6 -1.83301 -12.833 -5.5 -20.5s-5.5 -14.167 -5.5 -19.5c0 -8 5.33301 -15.667 16 -23s22.334 -16 35.001 -26s24.334 -22 35.001 -36s16 -31.667 16 -53c0 -15.333 -2.66699 -30.666 -8 -45.999s-11 -30.166 -17 -44.499l-17 -42
c-5.33301 -13.667 -8 -25.834 -8 -36.501c0 -11.333 3 -19 9 -23s13 -6 21 -6c16 0 32.667 5 50 15s33.833 22.5 49.5 37.5s29.834 31.167 42.501 48.5s22 33.333 28 48l13 -10c-9.33301 -21.333 -21.5 -42.5 -36.5 -63.5s-31.833 -39.667 -50.5 -56
s-38.334 -29.666 -59.001 -39.999s-41.667 -15.5 -63 -15.5c-22.667 0 -40.5 5.83301 -53.5 17.5s-19.5 27.834 -19.5 48.501c0 14 2.83301 29.167 8.5 45.5s12 32.666 19 48.999s13.333 32.333 19 48s8.5 30.5 8.5 44.5c0 10 -1.66699 18.833 -5 26.5
s-7.83301 14.334 -13.5 20.001s-11.834 10.667 -18.501 15s-13 8.83301 -19 13.5c-8 -25.333 -17.5 -53.5 -28.5 -84.5s-24.833 -60 -41.5 -87s-36.5 -49.667 -59.5 -68s-50.833 -27.5 -83.5 -27.5c-9.33301 0 -19 1 -29 3c-18 -30.667 -40.167 -56.834 -66.5 -78.501
s-57.166 -32.5 -92.499 -32.5c-34.667 0 -60.5 11.333 -77.5 34s-25.5 53.334 -25.5 92.001c0 33.333 5.83301 72.833 17.5 118.5s26.667 93 45 142s39 97.5 62 145.5s46 90.833 69 128.5s44.833 68.167 65.5 91.5s38 35 52 35c11.333 0 19.5 -7 24.5 -21s7.5 -28 7.5 -42
c0 -23.333 -6.33301 -53 -19 -89s-29.5 -72.667 -50.5 -110s-45.333 -72.5 -73 -105.5s-56.167 -58.5 -85.5 -76.5zM295 632.997c-5.33301 0 -15.499 -9.66895 -30.499 -29.002s-31.667 -44.5 -50 -75.5s-36.5 -65.833 -54.5 -104.5s-32.667 -77 -44 -115
c22.667 18.667 45 43.167 67 73.5s41.667 61.333 59 93s31.166 61.334 41.499 89.001s15.5 47.834 15.5 60.501c0 5.33301 -1.33301 8 -4 8zM184.001 172.995c0 -18 3.66699 -36.998 11 -56.998s19.666 -35.667 36.999 -47c7.33301 15.333 13 31.5 17 48.5s6 34.5 6 52.5
c0 23.333 -3.16699 41.666 -9.5 54.999s-14.166 20 -23.499 20c-10 0 -18.833 -6.83301 -26.5 -20.5s-11.5 -30.834 -11.5 -51.501z" />
    <glyph glyph-name="e_e" unicode="ee" horiz-adv-x="669" 
d="M302 299c0 -25.333 -7.49805 -49.166 -22.498 -71.499s-34.5 -42.166 -58.5 -59.499s-50.667 -31.5 -80 -42.5s-58.333 -17.833 -87 -20.5c-1.33301 -6.66699 -2.33301 -13 -3 -19s-1 -11.667 -1 -17c0 -10 1.16699 -20 3.5 -30s6.5 -19 12.5 -27
s14.167 -14.5 24.5 -19.5s23.166 -7.5 38.499 -7.5c36 0 71.167 12.333 105.5 37s64.5 55.667 90.5 93c6 27.333 16.667 54.833 32 82.5s33.833 52.5 55.5 74.5s45.167 39.833 70.5 53.5s51 20.5 77 20.5c15.333 0 29.5 -4 42.5 -12s19.5 -24.333 19.5 -49
c0 -25.333 -6.83301 -48.5 -20.5 -69.5s-31.5 -39.167 -53.5 -54.5s-47 -27.833 -75 -37.5s-56.333 -15.834 -85 -18.501c-1.33301 -6.66699 -2.33301 -13 -3 -19s-1 -11.667 -1 -17c0 -10 1.16699 -20.333 3.5 -31s6.33301 -20.334 12 -29.001s13.5 -15.667 23.5 -21
s22.667 -8 38 -8c21.333 0 42.833 5 64.5 15s42.5 23.333 62.5 40s38.667 36 56 58s32.333 45 45 69l12 -9c-13.333 -30 -29.833 -57.333 -49.5 -82s-41 -46 -64 -64s-47.167 -31.833 -72.5 -41.5s-50.333 -14.5 -75 -14.5c-20 0 -37.5 3.33301 -52.5 10
s-27.5 15.5 -37.5 26.5s-17.5 23.833 -22.5 38.5s-7.5 30 -7.5 46v5c-28.667 -38 -61.667 -67.667 -99 -89s-75 -32 -113 -32c-40.667 0 -71.167 11.167 -91.5 33.5s-30.5 49.833 -30.5 82.5c0 20 3.5 41 10.5 63s16.667 43.667 29 65s26.666 41.666 42.999 60.999
s34 36.333 53 51s38.5 26.334 58.5 35.001s40 13 60 13c15.333 0 29.5 -4 42.5 -12s19.5 -24.333 19.5 -49zM237.002 329c-16 0 -33 -6.16602 -51 -18.499s-35.333 -28.333 -52 -48s-31.667 -41.667 -45 -66s-23.333 -48.5 -30 -72.5c18 6 38.333 14.833 61 26.5
s44.334 25.5 65.001 41.5s38 33.667 52 53s21 39.666 21 60.999c0 7.33301 -1.33301 13 -4 17s-8.33398 6 -17.001 6zM557.002 315.001c-16 0 -32.332 -5.50098 -48.999 -16.501s-32.334 -25.5 -47.001 -43.5s-28 -38.333 -40 -61s-21.333 -46 -28 -70
c18 6 37.833 14 59.5 24s42 21.833 61 35.5s34.833 29.334 47.5 47.001s19 37.167 19 58.5c0 7.33301 -1.66699 13.5 -5 18.5s-9.33301 7.5 -18 7.5z" />
    <glyph glyph-name="l_l" unicode="ll" horiz-adv-x="474" 
d="M347 646c0 -14.667 -3.16211 -33.6602 -9.49512 -56.9932s-15.333 -48.833 -27 -76.5s-25.667 -56.834 -42 -87.501s-34.333 -60.834 -54 -90.501s-40.834 -57.834 -63.501 -84.501s-46 -50 -70 -70c-4 -18 -7.16699 -35.5 -9.5 -52.5s-3.5 -33.167 -3.5 -48.5
c0 -51.333 14.667 -77 44 -77c12 0 24.167 4 36.5 12s24.333 18.5 36 31.5s22.834 28 33.501 45s20.334 34.5 29.001 52.5c6.66699 34.667 16.667 72 30 112s28.666 79.833 45.999 119.5s35.666 77.834 54.999 114.501s38.333 69.167 57 97.5s36 51 52 68s29 25.5 39 25.5
c5.33301 0 10 -2.5 14 -7.5s7.5 -11.333 10.5 -19s5.16699 -15.834 6.5 -24.501s2 -16.334 2 -23.001c0 -22 -5.66699 -51 -17 -87s-27.5 -74 -48.5 -114s-46.333 -80 -76 -120s-62.834 -75 -99.501 -105c-4 -18 -7.16699 -35.5 -9.5 -52.5s-3.5 -33.167 -3.5 -48.5
c0 -51.333 14.667 -77 44 -77c13.333 0 26.666 4.66699 39.999 14s26.166 21.5 38.499 36.5s24.166 32.167 35.499 51.5s21.333 38.666 30 57.999l15 -8c-26.667 -57.333 -55.667 -102.333 -87 -135s-65 -49 -101 -49c-28.667 0 -49.167 9.66699 -61.5 29s-18.5 44 -18.5 74
v11c0 4 0.333008 8 1 12c-23.333 -40 -48 -71 -74 -93s-54 -33 -84 -33c-28.667 0 -49.167 9.66699 -61.5 29s-18.5 44 -18.5 74c0 32 6.16699 70.167 18.5 114.5s28 90.5 47 138.5s40.5 95.5 64.5 142.5s47.5 89.167 70.5 126.5s44.333 67.5 64 90.5s35.167 34.5 46.5 34.5
c5.33301 0 10 -2.5 14 -7.5s7.5 -11.333 10.5 -19s5.16699 -15.834 6.5 -24.501s2 -16.334 2 -23.001zM309.005 639.007c-4.66699 0 -12 -6.00195 -22 -18.002s-21.5 -28.333 -34.5 -49s-27.167 -45 -42.5 -73s-30.333 -57.667 -45 -89s-28.5 -63.833 -41.5 -97.5
s-24.167 -66.5 -33.5 -98.5c28.667 29.333 56.667 64 84 104s51.5 79.833 72.5 119.5s37.833 76.334 50.5 110.001s19 58.834 19 75.501c0 6.66699 -0.833008 11 -2.5 13s-3.16699 3 -4.5 3zM521.005 599.005c-6.66699 0 -18.001 -11.0029 -34.001 -33.0029
s-33.5 -51 -52.5 -87s-38.167 -77.167 -57.5 -123.5s-36 -93.5 -50 -141.5c28.667 29.333 55.334 61.833 80.001 97.5s46 70.834 64 105.501s32 66.834 42 96.501s15 52.834 15 69.501c0 6.66699 -0.833008 11 -2.5 13s-3.16699 3 -4.5 3z" />
    <glyph glyph-name="o_r" unicode="or" horiz-adv-x="724" 
d="M270 63c-18 0 -34 3.33301 -48 10c-23.333 -30 -48.333 -55 -75 -75s-52.667 -30 -78 -30c-28.667 0 -49 8.83301 -61 26.5s-18 39.167 -18 64.5c0 20.667 3.33301 42.167 10 64.5s15.334 42.833 26.001 61.5s23 34.167 37 46.5s28 18.5 42 18.5c6 0 13 -1.66699 21 -5
c-6 -5.33301 -13.167 -15.333 -21.5 -30s-16.166 -31 -23.499 -49s-13.5 -36 -18.5 -54s-7.5 -33.333 -7.5 -46c0 -20 3.16699 -34.5 9.5 -43.5s15.166 -13.5 26.499 -13.5c14 0 30.667 7.5 50 22.5s38.333 34.167 57 57.5c-19.333 15.333 -34 35.5 -44 60.5
s-15 50.5 -15 76.5c0 16.667 2.16699 32.5 6.5 47.5s10.666 28.333 18.999 40s18.5 21 30.5 28s26 10.5 42 10.5c27.333 0 45.666 -7.33301 54.999 -22s14 -33 14 -55c0 -26 -6.33301 -54.833 -19 -86.5s-28.667 -62.167 -48 -91.5c12 -6.66699 24.667 -10 38 -10
c26.667 0 49.5 7.5 68.5 22.5s35.5 33.833 49.5 56.5s26 47.5 36 74.5s18.667 52.5 26 76.5c-6.66699 6.66699 -10 14.667 -10 24c0 10 1.66699 19.167 5 27.5s7.33301 15.5 12 21.5s9.33398 10.667 14.001 14s8.33398 5 11.001 5c7.33301 0 11.5 -3.16699 12.5 -9.5
s1.5 -11.166 1.5 -14.499c0 -2 -0.5 -4.83301 -1.5 -8.5s-2.33301 -7.5 -4 -11.5s-3 -7.66699 -4 -11s-1.5 -5.33301 -1.5 -6c0 -9.33301 5.33301 -17.833 16 -25.5l35 -26c12.667 -9.66699 24.334 -21.334 35.001 -35.001s16 -31.167 16 -52.5
c0 -15.333 -2.66699 -30.833 -8 -46.5s-11 -30.834 -17 -45.501l-17 -41.5c-5.33301 -13 -8 -24.833 -8 -35.5c0 -12 3 -20 9 -24s13 -6 21 -6c16 0 32.667 5 50 15s33.833 22.5 49.5 37.5s29.834 31.167 42.501 48.5s22 33.333 28 48l13 -10
c-9.33301 -21.333 -21.5 -42.5 -36.5 -63.5s-31.833 -39.667 -50.5 -56s-38.334 -29.666 -59.001 -39.999s-41.667 -15.5 -63 -15.5c-22.667 0 -40.5 6 -53.5 18s-19.5 27.667 -19.5 47c0 14.667 2.83301 30.167 8.5 46.5s12 32.666 19 48.999s13.333 32.333 19 48
s8.5 30.167 8.5 43.5c0 10.667 -1.66699 19.834 -5 27.501s-7.83301 14.334 -13.5 20.001s-11.834 10.667 -18.501 15s-13 8.83301 -19 13.5c-8 -24.667 -17.333 -51 -28 -79s-23.834 -53.833 -39.501 -77.5s-34.667 -43.334 -57 -59.001s-48.833 -23.5 -79.5 -23.5z
M182 223c0 -19.333 2.83398 -38.833 8.50098 -58.5s14.167 -36.167 25.5 -49.5c16.667 24.667 30.5 50.5 41.5 77.5s16.5 52.5 16.5 76.5c0 19.333 -2.83301 33.5 -8.5 42.5s-12.834 13.5 -21.501 13.5c-6.66699 0 -13.667 -2.66699 -21 -8s-14 -12.5 -20 -21.5
s-11 -19.667 -15 -32s-6 -25.833 -6 -40.5z" />
    <glyph glyph-name="t_h" unicode="th" horiz-adv-x="763" 
d="M124 313c16.667 -3.33301 32.6689 -5.83594 48.002 -7.50293s31.666 -2.5 48.999 -2.5c34.667 0 77.667 5.33301 129 16c17.333 47.333 36.833 94.5 58.5 141.5s43.667 89.333 66 127s43.666 68.167 63.999 91.5s37.833 35 52.5 35c6 0 11.167 -2 15.5 -6
s7.66602 -9.16699 9.99902 -15.5s4.16602 -13.166 5.49902 -20.499s2 -14.333 2 -21c0 -23.333 -5.83301 -51 -17.5 -83s-27.5 -64.5 -47.5 -97.5s-43.167 -64.167 -69.5 -93.5s-54.166 -53 -83.499 -71c-6 -14.667 -12 -32.5 -18 -53.5s-11.333 -42.5 -16 -64.5
s-8.33398 -43.333 -11.001 -64s-4 -37.667 -4 -51c0 -7.33301 0.166992 -13.666 0.5 -18.999s0.833008 -10.333 1.5 -15c12 34 25 66.667 39 98s29.5 59 46.5 83s35.333 43 55 57s40.5 21 62.5 21c14 0 25.833 -2.66699 35.5 -8s17.5 -12.166 23.5 -20.499
s10.333 -18 13 -29s4 -21.833 4 -32.5c0 -15.333 -2.16699 -30.5 -6.5 -45.5s-9.33301 -29.5 -15 -43.5s-10.667 -27.667 -15 -41s-6.5 -26 -6.5 -38c0 -13.333 2.83301 -23 8.5 -29s12.834 -9 21.501 -9c11.333 0 24 4.33301 38 13s28 20.167 42 34.5
s27.667 31.166 41 50.499s25 40 35 62l13 -12c-10.667 -24.667 -23 -47.5 -37 -68.5s-29.333 -39.333 -46 -55s-34.167 -28 -52.5 -37s-37.166 -13.5 -56.499 -13.5c-23.333 0 -40.666 6 -51.999 18s-17 27 -17 45c0 10.667 1.66699 22.167 5 34.5l10.5 38.5l10.5 40
c3.33301 13.333 5 26 5 38c0 17.333 -3.66699 29.666 -11 36.999s-16.333 11 -27 11c-16.667 0 -31.667 -6.83301 -45 -20.5s-25.5 -30.667 -36.5 -51s-21.167 -42.5 -30.5 -66.5s-18.5 -46.167 -27.5 -66.5s-17.833 -37.333 -26.5 -51s-17.667 -20.5 -27 -20.5
c-6 0 -11.667 3 -17 9s-9.66602 13.833 -12.999 23.5s-6 20.667 -8 33s-3 25.166 -3 38.499c0 12 1 25.667 3 41c-25.333 -45.333 -56.5 -82.166 -93.5 -110.499s-75.833 -42.5 -116.5 -42.5c-59.333 0 -89 33 -89 99c0 14.667 1.66699 31.834 5 51.501
s7.83301 40.834 13.5 63.501s12.334 45.834 20.001 69.501s15.834 46.834 24.501 69.501c-6.66699 1.33301 -13 3.5 -19 6.5s-11.667 5.5 -17 7.5v18c5.33301 -0.666992 11.666 -2.33398 18.999 -5.00098s15.666 -4.33398 24.999 -5.00098c14 36 28.833 70.167 44.5 102.5
s31 60.833 46 85.5s29.333 44.167 43 58.5s25.5 21.5 35.5 21.5c5.33301 0 10.166 -1.83301 14.499 -5.5s6.5 -9.16699 6.5 -16.5c0 -8.66699 -4.16699 -21.5 -12.5 -38.5s-19 -36.833 -32 -59.5l-43 -76c-15.667 -28 -30.834 -57.333 -45.501 -88zM304.002 161.997
c4.66699 22 9.50293 42.832 14.5029 62.499s11.833 42.167 20.5 67.5c-23.333 -5.33301 -45 -9 -65 -11s-39.333 -3 -58 -3s-36.334 1 -53.001 3s-33.334 4.66699 -50.001 8c-15.333 -36 -28.333 -72.333 -39 -109s-16 -73 -16 -109c0 -29.333 4.33301 -50 13 -62
s23 -18 43 -18c34.667 0 68.667 15.333 102 46s62.666 72.334 87.999 125.001zM586.005 632.996c-5.33301 0 -14.667 -7.33398 -28 -22.001s-28.166 -35 -44.499 -61s-33 -56.5 -50 -91.5s-31.833 -72.833 -44.5 -113.5c22.667 18.667 44.5 41.334 65.5 68.001
s39.167 53.5 54.5 80.5s27.666 52.5 36.999 76.5s14 42.333 14 55c0 5.33301 -1.33301 8 -4 8z" />
    <glyph glyph-name="v_r" unicode="vr" horiz-adv-x="757" 
d="M352 116c17.333 0 33.1611 7.16309 47.4941 21.4961s27.166 32 38.499 53s21.333 43 30 66s16 43.167 22 60.5c-6.66699 6.66699 -10 14.667 -10 24c0 10 1.66699 19.167 5 27.5s7.33301 15.5 12 21.5s9.33398 10.667 14.001 14s8.33398 5 11.001 5
c7.33301 0 11.5 -3.16699 12.5 -9.5s1.5 -11.166 1.5 -14.499c0 -2 -0.5 -4.83301 -1.5 -8.5s-2.33301 -7.5 -4 -11.5s-3 -7.66699 -4 -11s-1.5 -5.33301 -1.5 -6c0 -9.33301 5.33301 -17.833 16 -25.5l35 -26c12.667 -9.66699 24.334 -21.334 35.001 -35.001
s16 -31.167 16 -52.5c0 -15.333 -2.66699 -30.833 -8 -46.5s-11 -30.834 -17 -45.501l-17 -41.5c-5.33301 -13 -8 -24.833 -8 -35.5c0 -12 3 -20 9 -24s13 -6 21 -6c16 0 32.667 5 50 15s33.833 22.5 49.5 37.5s29.834 31.167 42.501 48.5s22 33.333 28 48l13 -10
c-9.33301 -21.333 -21.5 -42.5 -36.5 -63.5s-31.833 -39.667 -50.5 -56s-38.334 -29.666 -59.001 -39.999s-41.667 -15.5 -63 -15.5c-22.667 0 -40.5 6 -53.5 18s-19.5 27.667 -19.5 47c0 14.667 2.83301 30.167 8.5 46.5s12 32.666 19 48.999s13.333 32.333 19 48
s8.5 30.167 8.5 43.5c0 10.667 -1.66699 19.834 -5 27.501s-7.83301 14.334 -13.5 20.001s-11.834 10.667 -18.501 15s-13 8.83301 -19 13.5c-7.33301 -21.333 -15.833 -44.166 -25.5 -68.499s-21 -47 -34 -68s-28 -38.5 -45 -52.5s-36.833 -21 -59.5 -21
c-22 0 -41.167 6.5 -57.5 19.5s-26.166 29.5 -29.499 49.5c-12 -24 -25.833 -48 -41.5 -72s-31.834 -45.5 -48.501 -64.5s-33.667 -34.333 -51 -46s-34 -17.5 -50 -17.5c-21.333 0 -35.833 10.167 -43.5 30.5s-11.5 46.833 -11.5 79.5c0 1.33301 0.333008 11.833 1 31.5
s2.33398 52.834 5.00098 99.501c1.33301 18 3.33301 30.333 6 37s11.334 10 26.001 10c11.333 0 18.5 -2.16699 21.5 -6.5s4.5 -12.833 4.5 -25.5c0 -22 -1.5 -47.833 -4.5 -77.5s-4.5 -57.5 -4.5 -83.5c0 -19.333 1.5 -33.5 4.5 -42.5s9.16699 -13.5 18.5 -13.5
c12 0 25.5 7 40.5 21s30 31.833 45 53.5s29.333 45.334 43 71.001s25.834 50.167 36.501 73.5c0.666992 22.667 2.33398 41.167 5.00098 55.5s6 25.833 10 34.5s8.66699 14.667 14 18s11 5 17 5c12.667 0 21.834 -4.5 27.501 -13.5s8.5 -17.167 8.5 -24.5
c0 -1.33301 -1.5 -6 -4.5 -14s-6.33301 -17.833 -10 -29.5s-7 -24.5 -10 -38.5s-4.5 -27.333 -4.5 -40c0 -15.333 3.33301 -28.5 10 -39.5s18.667 -16.5 36 -16.5z" />
    <glyph glyph-name="w_r" unicode="wr" horiz-adv-x="967" 
d="M567 127c16 0 30.8311 6.67285 44.498 20.0059s26 29.666 37 48.999s20.833 40 29.5 62s16 41.667 22 59c-6.66699 6.66699 -10 14.667 -10 24c0 10 1.66699 19.167 5 27.5s7.33301 15.5 12 21.5s9.33398 10.667 14.001 14s8.33398 5 11.001 5
c7.33301 0 11.5 -3.16699 12.5 -9.5s1.5 -11.166 1.5 -14.499c0 -2 -0.5 -4.83301 -1.5 -8.5s-2.33301 -7.5 -4 -11.5s-3 -7.66699 -4 -11s-1.5 -5.33301 -1.5 -6c0 -9.33301 5.33301 -17.833 16 -25.5l35 -26c12.667 -9.66699 24.334 -21.334 35.001 -35.001
s16 -31.167 16 -52.5c0 -15.333 -2.66699 -30.833 -8 -46.5s-11 -30.834 -17 -45.501l-17 -41.5c-5.33301 -13 -8 -24.833 -8 -35.5c0 -12 3 -20 9 -24s13 -6 21 -6c16 0 32.667 5 50 15s33.833 22.5 49.5 37.5s29.834 31.167 42.501 48.5s22 33.333 28 48l13 -10
c-9.33301 -21.333 -21.5 -42.5 -36.5 -63.5s-31.833 -39.667 -50.5 -56s-38.334 -29.666 -59.001 -39.999s-41.667 -15.5 -63 -15.5c-22.667 0 -40.5 6 -53.5 18s-19.5 27.667 -19.5 47c0 14.667 2.83301 30.167 8.5 46.5s12 32.666 19 48.999s13.333 32.333 19 48
s8.5 30.167 8.5 43.5c0 10.667 -1.66699 19.834 -5 27.501s-7.83301 14.334 -13.5 20.001s-11.834 10.667 -18.501 15s-13 8.83301 -19 13.5c-6.66699 -20 -15 -41.833 -25 -65.5s-21.5 -45.5 -34.5 -65.5s-27.833 -36.833 -44.5 -50.5s-35 -20.5 -55 -20.5
c-20.667 0 -38.167 6 -52.5 18s-24.833 28.667 -31.5 50c-12.667 -23.333 -26.834 -47.166 -42.501 -71.499s-32 -46.5 -49 -66.5s-34.167 -36.5 -51.5 -49.5s-33.666 -19.5 -48.999 -19.5c-10.667 0 -19.5 2.5 -26.5 7.5s-12.5 12 -16.5 21s-6.83301 19.333 -8.5 31
s-2.5 24.167 -2.5 37.5s0.666992 27.833 2 43.5s3 31.167 5 46.5l-35 -65c-12 -21.333 -24.833 -40.333 -38.5 -57s-27.667 -30.167 -42 -40.5s-29.166 -15.5 -44.499 -15.5c-11.333 0 -21.5 2.66699 -30.5 8s-16.833 12.666 -23.5 21.999s-11.834 20 -15.501 32
s-5.5 25 -5.5 39c0 18.667 3.16699 41.167 9.5 67.5s14 51.166 23 74.499s18.667 43.333 29 60s19.166 25 26.499 25c2 0 5 -0.5 9 -1.5s8 -2.33301 12 -4s7.66699 -3.83398 11 -6.50098s5 -5.33398 5 -8.00098c-5.33301 -8.66699 -11.833 -20.834 -19.5 -36.501
s-15 -33 -22 -52s-13 -38.333 -18 -58s-7.5 -37.834 -7.5 -54.501c0 -4 0.333008 -9.83301 1 -17.5s2.16699 -15.167 4.5 -22.5s5.83301 -13.666 10.5 -18.999s11 -8 19 -8c11.333 0 23.333 5.66699 36 17s25.5 26.166 38.5 44.499s26 38.833 39 61.5
s25.167 45.334 36.5 68.001c4 20.667 7.5 37 10.5 49s5.83301 21 8.5 27s5.66699 9.83301 9 11.5s7.33301 2.5 12 2.5c8.66699 0 15.667 -1.83301 21 -5.5s8 -9.16699 8 -16.5c0 -2 -0.666992 -5.66699 -2 -11c-4 -12 -7.66699 -26.5 -11 -43.5s-6.16602 -35 -8.49902 -54
s-4.33301 -38.167 -6 -57.5s-2.5 -37.333 -2.5 -54c0 -32.667 7.33301 -49 22 -49c10 0 22.167 7.33301 36.5 22s29 33.167 44 55.5s29.667 46.666 44 72.999s27.166 51.166 38.499 74.499c0 26 1 46.167 3 60.5s4.83301 25 8.5 32s8.16699 11.167 13.5 12.5s11 2 17 2
c12.667 0 21.834 -4.5 27.501 -13.5s8.5 -17.167 8.5 -24.5c-4.66699 -12.667 -10.5 -27.5 -17.5 -44.5s-10.5 -39.167 -10.5 -66.5c0 -15.333 3.5 -28.5 10.5 -39.5s20.167 -16.5 39.5 -16.5z" />
    <glyph glyph-name=".notdef" horiz-adv-x="279" 
 />
    <glyph glyph-name="space" unicode=" " horiz-adv-x="260" 
 />
    <glyph glyph-name="exclam" unicode="!" horiz-adv-x="261" 
d="M30 103c0 12 1.83398 26.001 5.50098 42.001s8.16699 32.5 13.5 49.5s11.333 34.167 18 51.5l18 47l58 148c20 50.667 39.667 96.667 59 138s37.666 75.166 54.999 101.499s33 39.5 47 39.5c5.33301 0 10 -2.16699 14 -6.5s6 -9.83301 6 -16.5
c0 -9.33301 -5.5 -28 -16.5 -56s-25.333 -61 -43 -99l-59.5 -122.5l-66 -127l-62 -112c-19.333 -33.667 -35 -59.5 -47 -77.5zM1.00098 -9.99902c-8.66699 0 -16.167 2.16699 -22.5 6.5s-9.5 11.166 -9.5 20.499c0 11.333 6.33301 21 19 29s25.667 12 39 12
c8 0 14.333 -1.66699 19 -5s7 -9.66602 7 -18.999c0 -10 -5.33301 -19.833 -16 -29.5s-22.667 -14.5 -36 -14.5z" />
    <glyph glyph-name="quotedbl" unicode="&#x22;" horiz-adv-x="246" 
d="M207 692c-18.667 -19.333 -32.5 -38.668 -41.5 -58.001l-27.5 -58c-6 3.33301 -10.333 8.33301 -13 15s-4 14 -4 22c0 10 1.83301 21.333 5.5 34s8.33398 24.334 14.001 35.001s12.167 19.667 19.5 27s14.666 11 21.999 11c6.66699 0 12.5 -2.83301 17.5 -8.5
s7.5 -12.167 7.5 -19.5zM327 691.998c-18.667 -19.333 -32.5 -38.668 -41.5 -58.001l-27.5 -58c-6 3.33301 -10.333 8.33301 -13 15s-4 14 -4 22c0 10 1.83301 21.333 5.5 34s8.33398 24.334 14.001 35.001s12.167 19.667 19.5 27s14.666 11 21.999 11
c6.66699 0 12.5 -2.83301 17.5 -8.5s7.5 -12.167 7.5 -19.5z" />
    <glyph glyph-name="numbersign" unicode="#" horiz-adv-x="669" 
d="M36 274c0.666992 12 6.5 22.3291 17.5 30.9961s25.667 15.667 44 21s39.833 9.33301 64.5 12s51 4.33398 79 5.00098c15.333 70.667 28.333 134.334 39 191.001s20 103.667 28 141c2 9.33301 5.33301 18 10 26s16.334 14.333 35.001 19
c-2 -8.66699 -5.16699 -24.834 -9.5 -48.501l-16 -86.5l-21 -113l-24.5 -128h4c21.333 0 42.333 -0.333008 63 -1s41 -1.66699 61 -3c15.333 71.333 28.5 135.5 39.5 192.5l28.5 142.5c2 9.33301 5.33301 18 10 26s16.334 14.333 35.001 19
c-2 -8.66699 -5.16699 -25 -9.5 -49l-16.5 -88l-22 -115l-25 -130c38 -2 73.833 -4.33301 107.5 -7s65.167 -4 94.5 -4c-18 -15.333 -35.5 -24.5 -52.5 -27.5s-33.167 -4.5 -48.5 -4.5c-21.333 0 -40.833 -0.166992 -58.5 -0.5s-34.5 -0.5 -50.5 -0.5l-8 -38.5
c-3.33301 -15.667 -5.66602 -28.167 -6.99902 -37.5c35.333 -2 68.5 -4.16699 99.5 -6.5s60.167 -3.5 87.5 -3.5c-18 -15.333 -35.333 -24.5 -52 -27.5s-32.667 -4.5 -48 -4.5h-50.5c-15.667 0 -30.834 -0.333008 -45.501 -1c-11.333 -56 -22 -105 -32 -147
s-20.833 -77 -32.5 -105s-24.834 -49.167 -39.501 -63.5s-32 -21.5 -52 -21.5c8.66699 10.667 17.667 26.834 27 48.501s18.666 47.334 27.999 77.001s18.666 62.334 27.999 98.001l28 110.5h-126c-11.333 -55.333 -22 -103.833 -32 -145.5s-20.667 -76.5 -32 -104.5
s-24.166 -49 -38.499 -63s-31.833 -21 -52.5 -21c8.66699 10.667 17.5 26.667 26.5 48s18.167 46.666 27.5 75.999s18.666 61.666 27.999 96.999l28 111l-68.5 -4c-23 -1.33301 -49.167 -3.33301 -78.5 -6l-56 -5c0.666992 12.667 6.83398 23.334 18.501 32.001
s27.167 15.667 46.5 21s41.833 9.33301 67.5 12s53.5 4.33398 83.5 5.00098c1.33301 7.33301 3.5 18 6.5 32s5.5 24.667 7.5 32l-64 -4c-21.333 -1.33301 -45.333 -3.33301 -72 -6zM258 224.996c21.333 0 42.668 -0.333008 64.001 -1s42 -1.66699 62 -3l16 72
c-26 0 -49.333 -0.166992 -70 -0.5s-40.334 -0.833008 -59.001 -1.5z" />
    <glyph glyph-name="dollar" unicode="$" horiz-adv-x="532" 
d="M386 720c-1.33301 -5.33301 -2.99707 -13.666 -4.99707 -24.999l-7 -40c22 0 40.333 -2.5 55 -7.5s26.334 -12.167 35.001 -21.5s14.667 -20.333 18 -33s5 -26.667 5 -42c0 -26 -4.16699 -53 -12.5 -81s-20.166 -54.667 -35.499 -80c-12 2.66699 -20.833 8 -26.5 16
s-8.5 16.667 -8.5 26c0 8 2 18.333 6 31l12.5 40l12.5 42c4 14 6 26.333 6 37c0 15.333 -5.33301 27.333 -16 36s-29.334 13 -56.001 13l-59 -312c17.333 -9.33301 34.333 -19.166 51 -29.499s31.667 -22.166 45 -35.499s24.166 -29 32.499 -47s12.5 -39.333 12.5 -64
c0 -30 -6.33301 -56.833 -19 -80.5s-29.5 -43.834 -50.5 -60.501s-45 -29.834 -72 -39.501s-55.167 -15.834 -84.5 -18.501c-13.333 -34.667 -28 -61 -44 -79s-34.667 -27 -56 -27c7.33301 9.33301 15.166 23.166 23.499 41.499s16.833 39.833 25.5 64.5
c-24.667 1.33301 -48 5.5 -70 12.5s-41.333 16.667 -58 29s-30 27.666 -40 45.999s-15 39.5 -15 63.5c0 22 4.16699 41.333 12.5 58s18.666 30.334 30.999 41.001s26 18.667 41 24s29.5 8 43.5 8c-18 -19.333 -31.667 -40.666 -41 -63.999s-14 -46.333 -14 -69
c0 -34 10.333 -61 31 -81s50.334 -32 89.001 -36c12 40 24.167 84.833 36.5 134.5s24.166 100.5 35.499 152.5l-49.5 30.5c-16.333 10.333 -31 22 -44 35s-23.5 28 -31.5 45s-12 36.833 -12 59.5c0 27.333 5.83301 53.333 17.5 78s27.5 46.667 47.5 66s43 35.5 69 48.5
s53.667 21.833 83 26.5c1.33301 6 2.66602 12.333 3.99902 19s3.5 13.167 6.5 19.5s7.5 12 13.5 17s14.667 9.16699 26 12.5zM182.003 458c0 -29.333 8.83301 -52.998 26.5 -70.998s39.167 -34 64.5 -48l32 157l26 131c-22.667 -4.66699 -43.167 -12.834 -61.5 -24.501
s-34 -25.334 -47 -41.001s-23 -32.5 -30 -50.5s-10.5 -35.667 -10.5 -53zM382.003 113.002c0 31.333 -8.49902 56.666 -25.499 75.999s-37.833 36.666 -62.5 51.999c-13.333 -68.667 -24.833 -125.167 -34.5 -169.5s-17.834 -76.166 -24.501 -95.499
c46 4.66699 82 19.334 108 44.001s39 55.667 39 93z" />
    <glyph glyph-name="percent" unicode="%" horiz-adv-x="699" 
d="M317 565c0 -21.333 -3.66602 -44.667 -10.999 -70s-17.5 -49 -30.5 -71s-28.5 -40.333 -46.5 -55s-37.667 -22 -59 -22c-14 0 -26.167 3 -36.5 9s-18.833 14 -25.5 24s-11.667 21.5 -15 34.5s-5 26.5 -5 40.5c0 22 3.5 45.667 10.5 71s16.833 48.5 29.5 69.5
s28 38.5 46 52.5s37.667 21 59 21c25.333 0 45.666 -9.33301 60.999 -28s23 -44 23 -76zM233.001 632.999c-14.667 0 -27.6689 -6.66797 -39.002 -20.001s-20.666 -29.666 -27.999 -48.999s-13 -39.666 -17 -60.999s-6 -40 -6 -56c0 -18.667 2.83301 -33.667 8.5 -45
s13.834 -17 24.501 -17c12 0 23.333 6.16699 34 18.5s20.167 28 28.5 47s14.833 39.333 19.5 61s7 42.167 7 61.5c0 17.333 -2.5 31.666 -7.5 42.999s-13.167 17 -24.5 17zM581.999 719.998c-3.33301 -9.33301 -12 -27.9971 -26 -55.9971l-50 -100l-64.5 -125l-70 -131.5
l-66 -120.5c-21 -37.333 -38.5 -67.333 -52.5 -90c-34.667 -55.333 -67 -99.833 -97 -133.5s-59.333 -50.5 -88 -50.5c15.333 15.333 35 40.666 59 75.999s50 76 78 122l86.5 148.5l84.5 156.5c26.667 51.333 50.667 99.666 72 144.999s38 83.333 50 114
c2 4.66699 6 9.66699 12 15s13 10.166 21 14.499s16.5 8 25.5 11s17.5 4.5 25.5 4.5zM639.999 218.001c0 -21.333 -3.66602 -44.667 -10.999 -70s-17.5 -49 -30.5 -71s-28.5 -40.333 -46.5 -55s-37.667 -22 -59 -22c-14 0 -26.167 3 -36.5 9s-18.833 14 -25.5 24
s-11.667 21.5 -15 34.5s-5 26.5 -5 40.5c0 22 3.5 45.667 10.5 71s16.833 48.5 29.5 69.5s28 38.5 46 52.5s37.667 21 59 21c25.333 0 45.666 -9.33301 60.999 -28s23 -44 23 -76zM556 286c-14.667 0 -27.6689 -6.66992 -39.002 -20.0029s-20.666 -29.666 -27.999 -48.999
s-13 -39.666 -17 -60.999s-6 -39.666 -6 -54.999c0 -19.333 2.83301 -34.666 8.5 -45.999s13.834 -17 24.501 -17c12 0 23.333 6.16699 34 18.5s20.167 28 28.5 47s14.833 39.333 19.5 61s7 42.167 7 61.5c0 17.333 -2.5 31.666 -7.5 42.999s-13.167 17 -24.5 17z" />
    <glyph glyph-name="ampersand" unicode="&#x26;" horiz-adv-x="617" 
d="M369 245c0.666992 14 3.83398 25.4961 9.50098 34.4961s13.167 16.167 22.5 21.5s20.166 9 32.499 11s25.5 3 39.5 3c30 0 57.833 -2.66699 83.5 -8s48.834 -8.33301 69.501 -9c-7.33301 -15.333 -14.5 -24.5 -21.5 -27.5s-13.833 -4.5 -20.5 -4.5
c-11.333 -0.666992 -21.833 -1 -31.5 -1h-26.5c-4.66699 -46 -17.334 -90.167 -38.001 -132.5s-46.5 -79.666 -77.5 -111.999s-66.167 -58.333 -105.5 -78s-80.333 -29.5 -123 -29.5c-30 0 -57 4.83301 -81 14.5s-44.5 22.834 -61.5 39.501s-30 36 -39 58
s-13.5 45.333 -13.5 70c0 30.667 6.66699 60.834 20 90.501s31.833 56.334 55.5 80.001s51.167 43.5 82.5 59.5s65 25.667 101 29c-26 21.333 -45.167 46 -57.5 74s-18.5 56 -18.5 84c0 26.667 5.16699 52.334 15.5 77.001s24.666 46.667 42.999 66
s40.166 34.833 65.499 46.5s53 17.5 83 17.5c72.667 0 109 -35.333 109 -106c0 -18.667 -2.33301 -37.167 -7 -55.5s-10.834 -34.666 -18.501 -48.999s-16 -26 -25 -35s-17.5 -13.5 -25.5 -13.5c-7.33301 0 -14.333 3.16699 -21 9.5s-12 13.833 -16 22.5
c23.333 20.667 42.833 42.167 58.5 64.5s23.5 46.5 23.5 72.5c0 20.667 -5.5 37.5 -16.5 50.5s-28.167 19.5 -51.5 19.5s-44 -5.66699 -62 -17s-33 -26.333 -45 -45s-21.167 -40.334 -27.5 -65.001s-9.5 -50.334 -9.5 -77.001c0 -12 0.833008 -24.667 2.5 -38
s4.5 -26.666 8.5 -39.999s9.83301 -26.333 17.5 -39s17.5 -24 29.5 -34c-33.333 -5.33301 -63.666 -16.5 -90.999 -33.5s-50.666 -37.333 -69.999 -61s-34.166 -49.167 -44.499 -76.5s-15.5 -54.333 -15.5 -81c0 -16.667 2.33301 -33.5 7 -50.5s12 -32.5 22 -46.5
s23.167 -25.5 39.5 -34.5s36.166 -13.5 59.499 -13.5c35.333 0 69.666 9 102.999 27s63.166 41.833 89.499 71.5s48.333 63.5 66 101.5s28.834 77 33.501 117c-10.667 -0.666992 -20.167 -1.33398 -28.5 -2.00098s-16.666 -1.5 -24.999 -2.5s-16.666 -2.33301 -24.999 -4
l-28.5 -5.5z" />
    <glyph glyph-name="quotesingle" unicode="'" horiz-adv-x="126" 
d="M207 692c-18.667 -19.333 -32.5 -38.668 -41.5 -58.001l-27.5 -58c-6 3.33301 -10.333 8.33301 -13 15s-4 14 -4 22c0 10 1.83301 21.333 5.5 34s8.33398 24.334 14.001 35.001s12.167 19.667 19.5 27s14.666 11 21.999 11c6.66699 0 12.5 -2.83301 17.5 -8.5
s7.5 -12.167 7.5 -19.5z" />
    <glyph glyph-name="parenleft" unicode="(" horiz-adv-x="259" 
d="M354 720c-44 -31.333 -81.834 -68.667 -113.501 -112s-57.5 -89.666 -77.5 -138.999s-34.667 -100.333 -44 -153s-14 -104 -14 -154s4.16699 -94.5 12.5 -133.5s19.833 -70.5 34.5 -94.5c-2.66699 -5.33301 -5.66699 -9.66602 -9 -12.999s-7 -6 -11 -8
c-12 7.33301 -23.333 19.666 -34 36.999s-19.667 38.333 -27 63s-13.166 52 -17.499 82s-6.5 61.333 -6.5 94c0 53.333 5.5 103.333 16.5 150s25.5 89.667 43.5 129s38.167 74.666 60.5 105.999s44.833 57.833 67.5 79.5s44.5 38.167 65.5 49.5s38.833 17 53.5 17z" />
    <glyph glyph-name="parenright" unicode=")" horiz-adv-x="269" 
d="M-71 -63c34.667 24.667 67.5 54.666 98.5 89.999s58.333 75.666 82 120.999s42.334 95.333 56.001 150s20.5 113.667 20.5 177c0 42 -4.5 83.333 -13.5 124s-28.167 81 -57.5 121c13.333 -3.33301 27.166 -12.166 41.499 -26.499s27.5 -33.666 39.5 -57.999
s21.833 -53.333 29.5 -87s11.5 -71.5 11.5 -113.5c0 -50 -5.5 -97.667 -16.5 -143s-25.167 -87.333 -42.5 -126s-36.666 -73.667 -57.999 -105s-42.666 -57.833 -63.999 -79.5s-41.333 -38.5 -60 -50.5s-33.667 -18 -45 -18c-4.66699 1.33301 -8.83398 4.33301 -12.501 9
s-6.83398 9.66699 -9.50098 15z" />
    <glyph glyph-name="asterisk" unicode="*" horiz-adv-x="392" 
d="M153 408c8.66699 12 15.8369 23.168 21.5039 33.501l16 30.5c5 10 9.83301 20.333 14.5 31l16 36h-26c-8.66699 0 -17.834 0.333008 -27.501 1s-18.667 2.16699 -27 4.5s-15.666 5.66602 -21.999 9.99902s-10.5 10.166 -12.5 17.499
c16.667 1.33301 34 2.16602 52 2.49902s39.667 1.16602 65 2.49902c-14 23.333 -25.5 45 -34.5 65s-13.5 36.667 -13.5 50c0 6 1.5 11 4.5 15s6.16699 7.66699 9.5 11l32.5 -68c9.66699 -20 21.5 -40.667 35.5 -62l21 46c6.66699 14.667 13.667 27.667 21 39
s15.166 21 23.499 29s18.166 13.333 29.499 16c-6 -16.667 -15.5 -37.5 -28.5 -62.5s-25.833 -51.167 -38.5 -78.5c7.33301 0.666992 15.5 1.33398 24.5 2.00098s18.167 1 27.5 1c16 0 31.667 -2 47 -6s28.333 -11.667 39 -23l-130 -12c6 -9.33301 12 -18.166 18 -26.499
s11.5 -17.666 16.5 -27.999s9.16699 -22 12.5 -35s5 -28.167 5 -45.5c-4 4.66699 -9.33301 11.667 -16 21l-22 31.5l-25 37l-26 38.5l-25.5 -47.5c-8.33301 -15 -16.833 -28.167 -25.5 -39.5s-17.334 -20.333 -26.001 -27s-17.334 -10 -26.001 -10z" />
    <glyph glyph-name="plus" unicode="+" horiz-adv-x="409" 
d="M141 -11c2.66699 16 4.66602 30.5 5.99902 43.5s2.33301 25.833 3 38.5s1.16699 25.667 1.5 39s0.5 28.333 0.5 45c-15.333 0 -29.5 -0.166992 -42.5 -0.5s-25.5 -0.833008 -37.5 -1.5s-24.333 -1.66699 -37 -3s-26.667 -3.33301 -42 -6c6.66699 18 24.5 30.333 53.5 37
s64.167 10.667 105.5 12v50c0 14 1.83301 30.5 5.5 49.5s11.5 36.833 23.5 53.5c1.33301 -13.333 3 -34 5 -62s3.33301 -58.333 4 -91c34 -0.666992 65.667 -2 95 -4s51 -3.66699 65 -5c-16.667 -12 -34.5 -19.833 -53.5 -23.5s-35.5 -5.5 -49.5 -5.5h-57
c-1.33301 -43.333 -5.16602 -80 -11.499 -110s-18.833 -48.667 -37.5 -56z" />
    <glyph glyph-name="comma" unicode="," horiz-adv-x="197" 
d="M66 28c-18.667 -19.333 -32.5 -38.668 -41.5 -58.001l-27.5 -58c-6 3.33301 -10.333 8.33301 -13 15s-4 14 -4 22c0 10 1.83301 21.333 5.5 34s8.33398 24.334 14.001 35.001s12.167 19.667 19.5 27s14.666 11 21.999 11c6.66699 0 12.5 -2.83301 17.5 -8.5
s7.5 -12.167 7.5 -19.5z" />
    <glyph glyph-name="hyphen" unicode="-" horiz-adv-x="485" 
d="M26 144c4 10 11.499 18.166 22.499 24.499s24.833 11.333 41.5 15s35.667 6.16699 57 7.5s44 2 68 2c36 0 69.333 -1.16699 100 -3.5s53.334 -4.16602 68.001 -5.49902c-16.667 -12 -34.5 -19.833 -53.5 -23.5s-35.5 -5.5 -49.5 -5.5h-95
c-16 0 -30.333 -0.166992 -43 -0.5s-25 -0.833008 -37 -1.5s-24.167 -1.66699 -36.5 -3s-26.5 -3.33301 -42.5 -6z" />
    <glyph glyph-name="period" unicode="." horiz-adv-x="215" 
d="M30 -10c-8.66699 0 -16.167 2.16699 -22.5 6.5s-9.5 11.166 -9.5 20.499c0 11.333 6.33301 21 19 29s25.667 12 39 12c8 0 14.333 -1.66699 19 -5s7 -9.66602 7 -18.999c0 -10 -5.33301 -19.833 -16 -29.5s-22.667 -14.5 -36 -14.5z" />
    <glyph glyph-name="slash" unicode="/" horiz-adv-x="331" 
d="M386 720c-2.66699 -7.33301 -8.16797 -20.999 -16.501 -40.999l-30 -73l-39.5 -95.5l-45 -109l-46.5 -113l-45 -107l-38.5 -92l-28 -67.5c-25.333 -60 -53.666 -105.667 -84.999 -137s-61.333 -47 -90 -47c15.333 15.333 33.833 42.5 55.5 81.5s44.5 84.333 68.5 136
l74 167l72.5 174.5l63 158.5l46.5 119.5c2 4.66699 6 9.66699 12 15s13 10.166 21 14.499s16.5 8 25.5 11s17.5 4.5 25.5 4.5z" />
    <glyph glyph-name="zero" unicode="0" horiz-adv-x="631" 
d="M603 474c0 -68 -9.33398 -135.336 -28.001 -202.003s-44.5 -126.667 -77.5 -180s-72 -96.5 -117 -129.5s-93.833 -49.5 -146.5 -49.5c-33.333 0 -62 7.16699 -86 21.5s-43.667 33.5 -59 57.5s-26.833 51.667 -34.5 83s-11.5 64.333 -11.5 99c0 38 4 77.833 12 119.5
s19.5 82.834 34.5 123.501s33.167 79.167 54.5 115.5s45.333 68.5 72 96.5s55.834 50.167 87.501 66.5s65.5 24.5 101.5 24.5c30 0 57.333 -5.83301 82 -17.5s45.5 -28.167 62.5 -49.5s30.167 -47.166 39.5 -77.499s14 -64.166 14 -101.499zM405.999 692.997
c-30 0 -57.8281 -9.16797 -83.4951 -27.501s-48.834 -42.333 -69.501 -72s-38.834 -63.667 -54.501 -102s-28.834 -77.5 -39.501 -117.5s-18.667 -79.167 -24 -117.5s-8 -72.833 -8 -103.5c0 -31.333 2.83301 -59.666 8.5 -84.999s13.667 -47 24 -65s23 -31.833 38 -41.5
s31.833 -14.5 50.5 -14.5c25.333 0 49.666 8.5 72.999 25.5s45.333 39.667 66 68s39.667 61 57 98s32.166 75.833 44.499 116.5s21.833 81.667 28.5 123s10 80.333 10 117c0 28 -2.16699 54.167 -6.5 78.5s-11.333 45.333 -21 63s-22.167 31.5 -37.5 41.5s-34 15 -56 15z
" />
    <glyph glyph-name="one" unicode="1" horiz-adv-x="366" 
d="M298 720c3.33301 -3.33301 5.67188 -7.99902 7.00488 -13.999s2 -11.667 2 -17c0 -16.667 -3 -34.5 -9 -53.5s-10.667 -38.5 -14 -58.5c-6.66699 -46 -15 -96.5 -25 -151.5s-21.5 -110 -34.5 -165s-27.167 -107.833 -42.5 -158.5s-32 -94.667 -50 -132
c14 2 27.333 3 40 3c25.333 0 46.666 -3.5 63.999 -10.5s28.333 -22.167 33 -45.5c-13.333 1.33301 -26.5 2.5 -39.5 3.5s-26.167 1.5 -39.5 1.5c-32 0 -61.5 -1.5 -88.5 -4.5s-54.167 -4.5 -81.5 -4.5c-12 0 -25.333 3.5 -40 10.5s-26.667 17.167 -36 30.5
c5.33301 -0.666992 10.666 -1.16699 15.999 -1.5s10.666 -0.5 15.999 -0.5c17.333 0 35.333 1 54 3s36.667 4.66699 54 8c10 23.333 19.667 51.5 29 84.5s18.333 68.333 27 106s17 76.5 25 116.5l23 117.5l21 108c6.66699 33.667 13 63.167 19 88.5l-48.5 -33
c-13 -8.66699 -24 -15.5 -33 -20.5s-16.167 -8.33301 -21.5 -10s-9.33301 -2.5 -12 -2.5c-8 0 -14.167 1.83301 -18.5 5.5s-6.5 11.5 -6.5 23.5c9.33301 4.66699 22.166 12.667 38.499 24s34.166 24.666 53.499 39.999s39.333 32.333 60 51s40 38 58 58z" />
    <glyph glyph-name="two" unicode="2" horiz-adv-x="560" 
d="M183 423c-23.333 6 -40.8369 15.335 -52.5039 28.002s-17.5 33 -17.5 61c0 26.667 5.16699 52.5 15.5 77.5s25 47.167 44 66.5s41.833 34.833 68.5 46.5s56 17.5 88 17.5c24.667 0 46.834 -4.66699 66.501 -14s36.5 -22.333 50.5 -39s24.667 -36 32 -58
s11 -45.667 11 -71c0 -34 -4.33301 -67.5 -13 -100.5s-20 -65.167 -34 -96.5c-13.333 -29.333 -29 -58.666 -47 -87.999s-37.5 -57.833 -58.5 -85.5s-43.167 -53.834 -66.5 -78.501s-47 -46.667 -71 -66l28 -6c34.667 -8 68.5 -15.167 101.5 -21.5s61.5 -9.5 85.5 -9.5
c12.667 0 24.5 1.83301 35.5 5.5s24.5 10.167 40.5 19.5c-8.66699 -34 -21.167 -58.833 -37.5 -74.5s-37.833 -23.5 -64.5 -23.5c-25.333 0 -55.333 6.16699 -90 18.5s-68.667 25.5 -102 39.5l-21.5 9.5c-7 3 -14.167 5.83301 -21.5 8.5
c-21.333 -13.333 -41.333 -23.833 -60 -31.5s-36.667 -11.5 -54 -11.5c-20 0 -36.333 5 -49 15s-19 23 -19 39c0 15.333 6 27.166 18 35.499s31 12.5 57 12.5c14.667 0 30.834 -1.33301 48.501 -4s36.5 -6 56.5 -10c30.667 26.667 61.834 60.334 93.501 101.001
s60.5 84.5 86.5 131.5s47.167 95.167 63.5 144.5s24.5 96 24.5 140c0 50 -10 86.167 -30 108.5s-45.333 33.5 -76 33.5c-22 0 -41.5 -5.16699 -58.5 -15.5s-31.333 -24.5 -43 -42.5s-20.5 -39.333 -26.5 -64s-9 -51.334 -9 -80.001c0 -13.333 0.833008 -24.833 2.5 -34.5
s4.83398 -20.834 9.50098 -33.501h-5zM37.9961 -26.998c10.667 0 22.334 2.83496 35.001 8.50195s26 13.167 40 22.5c-15.333 5.33301 -29.5 9.66602 -42.5 12.999s-24.167 5 -33.5 5c-13.333 0 -22.5 -2.83301 -27.5 -8.5s-7.5 -10.834 -7.5 -15.501
c0 -7.33301 3.66699 -13.333 11 -18s15.666 -7 24.999 -7z" />
    <glyph glyph-name="three" unicode="3" horiz-adv-x="511" 
d="M382 596c0 18 -2.49219 33.1641 -7.49219 45.4971s-11.667 22.333 -20 30s-18 13.167 -29 16.5s-22.167 5 -33.5 5c-14 0 -27.833 -2.33301 -41.5 -7s-25.834 -11.667 -36.501 -21s-19.334 -20.666 -26.001 -33.999s-10 -28.666 -10 -45.999
c0 -10 1.33301 -20.833 4 -32.5s6.66699 -23.167 12 -34.5c-3.33301 -7.33301 -9 -13.833 -17 -19.5s-15.667 -8.5 -23 -8.5c-6 0 -11.333 2.5 -16 7.5s-8.5 11.333 -11.5 19s-5.33301 16.167 -7 25.5s-2.5 18.333 -2.5 27c0 24 5.5 45.5 16.5 64.5s25.333 34.833 43 47.5
s37.667 22.334 60 29.001s44.833 10 67.5 10c20 0 39.333 -2.66699 58 -8s35 -13.333 49 -24s25.333 -24 34 -40s13 -35 13 -57s-4.5 -45.167 -13.5 -69.5s-21.333 -47.333 -37 -69s-34.167 -40.667 -55.5 -57s-44.333 -27.833 -69 -34.5
c28.667 -7.33301 52.667 -18.333 72 -33s34.666 -31 45.999 -49s19.5 -36.667 24.5 -56s7.5 -37.666 7.5 -54.999c0 -31.333 -6.83301 -62.333 -20.5 -93s-32.834 -58 -57.501 -82s-53.667 -43.333 -87 -58s-69.333 -22 -108 -22c-30.667 0 -56.5 4.5 -77.5 13.5
s-37.833 20.5 -50.5 34.5s-21.834 29.333 -27.501 46s-8.5 32.667 -8.5 48c0 12.667 1.66699 25.5 5 38.5s8.5 24.667 15.5 35s15.5 18.666 25.5 24.999s21.667 9.5 35 9.5h9.5c3 0 5.83301 -0.333008 8.5 -1c-9.33301 -8 -17 -21.167 -23 -39.5s-9 -36.166 -9 -53.499
c0 -16 2.5 -31.333 7.5 -46s12 -27.834 21 -39.501s20.167 -21 33.5 -28s28 -10.5 44 -10.5c20 0 39.667 5.33301 59 16s36.666 25.834 51.999 45.501s27.666 43.167 36.999 70.5s14 57.666 14 90.999c0 19.333 -1.83301 38.833 -5.5 58.5s-9.83398 37.667 -18.501 54
s-20.167 30.833 -34.5 43.5s-31.833 21.667 -52.5 27c24.667 10.667 47 25.5 67 44.5s37 39.833 51 62.5s24.833 46 32.5 70s11.5 46.667 11.5 68z" />
    <glyph glyph-name="four" unicode="4" horiz-adv-x="479" 
d="M422 720c2.66699 -1.33301 5.16406 -4.00195 7.49707 -8.00195s3.5 -10 3.5 -18c0 -15.333 -6.33301 -33.666 -19 -54.999l-11.5 -51l-17 -80l-20.5 -102l-23 -118h42c12.667 0 23.5 0.333008 32.5 1s18.167 2.33398 27.5 5.00098
c-12.667 -17.333 -27.667 -31.5 -45 -42.5s-32.333 -16.5 -45 -16.5h-22l-6 -30c-2 -10 -3.66699 -20 -5 -30c-2.66699 -15.333 -6 -35.666 -10 -60.999s-7.66699 -51.166 -11 -77.499l-9 -74c-2.66699 -23 -4 -39.5 -4 -49.5c-22.667 2 -41.167 6.66699 -55.5 14
s-21.5 18.333 -21.5 33c0.666992 8 2.33398 19.667 5.00098 35c2 13.333 4.83301 30.666 8.5 51.999l14.5 83c0.666992 4 3 15.667 7 35l15 71c-15.333 0 -30.166 0.166992 -44.499 0.5s-27.166 0.5 -38.499 0.5c-44 0 -81.5 -1.33301 -112.5 -4s-58.5 -6.66699 -82.5 -12
c0 18 6 32 18 42c26.667 31.333 59.167 65.166 97.5 101.499l118 113c40.333 39 79 79 116 120s67.167 81.833 90.5 122.5zM271.997 290.998l30.501 133c11 46 21.833 86.333 32.5 121l-59.5 -57.5l-63 -58.5l-61.5 -57.5c-20 -19 -38 -37.167 -54 -54.5
c-5.33301 -5.33301 -10.166 -10.5 -14.499 -15.5s-8.5 -9.5 -12.5 -13.5c14.667 2 30.5 3.33301 47.5 4s34.833 1 53.5 1c19.333 0 37.166 -0.166992 53.499 -0.5s32.166 -0.833008 47.499 -1.5z" />
    <glyph glyph-name="five" unicode="5" horiz-adv-x="484" 
d="M156 -55c26.667 0 50.333 6.83496 71 20.502s38.167 31.5 52.5 53.5s25.333 46.667 33 74s11.5 54.333 11.5 81c0 20.667 -2.5 40.334 -7.5 59.001s-12.833 35.167 -23.5 49.5s-24.5 25.833 -41.5 34.5s-37.5 13 -61.5 13c-24.667 0 -55.334 -3.66699 -92.001 -11
c3.33301 23.333 9.83301 53.666 19.5 90.999l31 115l31.5 110.5c10 34.333 17.333 60.166 22 77.499c20 -5.33301 38.833 -8.83301 56.5 -10.5s34.167 -2.5 49.5 -2.5c28 0 54.167 2 78.5 6s49.833 8.66699 76.5 14c2.66699 -10 4 -19 4 -27
c0 -14.667 -3.66699 -26.834 -11 -36.501s-17 -17.334 -29 -23.001s-25.333 -9.66699 -40 -12s-29 -3.5 -43 -3.5c-25.333 0 -46.666 2.16699 -63.999 6.5s-32.333 6.5 -45 6.5c-6 0 -10.333 -1.16699 -13 -3.5s-6 -7.83301 -10 -16.5
c-4.66699 -10.667 -9.66699 -24.167 -15 -40.5s-10.666 -34 -15.999 -53l-16 -57.5l-14 -52.5l-10 -40c-2.66699 -11 -4.33398 -17.5 -5.00098 -19.5c14 3.33301 28.167 5.83301 42.5 7.5s29.166 2.5 44.499 2.5c34 0 63.333 -4.83301 88 -14.5s45.167 -22.834 61.5 -39.501
s28.5 -36.667 36.5 -60s12 -48.333 12 -75c0 -36 -6.66699 -69.667 -20 -101s-31.666 -58.5 -54.999 -81.5s-51.166 -41 -83.499 -54s-67.833 -19.5 -106.5 -19.5c-32.667 0 -59.834 4.5 -81.501 13.5s-39 20.333 -52 34s-22.167 28.834 -27.5 45.501s-8 32.667 -8 48
c0 12.667 1.66699 25.5 5 38.5s8.5 24.833 15.5 35.5s15.5 19.167 25.5 25.5s21.667 9.5 35 9.5h9.5c3 0 5.83301 -0.333008 8.5 -1c-9.33301 -8 -17 -21 -23 -39s-9 -37.333 -9 -58c0 -15.333 1.83301 -30.166 5.5 -44.499s9.5 -27 17.5 -38s18.5 -20 31.5 -27
s28.833 -10.5 47.5 -10.5z" />
    <glyph glyph-name="six" unicode="6" horiz-adv-x="562" 
d="M419 697c-32 0 -62.001 -11.667 -90.001 -35s-53.5 -53.666 -76.5 -90.999s-43.167 -79 -60.5 -125s-31.333 -91.667 -42 -137c22 20.667 47.833 36.667 77.5 48s60.167 17 91.5 17c24.667 0 48.167 -3.83301 70.5 -11.5s41.833 -19.334 58.5 -35.001
s29.834 -35.667 39.501 -60s14.5 -53.5 14.5 -87.5c0 -38 -6.33301 -73.167 -19 -105.5s-30.5 -60.5 -53.5 -84.5s-50.333 -42.833 -82 -56.5s-66.5 -20.5 -104.5 -20.5c-37.333 0 -69 6.5 -95 19.5s-47 30.667 -63 53s-27.667 48.5 -35 78.5s-11 62 -11 96
c0 38 4.16699 78.167 12.5 120.5s20.333 84.333 36 126s34.667 81.334 57 119.001s47.833 71 76.5 100s60 52 94 69s70.333 25.5 109 25.5c27.333 0 49.833 -4.66699 67.5 -14s26.5 -24 26.5 -44c0 -9.33301 -3 -18.333 -9 -27s-18.333 -15.667 -37 -21
c0 5.33301 0.333008 9.66602 1 12.999s1 8.33301 1 15c0 14.667 -3.5 27.5 -10.5 38.5s-21.833 16.5 -44.5 16.5zM127.999 140c0 -18.667 1.50293 -39.334 4.50293 -62.001s9 -43.834 18 -63.501s21.167 -36.167 36.5 -49.5s35.666 -20 60.999 -20s48.333 7.16699 69 21.5
s38.167 33 52.5 56s25.5 48.833 33.5 77.5s12 57.334 12 86.001c0 26.667 -3.5 49.834 -10.5 69.501s-16.167 35.667 -27.5 48s-24.5 21.5 -39.5 27.5s-30.833 9 -47.5 9c-30 0 -55.333 -5.5 -76 -16.5s-37.334 -25.833 -50.001 -44.5s-21.834 -40 -27.501 -64
s-8.5 -49 -8.5 -75z" />
    <glyph glyph-name="seven" unicode="7" horiz-adv-x="404" 
d="M49 289c0.666992 14.667 5.32812 26.334 13.9951 35.001s19.667 15.334 33 20.001s28.333 7.5 45 8.5s33 1.5 49 1.5h24c26.667 50 55 99.333 85 148l80 133c-9.33301 0 -20.833 -0.333008 -34.5 -1l-43 -2l-44.5 -2c-14.667 -0.666992 -27.667 -1 -39 -1
c-39.333 0 -66.166 4.5 -80.499 13.5s-21.5 20.167 -21.5 33.5c0 12 4.33301 26 13 42c14 -2 27.167 -4.16699 39.5 -6.5s25.333 -4.5 39 -6.5s28.834 -3.66699 45.501 -5s36.334 -2 59.001 -2c31.333 0 62 1.5 92 4.5s55.333 8.16699 76 15.5l-23.5 -35
c-10.333 -15.333 -20.5 -28.666 -30.5 -39.999c-25.333 -36.667 -51.5 -79.5 -78.5 -128.5s-54.167 -103.5 -81.5 -163.5l51 -3.5c15.333 -1 31.333 -1.5 48 -1.5c9.33301 0 16 0.166992 20 0.5s8 1.16602 12 2.49902c-11.333 -16 -23.333 -28.5 -36 -37.5
s-27 -13.5 -43 -13.5h-32.5c-12.333 0 -26.833 0.333008 -43.5 1l-28.5 -67.5c-10.333 -24.333 -20 -49.166 -29 -74.499s-16.5 -50.5 -22.5 -75.5s-9 -48.5 -9 -70.5c0 -8.66699 0.833008 -16.334 2.5 -23.001s4.83398 -11.667 9.50098 -15
c-5.33301 -11.333 -11.666 -20.833 -18.999 -28.5s-14.666 -13.834 -21.999 -18.501s-14.5 -8 -21.5 -10s-12.833 -3 -17.5 -3c-9.33301 0 -17.333 3.66699 -24 11s-10 18.666 -10 33.999c0 14.667 3.5 33.667 10.5 57s16.667 50 29 80s26.666 62.333 42.999 97l51.5 107
c-9.33301 0 -20 -0.333008 -32 -1s-24.333 -1.5 -37 -2.5l-37 -3c-12 -1 -22 -2.16699 -30 -3.5z" />
    <glyph glyph-name="eight" unicode="8" horiz-adv-x="528" 
d="M19 77c0 28.667 6.49707 54.6641 19.4971 77.9971s29.667 45.166 50 65.499s43.333 39.833 69 58.5l77.5 57l-41.5 47.5c-13.667 16.333 -25.667 33.333 -36 51s-18.666 36.334 -24.999 56.001s-9.5 40.834 -9.5 63.501c0 30 5.5 55.333 16.5 76s25.333 37.667 43 51
s37.5 23 59.5 29s44 9 66 9c45.333 0 81.833 -12.167 109.5 -36.5s41.5 -60.166 41.5 -107.499c0 -24.667 -3.83301 -47.334 -11.5 -68.001s-18 -40.167 -31 -58.5s-28.167 -35.666 -45.5 -51.999s-35.666 -32.166 -54.999 -47.499l45.5 -50.5
c15 -17 28.5 -34.833 40.5 -53.5s21.667 -38.167 29 -58.5s11 -41.833 11 -64.5c0 -32 -7.16699 -61 -21.5 -87s-33 -48 -56 -66s-49.5 -31.833 -79.5 -41.5s-60.333 -14.5 -91 -14.5c-34 0 -62.167 5.33301 -84.5 16s-40.166 24.167 -53.499 40.5s-22.833 34 -28.5 53
s-8.5 37.167 -8.5 54.5zM79.9971 79.9971c0 -20 3.5 -37.832 10.5 -53.499s16.333 -29 28 -40s25 -19.5 40 -25.5s30.167 -9 45.5 -9c18 0 36.333 4 55 12s35.5 19.167 50.5 33.5s27.167 31.666 36.5 51.999s14 43.166 14 68.499c0 18.667 -2.66699 36.334 -8 53.001
s-12.666 32.667 -21.999 48s-20 30.333 -32 45s-24.333 29 -37 43l-67.5 -50.5c-21.667 -17 -40.834 -34.5 -57.501 -52.5s-30.167 -37.167 -40.5 -57.5s-15.5 -42.5 -15.5 -66.5zM200.997 566.998c0 -38 8.83496 -71.834 26.502 -101.501s38.5 -58.5 62.5 -86.5
c31.333 26.667 57.666 55.834 78.999 87.501s32 68.167 32 109.5c0 39.333 -9.16699 68.5 -27.5 87.5s-39.833 28.5 -64.5 28.5c-11.333 0 -23.333 -2.16699 -36 -6.5s-24.334 -11.5 -35.001 -21.5s-19.5 -23 -26.5 -39s-10.5 -35.333 -10.5 -58z" />
    <glyph glyph-name="nine" unicode="9" horiz-adv-x="567" 
d="M177 -64c32 0 61.667 11.6689 89 35.002s51.666 53.666 72.999 90.999s39.833 79 55.5 125s28.167 91.667 37.5 137c-21.333 -21.333 -46.666 -37.5 -75.999 -48.5s-59.333 -16.5 -90 -16.5c-25.333 0 -49.5 4 -72.5 12s-43.167 20.167 -60.5 36.5
s-31.166 37.333 -41.499 63s-15.5 56.167 -15.5 91.5c0 36.667 6 70.667 18 102s29 58.5 51 81.5s48.333 41.167 79 54.5s64.667 20 102 20c38.667 0 71.667 -6.83301 99 -20.5s49.333 -32.5 66 -56.5s28.834 -51.833 36.501 -83.5s11.5 -65.5 11.5 -101.5
c0 -37.333 -3.83301 -76.833 -11.5 -118.5s-18.834 -82.667 -33.501 -123s-32.5 -78.833 -53.5 -115.5s-45 -69 -72 -97s-57 -50.167 -90 -66.5s-68.167 -24.5 -105.5 -24.5c-28 0 -51 4.66699 -69 14s-27 24.666 -27 45.999c0 9.33301 3 18 9 26s17.667 14.667 35 20
c0 -5.33301 -0.166992 -9.5 -0.5 -12.5s-0.5 -7.16699 -0.5 -12.5c0 -15.333 3.66699 -28.833 11 -40.5s22.666 -17.5 45.999 -17.5zM294 293.002c53.333 0 92.166 16.334 116.499 49.001s36.5 75 36.5 127c0 24.667 -1.66699 50 -5 76s-9.66602 49.5 -18.999 70.5
s-22.166 38.333 -38.499 52s-37.166 20.5 -62.499 20.5c-24.667 0 -46.834 -6.83301 -66.501 -20.5s-36.334 -31.5 -50.001 -53.5s-24.167 -46.833 -31.5 -74.5s-11 -55.5 -11 -83.5c0 -28.667 3.66699 -53.334 11 -74.001s17 -37.5 29 -50.5s25.833 -22.667 41.5 -29
s32.167 -9.5 49.5 -9.5z" />
    <glyph glyph-name="colon" unicode=":" horiz-adv-x="217" 
d="M32 -10c-8.66699 0 -16.167 2.16699 -22.5 6.5s-9.5 11.166 -9.5 20.499c-0 11.333 6.33301 21 19 29s25.667 12 39 12c8 0 14.333 -1.66699 19 -5s7 -9.66602 7 -18.999c0 -10 -5.33301 -19.833 -16 -29.5s-22.667 -14.5 -36 -14.5zM92 240
c-8.66699 0 -16.167 2.16699 -22.5 6.5s-9.5 11.166 -9.5 20.499c0 11.333 6.33301 21 19 29s25.667 12 39 12c8 0 14.333 -1.66699 19 -5s7 -9.66602 7 -18.999c0 -10 -5.33301 -19.833 -16 -29.5s-22.667 -14.5 -36 -14.5z" />
    <glyph glyph-name="semicolon" unicode=";" horiz-adv-x="214" 
d="M92 240c-8.66699 0 -16.167 2.16699 -22.5 6.5s-9.5 11.166 -9.5 20.499c0 11.333 6.33301 21 19 29s25.667 12 39 12c8 0 14.333 -1.66699 19 -5s7 -9.66602 7 -18.999c0 -10 -5.33301 -19.833 -16 -29.5s-22.667 -14.5 -36 -14.5zM77 28
c-18.667 -19.333 -32.5 -38.668 -41.5 -58.001l-27.5 -58c-6 3.33301 -10.333 8.33301 -13 15s-4 14 -4 22c0 10 1.83301 21.333 5.5 34s8.33398 24.334 14.001 35.001s12.167 19.667 19.5 27s14.666 11 21.999 11c6.66699 0 12.5 -2.83301 17.5 -8.5s7.5 -12.167 7.5 -19.5
z" />
    <glyph glyph-name="less" unicode="&#x3c;" horiz-adv-x="311" 
d="M201 316c1.33301 -1.33301 2.49707 -4.50195 3.49707 -9.50195s1.5 -9.16699 1.5 -12.5c0 -13.333 -5.66699 -26.833 -17 -40.5s-25.5 -27 -42.5 -40s-35.333 -25.167 -55 -36.5s-37.834 -21.333 -54.501 -30l31.5 -22.5c9.66699 -7 20.334 -13.833 32.001 -20.5
s25.334 -13.5 41.001 -20.5s34.834 -14.833 57.501 -23.5c-3.33301 -3.33301 -7.33301 -6.83301 -12 -10.5s-10.334 -5.5 -17.001 -5.5c-12 0 -26.5 4 -43.5 12s-33.667 18 -50 30s-30.666 24.5 -42.999 37.5s-19.833 24.5 -22.5 34.5l13 2
c13.333 6.66699 28 15.834 44 27.501s32.167 24.5 48.5 38.5s31.833 28.833 46.5 44.5s27.334 30.834 38.001 45.501z" />
    <glyph glyph-name="equal" unicode="=" horiz-adv-x="504" 
d="M42 106c4 10 11.499 18.166 22.499 24.499s24.833 11.333 41.5 15s35.667 6.16699 57 7.5s44 2 68 2c36 0 69.333 -1.16699 100 -3.5s53.334 -4.16602 68.001 -5.49902c-16.667 -12 -34.5 -19.833 -53.5 -23.5s-35.5 -5.5 -49.5 -5.5h-101
c-15.333 0 -29 -0.166992 -41 -0.5s-23.833 -0.833008 -35.5 -1.5s-23.5 -1.66699 -35.5 -3s-25.667 -3.33301 -41 -6zM41.999 205.999c4 10 11.499 18.166 22.499 24.499s24.833 11.333 41.5 15s35.667 6.16699 57 7.5s44 2 68 2c36 0 69.333 -1.16699 100 -3.5
s53.334 -4.16602 68.001 -5.49902c-16.667 -12 -34.5 -19.833 -53.5 -23.5s-35.5 -5.5 -49.5 -5.5h-101c-15.333 0 -29 -0.166992 -41 -0.5s-23.833 -0.833008 -35.5 -1.5s-23.5 -1.66699 -35.5 -3s-25.667 -3.33301 -41 -6z" />
    <glyph glyph-name="greater" unicode="&#x3e;" horiz-adv-x="325" 
d="M56 316c10.667 -14.667 23.3311 -29.832 37.998 -45.499s30.167 -30.5 46.5 -44.5s32.5 -26.833 48.5 -38.5s30.667 -20.834 44 -27.501l13 -2c-2.66699 -10 -10.167 -21.5 -22.5 -34.5s-26.666 -25.5 -42.999 -37.5s-33 -22 -50 -30s-31.5 -12 -43.5 -12
c-6.66699 0 -12.334 1.83301 -17.001 5.5s-8.66699 7.16699 -12 10.5c22.667 8.66699 41.834 16.5 57.501 23.5s29.334 13.833 41.001 20.5s22.334 13.5 32.001 20.5l31.5 22.5c-16.667 8.66699 -34.834 18.667 -54.501 30s-38 23.5 -55 36.5s-31.167 26.333 -42.5 40
s-17 27.167 -17 40.5c0 3.33301 0.5 7.5 1.5 12.5s2.16699 8.16699 3.5 9.5z" />
    <glyph glyph-name="question" unicode="?" horiz-adv-x="438" 
d="M443 587c0 -24.667 -3.83008 -46.666 -11.4971 -65.999s-17.5 -37.666 -29.5 -54.999s-25.333 -34.166 -40 -50.499l-44 -51.5c-14.667 -18 -28.167 -37.167 -40.5 -57.5s-22.166 -43.5 -29.499 -69.5c-6.66699 -22.667 -10.667 -43 -12 -61
s-5.66602 -35.333 -12.999 -52c-13.333 6.66699 -21.833 12.834 -25.5 18.501s-5.5 15.167 -5.5 28.5c0 26.667 4.66699 51.167 14 73.5s21.166 43.666 35.499 63.999s29.666 40.333 45.999 60s31.666 40.167 45.999 61.5s26.166 44.166 35.499 68.499s14 51.166 14 80.499
c0 38 -7.5 66.333 -22.5 85s-33.833 28 -56.5 28c-17.333 0 -35 -5.5 -53 -16.5s-34.333 -26.167 -49 -45.5s-26.5 -41.833 -35.5 -67.5s-13.5 -53.167 -13.5 -82.5c0 -11.333 0.666992 -21.333 2 -30s3 -17.667 5 -27c-25.333 4 -42 12.833 -50 26.5s-12 30.5 -12 50.5
c0 28 5.16699 55.333 15.5 82s24.666 50.167 42.999 70.5s40.333 36.666 66 48.999s54.167 18.5 85.5 18.5c42 0 75 -11.333 99 -34s36 -55.667 36 -99zM182.003 -9.99902c-8.66699 0 -16.167 2.16699 -22.5 6.5s-9.5 10.833 -9.5 19.5c0 12 6.33301 22 19 30
s25.667 12 39 12c17.333 0 26 -7.33301 26 -22c0 -11.333 -5.33301 -21.833 -16 -31.5s-22.667 -14.5 -36 -14.5z" />
    <glyph glyph-name="at" unicode="@" horiz-adv-x="584" 
d="M342 202c5.33301 -0.666992 12.0088 -2.67188 20.0088 -6.00488s12 -8 12 -14c0 -4.66699 -2.33301 -11.167 -7 -19.5l-16 -28c-6 -10.333 -11.333 -21.166 -16 -32.499s-7 -22.333 -7 -33c0 -7.33301 2 -14.666 6 -21.999s13.333 -11 28 -11c16 0 31.667 5 47 15
s29 23 41 39s21.833 34.333 29.5 55s11.5 41.667 11.5 63c0 18.667 -3.33301 37.5 -10 56.5s-17.334 35.833 -32.001 50.5s-33.167 26.667 -55.5 36s-49.5 14 -81.5 14c-42.667 0 -81.5 -8.33301 -116.5 -25s-64.833 -38.334 -89.5 -65.001s-43.667 -56.667 -57 -90
s-20 -67 -20 -101c0 -22.667 3.33301 -44.667 10 -66s17.167 -40.5 31.5 -57.5s33.166 -30.667 56.499 -41s51.666 -15.5 84.999 -15.5c36 0 72.167 6.66699 108.5 20s71.5 35 105.5 65l6 -8c-25.333 -29.333 -57 -53.666 -95 -72.999s-81.667 -29 -131 -29
c-37.333 0 -69.5 5.83301 -96.5 17.5s-49.167 27.334 -66.5 47.001s-30 42 -38 67s-12 50.833 -12 77.5c0 38 7.66699 75.5 23 112.5s37 69.833 65 98.5s61.667 51.834 101 69.501s82.666 26.5 129.999 26.5c36.667 0 68.167 -5.16699 94.5 -15.5s48.166 -24 65.499 -41
s30.166 -36.333 38.499 -58s12.5 -43.834 12.5 -66.501c0 -24.667 -4.66699 -49.167 -14 -73.5s-21.833 -46.333 -37.5 -66s-34 -35.5 -55 -47.5s-43.5 -18 -67.5 -18c-22 0 -38.167 5.33301 -48.5 16s-15.5 25 -15.5 43c0 4 0.166992 7.5 0.5 10.5
s0.833008 6.16699 1.5 9.5c-46 -62 -89.667 -93 -131 -93c-16.667 0 -30.667 5.5 -42 16.5s-17 27.5 -17 49.5c0 24 6.66699 50.333 20 79s30.666 55.334 51.999 80.001s45.166 45.334 71.499 62.001s52.5 25 78.5 25c20.667 0 38 -5.5 52 -16.5s21 -25.5 21 -43.5
c0 -13.333 -3.66699 -22.333 -11 -27s-17 -7 -29 -7c1.33301 4 2.33301 8.5 3 13.5s1 9.5 1 13.5c0 12.667 -2.83301 23.334 -8.5 32.001s-15.5 13 -29.5 13c-12.667 0 -25.5 -3.83301 -38.5 -11.5s-25.667 -17.667 -38 -30s-24 -26.333 -35 -42
s-20.5 -31.834 -28.5 -48.501s-14.333 -33.167 -19 -49.5s-7 -30.833 -7 -43.5c0 -21.333 7.33301 -32 22 -32c12.667 0 26.667 6.33301 42 19s30.666 28.167 45.999 46.5s30 37.5 44 57.5z" />
    <glyph glyph-name="A" unicode="A" 
d="M-8 283c7.33301 19.333 20.167 32.8291 38.5 40.4961s40.166 11.5 65.499 11.5c11.333 0 22.833 -0.666992 34.5 -2s24.167 -3 37.5 -5l78 113l77.5 104.5c25 32.333 48.5 61.166 70.5 86.499s40.667 45.333 56 60c19.333 18.667 35.333 28 48 28
c14 0 31.667 -10.667 53 -32c-6.66699 -5.33301 -15.167 -19.666 -25.5 -42.999s-21.333 -52.166 -33 -86.499s-23.167 -72.333 -34.5 -114s-21.666 -83.667 -30.999 -126s-17 -83 -23 -122s-9 -73.167 -9 -102.5c0 -25.333 2.83301 -45 8.5 -59s15.167 -21 28.5 -21
c17.333 0 37 12 59 36s46 61.333 72 112l10 -10c-10 -26.667 -21.5 -51.167 -34.5 -73.5s-27 -41.5 -42 -57.5s-30.667 -28.5 -47 -37.5s-32.833 -13.5 -49.5 -13.5c-28 0 -48 12.167 -60 36.5s-18 56.833 -18 97.5c0 42.667 5.66699 92.334 17 149.001
c-30 4.66699 -57 8.5 -81 11.5l-67 8.5c-32 -58.667 -62.667 -118.5 -92 -179.5s-56.666 -121.167 -81.999 -180.5c-15.333 8.66699 -24.833 17.834 -28.5 27.501s-5.5 17.834 -5.5 24.501c0 14 4 31.833 12 53.5s18.833 46.167 32.5 73.5s29.667 56.833 48 88.5
s38.166 64.167 59.499 97.5c-24.667 2 -45.667 3.33301 -63 4s-32.333 1 -45 1h-35zM466.001 656.996c-15.333 -9.33301 -32.667 -24.5 -52 -45.5s-39.666 -46.167 -60.999 -75.5s-43.5 -62.5 -66.5 -99.5l-69.5 -117.5l67 -16l62 -15c7.33301 32.667 15.833 66 25.5 100
s19.667 67.167 30 99.5s21.166 62.833 32.499 91.5z" />
    <glyph glyph-name="B" unicode="B" horiz-adv-x="609" 
d="M564 561c0 -32.667 -7.16602 -60.498 -21.499 -83.498s-32.5 -42 -54.5 -57s-46.5 -26.833 -73.5 -35.5s-53.5 -15 -79.5 -19c49.333 -3.33301 89 -10.5 119 -21.5s53 -24.333 69 -40s26.667 -32.167 32 -49.5s8 -34 8 -50c0 -32.667 -7.16699 -62.5 -21.5 -89.5
s-33.5 -51.333 -57.5 -73s-51.167 -40.5 -81.5 -56.5s-61.666 -29.5 -93.999 -40.5s-64 -19.167 -95 -24.5s-58.833 -8 -83.5 -8c-36.667 0 -64.334 6.16699 -83.001 18.5s-28 32.833 -28 61.5c0 2 1.66699 3 5 3c2 0 4.83301 -0.5 8.5 -1.5s9 -2.16699 16 -3.5
s16 -2.5 27 -3.5s25.167 -1.5 42.5 -1.5c57.333 0 110.333 6.66699 159 20s90.667 31 126 53s63 47.333 83 76s30 58 30 88c0 27.333 -7.83301 49.166 -23.5 65.499s-35.667 29 -60 38s-51.333 15 -81 18s-58.834 4.5 -87.501 4.5c-13.333 0 -26.333 -0.166992 -39 -0.5
s-24.667 -0.5 -36 -0.5l-45 -162.5l-45 -159.5c-16.667 0 -30.667 4.66699 -42 14s-17 20.666 -17 33.999c0 8 1.66699 17.333 5 28l9 29l16.5 52.5c7.66699 24.333 17 52.5 28 84.5l36 104c13 37.333 26.833 75 41.5 113s29.667 74.833 45 110.5s30.333 67.834 45 96.501
c-21.333 -4 -39.833 -9 -55.5 -15s-29 -11.833 -40 -17.5s-20 -10.667 -27 -15s-12.167 -6.5 -15.5 -6.5c-5.33301 0 -12 3.16699 -20 9.5s-12 12.166 -12 17.499l50.5 20c17 6.66699 35 12.667 54 18s39.333 9.5 61 12.5s45.5 4.5 71.5 4.5c22 0 46.5 -1.83301 73.5 -5.5
s52.167 -11 75.5 -22s42.833 -27 58.5 -48s23.5 -48.833 23.5 -83.5zM335.001 699.002l-9.50098 -0.00195312c-3 0 -6.16699 -0.333008 -9.5 -1c-24 -47.333 -45.833 -98.666 -65.5 -153.999s-38.167 -113 -55.5 -173c36.667 1.33301 73.334 5.5 110.001 12.5
s69.667 18.167 99 33.5s53.333 35.333 72 60s28 55.334 28 92.001c0 26 -4.83301 47.333 -14.5 64s-22.334 30 -38.001 40s-33.667 16.833 -54 20.5s-41.166 5.5 -62.499 5.5z" />
    <glyph glyph-name="C" unicode="C" horiz-adv-x="535" 
d="M436 689c-24 0 -48.8379 -8.33301 -74.5049 -25s-51 -39.167 -76 -67.5s-48.5 -61 -70.5 -98s-41.5 -75.833 -58.5 -116.5s-30.333 -81.834 -40 -123.501s-14.5 -81.167 -14.5 -118.5c0 -24.667 2.66699 -48.667 8 -72s13.666 -44 24.999 -62s25.833 -32.333 43.5 -43
s39.167 -16 64.5 -16c26.667 0 53.334 5.83301 80.001 17.5s52 27.334 76 47.001s46 42.5 66 68.5s36.667 53.333 50 82l14 -10c-16.667 -32.667 -36 -63.5 -58 -92.5s-46 -54.333 -72 -76s-54.167 -38.834 -84.5 -51.501s-62.166 -19 -95.499 -19
c-35.333 0 -65.5 7 -90.5 21s-45.333 32.5 -61 55.5s-27.167 49 -34.5 78s-11 58.833 -11 89.5c0 44 5.83301 88.5 17.5 133.5s27.334 88.167 47.001 129.5s42.834 80.333 69.501 117s55.334 68.334 86.001 95.001s62.167 47.834 94.5 63.501s64.5 23.5 96.5 23.5
c27.333 0 49.5 -6.5 66.5 -19.5s25.5 -35.167 25.5 -66.5c0 -19.333 -3.5 -41.333 -10.5 -66s-16 -47.834 -27 -69.501s-23.333 -40 -37 -55s-27.5 -22.5 -41.5 -22.5c-5.33301 0 -10.833 1.66699 -16.5 5s-10.5 9.33301 -14.5 18c10 11.333 21.333 25.5 34 42.5
s24.334 34.833 35.001 53.5s19.667 37.334 27 56.001s11 35 11 49c0 13.333 -3.83301 24.166 -11.5 32.499s-20.167 12.5 -37.5 12.5z" />
    <glyph glyph-name="D" unicode="D" horiz-adv-x="654" 
d="M569 457c0 40.667 -5.00098 75.835 -15.001 105.502s-24 54.167 -42 73.5s-39.667 33.666 -65 42.999s-53 14 -83 14c-32.667 0 -63 -5 -91 -15s-52.167 -23.833 -72.5 -41.5s-36.333 -38.334 -48 -62.001s-17.5 -49.167 -17.5 -76.5c0 -14.667 1.66699 -27 5 -37
c-22 0 -37.5 5.5 -46.5 16.5s-13.5 24.167 -13.5 39.5c0 23.333 8.33301 47 25 71s39.167 45.833 67.5 65.5s61.5 35.667 99.5 48s78.667 18.5 122 18.5c44.667 0 82.834 -7 114.501 -21s57.5 -33.333 77.5 -58s34.5 -53.667 43.5 -87s13.5 -69.333 13.5 -108
c0 -48 -6.5 -94.5 -19.5 -139.5s-30.667 -87.333 -53 -127s-48.833 -75.834 -79.5 -108.501s-63.834 -60.667 -99.501 -84s-73 -41.5 -112 -54.5s-77.833 -19.5 -116.5 -19.5c-21.333 0 -41.166 2.83301 -59.499 8.5s-34.166 17.834 -47.499 36.501
c6.66699 31.333 14.834 65.833 24.501 103.5s20.167 75.834 31.5 114.501l34.5 114.5l33.5 105l29 86l20 56.5c2 5.33301 5.33301 13.166 10 23.499s10.334 20.833 17.001 31.5s14.334 19.834 23.001 27.501s18 11.5 28 11.5c9.33301 0 18.666 -3.33301 27.999 -10
c-20.667 -48 -41.667 -101.167 -63 -159.5s-41.5 -118 -60.5 -179s-36.5 -121 -52.5 -180s-29.333 -112.5 -40 -160.5c9.33301 -1.33301 17.166 -2.33301 23.499 -3s12.833 -1 19.5 -1c35.333 0 70 7 104 21s66 33.333 96 58s57.667 53.667 83 87
s47.166 69.166 65.499 107.499s32.666 78.333 42.999 120s15.5 83.167 15.5 124.5z" />
    <glyph glyph-name="E" unicode="E" horiz-adv-x="499" 
d="M384 696c-23.333 0 -43.835 -5.33984 -61.502 -16.0068s-32.5 -25.167 -44.5 -43.5s-21.167 -39.666 -27.5 -63.999s-9.5 -50.166 -9.5 -77.499c0 -12 0.833008 -24.667 2.5 -38s4.5 -26.666 8.5 -39.999s9.83301 -26.333 17.5 -39s17.5 -24 29.5 -34
c-33.333 -5.33301 -63.666 -16.5 -90.999 -33.5s-50.666 -37.333 -69.999 -61s-34.166 -49.167 -44.499 -76.5s-15.5 -54.333 -15.5 -81c0 -16.667 2.33301 -33.5 7 -50.5s12 -32.5 22 -46.5s23.167 -25.5 39.5 -34.5s36.166 -13.5 59.499 -13.5
c26.667 0 53.334 5.83301 80.001 17.5s52 27.334 76 47.001s46 42.5 66 68.5s36.667 53.333 50 82l14 -10c-17.333 -34 -37.166 -65.5 -59.499 -94.5s-46.5 -54.333 -72.5 -76s-54.167 -38.5 -84.5 -50.5s-62.166 -18 -95.499 -18c-30 0 -57 4.83301 -81 14.5
s-44.5 22.834 -61.5 39.501s-30 36 -39 58s-13.5 45.333 -13.5 70c0 30.667 6.66699 60.834 20 90.501s31.833 56.334 55.5 80.001s51.167 43.5 82.5 59.5s65 25.667 101 29c-26 21.333 -45.167 46 -57.5 74s-18.5 56 -18.5 84c0 26.667 5.16699 52.334 15.5 77.001
s24.666 46.667 42.999 66s40 34.833 65 46.5s52.5 17.5 82.5 17.5c37.333 0 65.666 -9.33301 84.999 -28s29 -45.334 29 -80.001c0 -18.667 -2.66699 -37 -8 -55s-12 -34.167 -20 -48.5s-16.667 -25.833 -26 -34.5s-18 -13 -26 -13c-7.33301 0 -14.333 3.16699 -21 9.5
s-12 13.833 -16 22.5c23.333 20.667 43.166 42.5 59.499 65.5s24.5 47.5 24.5 73.5c0 20.667 -6 36.667 -18 48s-29.667 17 -53 17z" />
    <glyph glyph-name="F" unicode="F" horiz-adv-x="483" 
d="M71 305c0.666992 12.667 4.49805 23.334 11.498 32.001s16.333 15.834 28 21.501s25.334 9.66699 41.001 12s32.5 3.83301 50.5 4.5c18.667 51.333 37.834 101.5 57.501 150.5s39.167 93.833 58.5 134.5c-6.66699 0.666992 -13.167 1.16699 -19.5 1.5
s-12.833 0.5 -19.5 0.5c-32 0 -58.333 -2.5 -79 -7.5s-37 -12.5 -49 -22.5s-20.333 -22.667 -25 -38s-7 -33.333 -7 -54c0 -15.333 1 -29 3 -41s5.33301 -24.667 10 -38c-23.333 4 -40.166 12.667 -50.499 26s-15.5 30.666 -15.5 51.999c0 26 7.16699 49.833 21.5 71.5
s34 40.167 59 55.5s54.167 27.333 87.5 36s69 13 107 13c35.333 0 69.333 -2.5 102 -7.5s65 -7.5 97 -7.5c26.667 0 51.334 3.33301 74.001 10c-24.667 -28 -45.334 -46.667 -62.001 -56s-33.667 -14 -51 -14c-15.333 0 -35.166 2 -59.499 6s-51.833 7.66699 -82.5 11
c-6.66699 -16.667 -13.834 -35.834 -21.501 -57.501l-24 -69.5l-25.5 -77l-25 -79c34 -2 65.667 -5 95 -9s56 -6.33301 80 -7c-5.33301 -8 -11.333 -14.167 -18 -18.5s-16.5 -7.5 -29.5 -9.5s-30.833 -3.5 -53.5 -4.5s-52.334 -1.83301 -89.001 -2.5l-44 -149
c-20 -67.333 -33.5 -121.666 -40.5 -162.999s-10.833 -74 -11.5 -98c-15.333 1.33301 -27.5 4.16602 -36.5 8.49902s-15.833 9.83301 -20.5 16.5s-7.66699 14.5 -9 23.5s-2 19.167 -2 30.5c0 18 3 39.167 9 63.5s13.667 50.833 23 79.5s19.833 58.667 31.5 90l34.5 94
l-36 -4c-12 -1.33301 -25.667 -3 -41 -5z" />
    <glyph glyph-name="G" unicode="G" horiz-adv-x="555" 
d="M445 -87c-16.667 6.66699 -29.8379 15.832 -39.5049 27.499s-14.5 26.5 -14.5 44.5c0 14.667 2.33301 30 7 46c-24 -33.333 -51.667 -61.333 -83 -84s-66.666 -34 -105.999 -34c-26 0 -50.5 5.5 -73.5 16.5s-42.833 27.167 -59.5 48.5s-29.834 47.333 -39.501 78
s-14.5 65.667 -14.5 105c0 42.667 5.83301 86.167 17.5 130.5s27.334 87.166 47.001 128.499s42.834 80.166 69.501 116.499s55.334 68 86.001 95s62.167 48.333 94.5 64s64.5 23.5 96.5 23.5c18.667 0 34.667 -3.16699 48 -9.5s24.166 -14.666 32.499 -24.999
s14.333 -22.333 18 -36s5.5 -27.834 5.5 -42.501c0 -17.333 -2.33301 -34.666 -7 -51.999s-11 -33 -19 -47s-17.333 -25.333 -28 -34s-22 -13 -34 -13c-5.33301 0 -10.833 1.66699 -16.5 5s-10.5 9.33301 -14.5 18c6.66699 4.66699 14.5 12.834 23.5 24.501
s17.5 24.667 25.5 39s14.833 29.5 20.5 45.5s8.5 30.667 8.5 44c0 15.333 -4.5 28 -13.5 38s-24.5 15 -46.5 15c-24 0 -48.833 -8.33301 -74.5 -25s-51 -39.167 -76 -67.5s-48.5 -61 -70.5 -98s-41.5 -75.833 -58.5 -116.5s-30.333 -81.834 -40 -123.501
s-14.5 -80.834 -14.5 -117.501c0 -60.667 12.667 -108.167 38 -142.5s57.333 -51.5 96 -51.5c26 0 50.667 9.66699 74 29s43.833 43.833 61.5 73.5s32.167 62.334 43.5 98.001s18.333 69.834 21 102.501c-24.667 5.33301 -44.667 8.83301 -60 10.5s-29.666 2.5 -42.999 2.5
c-9.33301 0 -18.666 -0.166992 -27.999 -0.5s-20.333 -0.5 -33 -0.5c4.66699 19.333 12.834 32.833 24.501 40.5s26.167 11.5 43.5 11.5c14 0 28.5 -2 43.5 -6s30 -8.5 45 -13.5s29.333 -10.167 43 -15.5s26.167 -9.33301 37.5 -12l-7 -32
c-12.667 -33.333 -23 -62.5 -31 -87.5s-14.167 -47.167 -18.5 -66.5s-7.33301 -36.166 -9 -50.499s-2.5 -27.5 -2.5 -39.5c0 -13.333 0.5 -26.333 1.5 -39s1.83301 -25.667 2.5 -39z" />
    <glyph glyph-name="H" unicode="H" horiz-adv-x="618" 
d="M632 720c-7.33301 -18.667 -15.1621 -41.3301 -23.4951 -67.9971l-26.5 -87l-28 -98.5l-27 -102.5c13.333 -0.666992 26.166 -1.5 38.499 -2.5s24.5 -1.5 36.5 -1.5c-15.333 -15.333 -29.833 -24.5 -43.5 -27.5s-27.167 -4.5 -40.5 -4.5l-17 -71.5
c-5.33301 -23 -10 -44.833 -14 -65.5c-12 -57.333 -20.5 -105.833 -25.5 -145.5s-7.5 -71.834 -7.5 -96.501c0 -8 0.166992 -14.833 0.5 -20.5s0.833008 -10.834 1.5 -15.501c-26 2.66699 -44 10 -54 22s-15 30.667 -15 56c0 17.333 2 39 6 65s10 54.667 18 86l22 79l31 106
c-30.667 0 -57.167 -0.166992 -79.5 -0.5s-42.5 -0.833008 -60.5 -1.5s-34.333 -1.33398 -49 -2.00098s-29.334 -1.66699 -44.001 -3l-36 -115l-33 -104.5l-25 -80.5l-13 -43c-7.33301 -23.333 -18 -39.833 -32 -49.5s-26.333 -14.5 -37 -14.5
c4 22.667 8.66699 46.167 14 70.5s12.166 51.833 20.499 82.5s18.5 66 30.5 106s27 87.333 45 142l-66 -7c0.666992 16.667 8.5 29.667 23.5 39s34.833 16.666 59.5 21.999l38 115l47 136c2.66699 7.33301 5.66699 16.5 9 27.5s5 21.5 5 31.5c0 5.33301 -0.833008 9 -2.5 11
s-5.5 3 -11.5 3c-16 0 -31.5 -6.66699 -46.5 -20s-28.333 -29.666 -40 -48.999s-20.834 -39.833 -27.501 -61.5s-10 -40.834 -10 -57.501c0 -12.667 1.66699 -24 5 -34c-22 0 -37.5 5.5 -46.5 16.5s-13.5 24.5 -13.5 40.5c0 22.667 6.83301 45.5 20.5 68.5
s30.667 43.667 51 62s42.166 33.333 65.499 45s44.333 17.5 63 17.5c18 0 30.167 -5 36.5 -15s9.5 -21 9.5 -33c0 -7.33301 -0.833008 -14.666 -2.5 -21.999s-3.5 -14.333 -5.5 -21l-78 -254c9.33301 0.666992 18.833 1.16699 28.5 1.5s19.5 0.5 29.5 0.5
c32 0 62 -0.833008 90 -2.5s54.667 -3.83398 80 -6.50098l30 95.5l28.5 88l24.5 71.5c7.33301 20.667 13.333 35.667 18 45l7.5 14.5c3 5.66699 6.83301 11.334 11.5 17.001s10 10.5 16 14.5s12.667 6 20 6z" />
    <glyph glyph-name="I" unicode="I" horiz-adv-x="460" 
d="M82 641c4.66699 25.333 22.832 44.502 54.499 57.502s81.5 19.5 149.5 19.5c24.667 0 50 -0.833008 76 -2.5s50.833 -3.5 74.5 -5.5s45.167 -4.16699 64.5 -6.5s35 -4.5 47 -6.5c-16 -16 -32.833 -25.833 -50.5 -29.5s-33.167 -5.5 -46.5 -5.5h-59
c-18 0 -34.667 -0.333008 -50 -1c-2 -12 -5.16699 -29.5 -9.5 -52.5l-14.5 -78.5l-18 -94.5l-19.5 -100.5c-6.33301 -33.333 -12.833 -65 -19.5 -95l-18 -78c-11.333 -43.333 -23.5 -79.5 -36.5 -108.5s-28.833 -49.833 -47.5 -62.5c17.333 -1.33301 35.333 -3 54 -5
l56.5 -6c19 -2 37.5 -3.83301 55.5 -5.5s35 -2.5 51 -2.5c-19.333 -19.333 -39.5 -31.333 -60.5 -36s-38.5 -7 -52.5 -7c-54 -0.666992 -105.5 -1.33398 -154.5 -2.00098s-97.833 -5.66699 -146.5 -15c2 18 7.66699 32.333 17 43s21.333 18.834 36 24.501
s31.334 9.16699 50.001 10.5s38.667 2 60 2c12 26 24 58 36 96s23.5 78.5 34.5 121.5l32.5 132l30 129l26.5 111.5c8.33301 33.333 15.833 59.666 22.5 78.999c-26 -0.666992 -48.833 -1.33398 -68.5 -2.00098s-38 -1.83398 -55 -3.50098s-33.5 -3.66699 -49.5 -6
s-33.333 -5.16602 -52 -8.49902z" />
    <glyph glyph-name="J" unicode="J" horiz-adv-x="412" 
d="M138 647c3.33301 22.667 17.832 40.1621 43.499 52.4951s65.5 18.5 119.5 18.5c20 0 40.333 -0.833008 61 -2.5s40.5 -3.5 59.5 -5.5s36.167 -4.16699 51.5 -6.5s27.666 -4.5 36.999 -6.5c-4 -6 -9.16699 -11 -15.5 -15s-13.166 -7 -20.499 -9
s-14.666 -3.33301 -21.999 -4s-13.666 -1 -18.999 -1c-13.333 0 -25.833 -0.166992 -37.5 -0.5s-22.834 -0.5 -33.501 -0.5c7.33301 -5.33301 12.666 -12.666 15.999 -21.999s5 -17.666 5 -24.999s-1.66699 -22.166 -5 -44.499s-8 -49.333 -14 -81s-13.333 -66.5 -22 -104.5
s-18.334 -76.5 -29.001 -115.5s-22 -77 -34 -114s-24.667 -70.167 -38 -99.5c-13.333 -30 -26.666 -54.5 -39.999 -73.5s-26.666 -34 -39.999 -45s-27 -18.5 -41 -22.5s-28.333 -6 -43 -6c-12 0 -24.333 1.5 -37 4.5s-24.167 9.16699 -34.5 18.5s-19 22.5 -26 39.5
s-10.5 39.5 -10.5 67.5c0 19.333 1.83301 39 5.5 59s8.66699 38 15 54s14.166 29.167 23.499 39.5s20 15.5 32 15.5c8 0 17.333 -2.66699 28 -8c-24 -61.333 -36 -114.666 -36 -159.999c0 -30 5.33301 -53.333 16 -70s26.334 -25 47.001 -25c8.66699 0 16.667 1.66699 24 5
s14.666 9 21.999 17s14.5 18.667 21.5 32s14.167 30.333 21.5 51c8.66699 24 17.834 52.833 27.501 86.5l29.5 108c10 38.333 19.667 77.5 29 117.5l26.5 116l22.5 104c6.66699 32 12 59 16 81c-24.667 0 -46.167 -0.5 -64.5 -1.5s-35 -2.16699 -50 -3.5
s-29.333 -3.16602 -43 -5.49902s-28.5 -5.5 -44.5 -9.5z" />
    <glyph glyph-name="K" unicode="K" horiz-adv-x="591" 
d="M596 720c3.33301 -4 5.66602 -11.002 6.99902 -21.002s2 -17.667 2 -23c0 -16.667 -6.16699 -35.167 -18.5 -55.5s-28.5 -41.333 -48.5 -63s-42.833 -43.5 -68.5 -65.5s-52 -43.167 -79 -63.5l-79.5 -58l-70 -48.5l58 -96.5c18.667 -30.333 39.334 -60.333 62.001 -90
s49 -60 79 -91s66.333 -63.833 109 -98.5c-4.66699 -9.33301 -12 -17.166 -22 -23.499s-20.667 -9.5 -32 -9.5c-12 0 -26 6.33301 -42 19s-32.667 29.334 -50 50.001s-35 44.334 -53 71.001s-35.333 54 -52 82s-32 55.5 -46 82.5s-26 51.5 -36 73.5l-97 -314
c-3.33301 -11.333 -8.33301 -20.166 -15 -26.499s-14.167 -11 -22.5 -14s-17 -4.66699 -26 -5s-17.5 -0.5 -25.5 -0.5l21.5 51.5l25.5 66.5l31.5 89l41 119.5l54 157.5l69.5 204c2 5.33301 4.66699 12.833 8 22.5s5 18.5 5 26.5c0 7.33301 -1.66699 13.166 -5 17.499
s-9.66602 6.5 -18.999 6.5c-16 0 -31.5 -6.66699 -46.5 -20s-28.333 -29.666 -40 -48.999s-20.834 -39.833 -27.501 -61.5s-10 -40.834 -10 -57.501c0 -12.667 1.66699 -24 5 -34c-22 0 -37.5 5.5 -46.5 16.5s-13.5 24.5 -13.5 40.5c0 22.667 6.83301 45.5 20.5 68.5
s30.667 43.667 51 62s42.166 33.333 65.499 45s44.333 17.5 63 17.5c18 0 30.167 -5 36.5 -15s9.5 -21 9.5 -33c0 -7.33301 -0.833008 -14.666 -2.5 -21.999s-3.5 -14.333 -5.5 -21l-84 -272c9.33301 13.333 21.5 25.666 36.5 36.999l49.5 39l71.5 61
c25.667 22.667 50.834 46.667 75.501 72s48 51.166 70 77.499s40.667 51.833 56 76.5z" />
    <glyph glyph-name="L" unicode="L" horiz-adv-x="571" 
d="M26 -53c-16 0 -30.3389 2.99805 -43.0059 8.99805s-23.167 13.333 -31.5 22s-14.666 18.167 -18.999 28.5s-6.5 19.5 -6.5 27.5c0 12 5.33301 22.333 16 31s29.667 13 57 13c17.333 0 36.5 -2 57.5 -6s42.833 -9 65.5 -15c12 20.667 23.333 44.334 34 71.001
s21 54.834 31 84.501l30 92.5l30 95c-31.333 10 -55.666 24.667 -72.999 44s-26 40.333 -26 63c0 8.66699 1.5 17.667 4.5 27s7.16699 17.833 12.5 25.5s11.833 14 19.5 19s16.167 7.5 25.5 7.5c-5.33301 -7.33301 -8.83301 -17.166 -10.5 -29.499
s-2.5 -23.166 -2.5 -32.499c0 -25.333 5.33301 -46.5 16 -63.5s24.334 -30.167 41.001 -39.5c12.667 40 26.334 78 41.001 114s30.667 67.667 48 95s36.333 49.166 57 65.499s43.667 24.5 69 24.5c10 0 20.667 -1.5 32 -4.5s21.833 -8.5 31.5 -16.5s17.667 -18.5 24 -31.5
s9.5 -29.5 9.5 -49.5c0 -23.333 -4.83301 -48.333 -14.5 -75s-24.334 -51.5 -44.001 -74.5s-44.5 -42.167 -74.5 -57.5s-65.667 -23 -107 -23h-16l-31.5 -93.5c-11 -31.667 -22.333 -62.334 -34 -92.001s-24 -58 -37 -85s-26.833 -51.5 -41.5 -73.5l69.5 -22
c23.667 -7.33301 46.834 -14 69.501 -20s44.667 -10.833 66 -14.5s41.333 -5.5 60 -5.5c26.667 0 50.334 5.33301 71.001 16c-11.333 -31.333 -25.666 -53.333 -42.999 -66s-38 -19 -62 -19c-18 0 -37.5 3 -58.5 9s-42.667 13.5 -65 22.5s-45 19 -68 30l-68.5 31.5
c-16.667 -18.667 -34 -33.167 -52 -43.5s-37.667 -15.5 -59 -15.5zM475.994 694.998c-15.333 0 -30.001 -7.83398 -44.001 -23.501s-27.5 -36.667 -40.5 -63s-25.667 -56.833 -38 -91.5l-37.5 -110c30 0 57.167 8.83301 81.5 26.5s45 38.834 62 63.501s30 50.5 39 77.5
s13.5 50.5 13.5 70.5c0 19.333 -3.66699 32.5 -11 39.5s-15.666 10.5 -24.999 10.5zM21.9932 -24.0029c14.667 0 28.334 4.00098 41.001 12.001s24.667 19.333 36 34c-21.333 8.66699 -41.666 15.834 -60.999 21.501s-37 8.5 -53 8.5c-12.667 0 -21.334 -1.66699 -26.001 -5
s-7 -8 -7 -14s1.66699 -12.333 5 -19s8.16602 -12.834 14.499 -18.501s13.833 -10.334 22.5 -14.001s18 -5.5 28 -5.5z" />
    <glyph glyph-name="M" unicode="M" horiz-adv-x="764" 
d="M743 700c-5.33301 -12 -11.9951 -29.8262 -19.9951 -53.4932s-16.333 -52.5 -25 -86.5c-10.667 -41.333 -21.334 -88 -32.001 -140s-20.334 -104.167 -29.001 -156.5s-15.834 -102.166 -21.501 -149.499s-8.5 -87 -8.5 -119c0 -11.333 0.333008 -20.333 1 -27
s1.66699 -12.834 3 -18.501s3 -11.167 5 -16.5s4 -12 6 -20c-17.333 0 -31.333 2 -42 6s-19 10.5 -25 19.5s-10 20.5 -12 34.5s-3 31.333 -3 52c0 80 10.167 165.167 30.5 255.5s43.5 184.833 69.5 283.5c-16 -20.667 -32.833 -46 -50.5 -76s-35.167 -62.333 -52.5 -97
l-51.5 -108c-17 -37.333 -32.667 -73.333 -47 -108l-39 -97c-11.667 -30 -20.834 -55 -27.501 -75c-4 -1.33301 -6.66699 -2.33301 -8 -3s-3.66602 -1 -6.99902 -1c-18 0 -29.833 10.667 -35.5 32s-8.5 51.333 -8.5 90c0 27.333 0.833008 60 2.5 98s3.5 76.667 5.5 116
s3.83301 77.666 5.5 114.999s2.5 69.333 2.5 96c0 13.333 -0.166992 24.166 -0.5 32.499s-0.833008 16.166 -1.5 23.499l-133.5 -317c-35.667 -87.333 -66 -158.5 -91 -213.5s-46.667 -95.167 -65 -120.5s-36.5 -38 -54.5 -38l33.5 73.5l70 155l97.5 216l116 258.5
c2 4.66699 4.16699 10.834 6.5 18.501s3.5 15.167 3.5 22.5s-2.16699 13.5 -6.5 18.5s-13.5 7.5 -27.5 7.5c-21.333 0 -39.833 -5.66699 -55.5 -17s-28.5 -25.833 -38.5 -43.5s-17.5 -37.334 -22.5 -59.001s-7.5 -42.5 -7.5 -62.5c0 -6.66699 0.166992 -12.334 0.5 -17.001
s0.833008 -9.33398 1.5 -14.001c-9.33301 0 -17.333 2.66699 -24 8s-12.167 12.166 -16.5 20.499s-7.5 17.333 -9.5 27s-3 18.5 -3 26.5c0 22 6 43.167 18 63.5s27.5 38.166 46.5 53.499s40 27.666 63 36.999s45.5 14 67.5 14c16 0 30.333 -3.16699 43 -9.5
s23.334 -17.833 32.001 -34.5s15.167 -39.5 19.5 -68.5s6.5 -66.167 6.5 -111.5c0 -31.333 -0.833008 -64.166 -2.5 -98.499s-3.83398 -68.833 -6.50098 -103.5l-7.5 -101c-2.33301 -32.667 -3.83301 -63 -4.5 -91c8.66699 34 20.834 70 36.501 108s32.667 76 51 114
s37.666 75.167 57.999 111.5l57.5 100l49 79.5l33 51c9.33301 13.333 17.166 23.5 23.499 30.5s15.166 10.5 26.499 10.5c9.33301 0 20 -2.33301 32 -7z" />
    <glyph glyph-name="N" unicode="N" horiz-adv-x="641" 
d="M663 720c-12 -30.667 -25.0029 -68.3311 -39.0029 -112.998l-43 -143.5c-14.667 -51 -29 -103.5 -43 -157.5s-26.333 -105.833 -37 -155.5s-19.5 -95.167 -26.5 -136.5s-10.5 -75 -10.5 -101c-21.333 0 -38.333 6 -51 18s-21.667 33 -27 63
c-3.33301 17.333 -7.5 41.333 -12.5 72l-16 101.5l-17.5 116.5l-17.5 118l-16 106c-5 32.667 -8.83301 59.667 -11.5 81l-70 -250.5l-52.5 -181.5c-15 -50 -28.167 -90.833 -39.5 -122.5s-21.666 -56.5 -30.999 -74.5s-18.5 -30.333 -27.5 -37s-18.5 -10 -28.5 -10
c8 32 18 67.5 30 106.5l43.5 141l59.5 194l79 264.5c1.33301 3.33301 2.83301 9.16602 4.5 17.499s2.5 16.166 2.5 23.499c0 6.66699 -1.16699 12.167 -3.5 16.5s-6.16602 6.5 -11.499 6.5c-16 0 -31.167 -6.16699 -45.5 -18.5s-26.666 -27.666 -36.999 -45.999
s-18.5 -37.833 -24.5 -58.5s-9 -39 -9 -55c0 -13.333 1.66699 -25 5 -35c-22 0 -37.5 5.5 -46.5 16.5s-13.5 24.5 -13.5 40.5c0 22.667 6.83301 45.5 20.5 68.5s30.5 43.667 50.5 62s41.667 33.333 65 45s44.666 17.5 63.999 17.5c20 0 36.5 -8.66699 49.5 -26
s23.667 -40.5 32 -69.5s15 -62.333 20 -100s9.83301 -76.5 14.5 -116.5l12 -99.5c4 -33 8 -64.333 12 -94l11 -81.5c3.33301 -24.667 6.33301 -45 9 -61c4.66699 31.333 11.5 67 20.5 107s19 81.167 30 123.5s22.5 84.166 34.5 125.499l33.5 113l27 86
c7.66699 23.333 12.834 38 15.501 44c2 4 5 8.83301 9 14.5s8.66699 11 14 16s11.5 9.33301 18.5 13s14.167 5.5 21.5 5.5z" />
    <glyph glyph-name="O" unicode="O" horiz-adv-x="624" 
d="M484 707c-28.667 0 -57.8291 -8.16699 -87.4961 -24.5s-58.334 -38.5 -86.001 -66.5s-53.834 -60.667 -78.501 -98s-46 -76.666 -64 -117.999s-32.333 -83.666 -43 -126.999s-16 -85.333 -16 -126c0 -26.667 2.5 -52.167 7.5 -76.5s13 -45.666 24 -63.999
s24.833 -32.833 41.5 -43.5s37 -16 61 -16c31.333 0 61 8.33301 89 25s53.833 39 77.5 67s45 60.667 64 98s35.167 76.666 48.5 117.999s23.666 83.5 30.999 126.5s11 84.167 11 123.5c0 14 -0.833008 29 -2.5 45s-4.16699 30.833 -7.5 44.5s-7.83301 25.167 -13.5 34.5
s-12.834 14 -21.501 14c-12 0 -25.167 -7.66699 -39.5 -23s-27.833 -34 -40.5 -56s-24 -45.333 -34 -70s-17 -46.334 -21 -65.001c-17.333 4 -29.666 10.333 -36.999 19s-11 18.667 -11 30c0 18 6.33301 38 19 60s28.167 42.833 46.5 62.5s38 36.167 59 49.5
s39.833 20 56.5 20c17.333 0 31.5 -6.33301 42.5 -19s19.667 -28.667 26 -48s10.666 -40.333 12.999 -63s3.5 -43.667 3.5 -63c0 -60.667 -5.83301 -116.667 -17.5 -168s-27.5 -98 -47.5 -140s-43 -78.833 -69 -110.5s-53.5 -58.334 -82.5 -80.001s-58.333 -38 -88 -49
s-57.834 -16.5 -84.501 -16.5c-28.667 0 -54.667 5.83301 -78 17.5s-43.5 28.334 -60.5 50.001s-30.167 47.834 -39.5 78.501s-14 64.667 -14 102c0 42.667 5.83301 86.167 17.5 130.5s27.5 87.166 47.5 128.499s43.5 80.166 70.5 116.499s55.833 68 86.5 95
s62.334 48.333 95.001 64s65 23.5 97 23.5c24.667 0 44.667 -4 60 -12h-11z" />
    <glyph glyph-name="P" unicode="P" horiz-adv-x="528" 
d="M195 296l-57.502 -202.997l-50.5 -180c-17.333 0 -33.166 4.66699 -47.499 14s-21.5 21.333 -21.5 36c0 7.33301 1.5 16.166 4.5 26.499s6.16699 19.833 9.5 28.5l59 183l56.5 165c19 53.333 39 106.666 60 159.999s44.5 109 70.5 167c-19.333 -4 -36.833 -9 -52.5 -15
s-29.5 -12 -41.5 -18s-21.833 -11.167 -29.5 -15.5s-12.834 -6.5 -15.501 -6.5c-2 0 -4.66699 1 -8 3s-6.83301 4.33301 -10.5 7s-6.66699 5.5 -9 8.5s-3.5 5.83301 -3.5 8.5c12.667 5.33301 27.334 11.166 44.001 17.499s34.667 12.333 54 18s39.333 10.334 60 14.001
s41.667 5.5 63 5.5c29.333 0 59.333 -4 90 -12s58.334 -20.167 83.001 -36.5s44.834 -36.5 60.501 -60.5s23.5 -52 23.5 -84c0 -34.667 -7.83301 -64.5 -23.5 -89.5s-35.834 -46 -60.501 -63s-52 -30.667 -82 -41s-59.167 -18.333 -87.5 -24s-54 -9.33398 -77 -11.001
s-39.833 -2.5 -50.5 -2.5h-10zM518.998 544.003c0 26.667 -5.00195 49.835 -15.002 69.502s-23.333 35.667 -40 48s-36 21.666 -58 27.999s-44.667 9.5 -68 9.5c-24.667 -48.667 -48.667 -106.834 -72 -174.501s-45.666 -138.5 -66.999 -212.5c36.667 2 74 8 112 18
s72.333 24.5 103 43.5s55.834 42.667 75.501 71s29.5 61.5 29.5 99.5z" />
    <glyph glyph-name="Q" unicode="Q" horiz-adv-x="694" 
d="M431 720c64.667 0 114.668 -21.834 150.001 -65.501s53 -102.834 53 -177.501c0 -42 -5.66699 -86 -17 -132s-27 -90.667 -47 -134s-43.833 -83.666 -71.5 -120.999s-57.834 -68.666 -90.501 -93.999c22.667 -12.667 46 -23.5 70 -32.5s50 -13.5 78 -13.5
c14.667 0 25.5 1.16699 32.5 3.5l25.5 8.5c-5.33301 -18 -12 -32.333 -20 -43s-16.5 -18.834 -25.5 -24.501s-18 -9.33398 -27 -11.001s-17.5 -2.5 -25.5 -2.5c-15.333 0 -30.166 2.33301 -44.499 7s-28 10.834 -41 18.501s-25.667 16.5 -38 26.5l-36.5 30
c-16 -8 -32.333 -14.333 -49 -19s-33.667 -7 -51 -7c-23.333 0 -42.166 3.5 -56.499 10.5s-25.5 15.333 -33.5 25s-13.333 19.5 -16 29.5s-4 17.667 -4 23c0 11.333 5.5 22.833 16.5 34.5s29.833 17.5 56.5 17.5c28 0 54.667 -6.5 80 -19.5s51.666 -27.833 78.999 -44.5
c30 26.667 56.5 60.834 79.5 102.501s42.333 85.834 58 132.501s27.667 93 36 139s12.5 86.667 12.5 122c0 27.333 -2.5 52.333 -7.5 75s-12.833 42 -23.5 58s-24.334 28.5 -41.001 37.5s-36.667 13.5 -60 13.5c-32 0 -62.333 -8.16699 -91 -24.5s-55.167 -38.5 -79.5 -66.5
s-46.166 -60.333 -65.499 -97s-35.833 -75.334 -49.5 -116.001s-24.167 -82.167 -31.5 -124.5s-11 -82.5 -11 -120.5c0 -14 0.5 -28 1.5 -42s3.16699 -28 6.5 -42c-15.333 0 -28 3.83301 -38 11.5s-17.833 18 -23.5 31s-9.66699 27.833 -12 44.5s-3.5 34 -3.5 52
c0 41.333 4.83301 83 14.5 125s23 82.333 40 121s37.667 74.667 62 108s51.166 62.333 80.499 87s60.833 44.167 94.5 58.5s68.5 21.5 104.5 21.5zM256.001 -38.001c14 0 27.501 1.83203 40.501 5.49902s25.5 8.83398 37.5 15.501c-20.667 18 -41.167 33.833 -61.5 47.5
s-41.5 20.5 -63.5 20.5c-15.333 0 -25.333 -3.16699 -30 -9.5s-7 -12.166 -7 -17.499c0 -4.66699 1.16699 -10.5 3.5 -17.5s6.66602 -13.833 12.999 -20.5s14.833 -12.334 25.5 -17.001s24.667 -7 42 -7z" />
    <glyph glyph-name="R" unicode="R" horiz-adv-x="578" 
d="M515 -88c-4 -8.66699 -11.1709 -16.333 -21.5039 -23s-20.166 -10 -29.499 -10c-12.667 0 -26.834 6.5 -42.501 19.5s-32.167 30.333 -49.5 52s-35 46.5 -53 74.5s-35.167 56.667 -51.5 86s-31.666 58.5 -45.999 87.5s-26.5 55.167 -36.5 78.5l-54.5 -193
c-17 -62.667 -33.167 -119.667 -48.5 -171c-17.333 0 -32.666 4.66699 -45.999 14s-20 21.333 -20 36c0 7.33301 1.5 16.166 4.5 26.499s6.16699 19.833 9.5 28.5l61 183.5c19.333 57 39 112.167 59 165.5l62 160c21.333 53.333 45 109.333 71 168
c-21.333 -3.33301 -40.5 -8.16602 -57.5 -14.499s-31.667 -12.666 -44 -18.999s-22.5 -11.833 -30.5 -16.5s-13.667 -7 -17 -7c-2 0 -4.66699 1 -8 3s-6.83301 4.33301 -10.5 7s-6.66699 5.5 -9 8.5s-3.5 5.83301 -3.5 8.5c12.667 5.33301 27.334 11.166 44.001 17.499
s34.667 12.333 54 18s39.666 10.334 60.999 14.001s43.333 5.5 66 5.5c28.667 0 58 -3.5 88 -10.5s57.167 -18 81.5 -33s44.333 -34.333 60 -58s23.5 -52.167 23.5 -85.5c0 -32.667 -7.66699 -60.834 -23 -84.501s-34.833 -43.5 -58.5 -59.5s-50 -28.833 -79 -38.5
s-57.333 -17 -85 -22s-53 -8.33301 -76 -10s-40.167 -2.5 -51.5 -2.5l58.5 -103c18.333 -33.333 38.833 -66.5 61.5 -99.5s48.834 -66.167 78.501 -99.5s65.834 -67.333 108.501 -102zM513.996 554.001c0 27.333 -5.16602 50.168 -15.499 68.501
s-23.833 33.166 -40.5 44.499s-35.667 19.5 -57 24.5s-43.333 7.5 -66 7.5c-23.333 -46 -46.333 -101.167 -69 -165.5s-44.334 -131.5 -65.001 -201.5c36 2 72.667 7.66699 110 17s71 23 101 41s54.5 40.5 73.5 67.5s28.5 59.167 28.5 96.5z" />
    <glyph glyph-name="S" unicode="S" horiz-adv-x="537" 
d="M102 453c0 28 6.66992 57.5078 20.0029 88.5078s32.333 59.833 57 86.5s54.667 48.667 90 66s74.666 26 117.999 26c38.667 0 65.834 -9.5 81.501 -28.5s23.5 -42.833 23.5 -71.5c0 -18 -2.5 -37.333 -7.5 -58s-11.333 -40.834 -19 -60.501s-16 -38.334 -25 -56.001
s-17.5 -32.834 -25.5 -45.501c-12 2.66699 -20.5 7.66699 -25.5 15s-7.5 16.666 -7.5 27.999c0 14 3 30.167 9 48.5s12.833 37 20.5 56s14.5 37.667 20.5 56s9 34.833 9 49.5c0 13.333 -4 23.833 -12 31.5s-22.667 11.5 -44 11.5c-31.333 0 -60.5 -7.5 -87.5 -22.5
s-50.333 -33.667 -70 -56s-35 -46.333 -46 -72s-16.5 -48.834 -16.5 -69.501c0 -24.667 7.33301 -45.834 22 -63.501s33.167 -33.834 55.5 -48.501s46.333 -28.834 72 -42.501s49.667 -29.334 72 -47.001s40.833 -38.334 55.5 -62.001s22 -52.5 22 -86.5
c0 -34.667 -7.83301 -65.167 -23.5 -91.5s-36 -48.5 -61 -66.5s-53 -31.667 -84 -41s-61.833 -14 -92.5 -14c-27.333 0 -53.5 3.66699 -78.5 11s-47.167 18.333 -66.5 33s-34.833 33.334 -46.5 56.001s-17.5 49 -17.5 79c0 26 4.16699 47.667 12.5 65s18.666 31 30.999 41
s26 17.167 41 21.5s29.5 6.5 43.5 6.5c-18 -19.333 -31.667 -40.666 -41 -63.999s-14 -46.666 -14 -69.999c0 -18.667 3.16699 -36.334 9.5 -53.001s15.666 -31.5 27.999 -44.5s28.166 -23.333 47.499 -31s42 -11.5 68 -11.5c22.667 0 45 3.16699 67 9.5
s41.833 15.5 59.5 27.5s32 27.167 43 45.5s16.5 39.5 16.5 63.5c0 28.667 -7.5 53.167 -22.5 73.5s-33.833 38.666 -56.5 54.999s-47 31.833 -73 46.5s-50.333 30.334 -73 47.001s-41.5 35.5 -56.5 56.5s-22.5 46.5 -22.5 76.5z" />
    <glyph glyph-name="T" unicode="T" horiz-adv-x="491" 
d="M69 632c1.33301 16.667 8.33398 30.667 21.001 42s29.667 20.333 51 27s46.666 11.5 75.999 14.5s61.333 4.5 96 4.5c34 0 65.5 -1.16699 94.5 -3.5s56.167 -4.83301 81.5 -7.5l74 -7.5c24 -2.33301 48 -3.5 72 -3.5c-23.333 -20.667 -49.5 -33.667 -78.5 -39
s-59.833 -8 -92.5 -8c-11.333 0 -23 0.166992 -35 0.5s-24 0.5 -36 0.5c-21.333 -54 -45.833 -121.333 -73.5 -202s-55.5 -172.334 -83.5 -275.001l-20 -73c-6 -22 -11.333 -42.667 -16 -62s-8.16699 -37.5 -10.5 -54.5s-3.5 -33.833 -3.5 -50.5v-11
c0 -4 0.333008 -7.66699 1 -11c-30 0 -50.667 6.5 -62 19.5s-17 30.167 -17 51.5c0 19.333 4 42.333 12 69s16.333 52.334 25 77.001l41 115.5l51.5 137.5l56 141.5c19 47 37.5 89.5 55.5 127.5c-34.667 -0.666992 -64.667 -1.33398 -90 -2.00098s-48.5 -1.66699 -69.5 -3
s-40.833 -3.16602 -59.5 -5.49902s-39 -5.5 -61 -9.5z" />
    <glyph glyph-name="U" unicode="U" horiz-adv-x="707" 
d="M607 -75c-12.667 -8.66699 -24.4941 -14.835 -35.4941 -18.502s-21.167 -5.5 -30.5 -5.5c-25.333 0 -45.166 10.5 -59.499 31.5s-21.5 45.833 -21.5 74.5c0 9.33301 0.666992 21.833 2 37.5s3.66602 33.5 6.99902 53.5c-12.667 -27.333 -26.5 -52.333 -41.5 -75
s-31.333 -42.167 -49 -58.5s-37 -29 -58 -38s-43.5 -13.5 -67.5 -13.5c-43.333 0 -75.833 13 -97.5 39s-32.5 58.333 -32.5 97c0 21.333 3.16699 46.5 9.5 75.5s14 59.833 23 92.5s19 66.5 30 101.5s21 69.5 30 103.5s16.667 66.5 23 97.5s9.5 59.167 9.5 84.5
c0 58.667 -18.667 88 -56 88c-18 0 -33.667 -6 -47 -18s-24.333 -26.667 -33 -44s-15.167 -36.166 -19.5 -56.499s-6.5 -38.5 -6.5 -54.5c0 -20 2.66699 -36.333 8 -49c-25.333 0 -43.166 6.66699 -53.499 20s-15.5 29.666 -15.5 48.999c0 20.667 5 41.667 15 63
s23.833 40.833 41.5 58.5s38 32 61 43s47.5 16.5 73.5 16.5c36.667 0 63 -11 79 -33s24 -51.333 24 -88s-6.33301 -78.667 -19 -126s-26.834 -95.333 -42.501 -144s-29.834 -96.167 -42.501 -142.5s-19 -86.833 -19 -121.5c0 -31.333 6.5 -57.833 19.5 -79.5
s34.5 -32.5 64.5 -32.5c27.333 0 52.333 9.16699 75 27.5s42.667 41 60 68s32 56.333 44 88s21.333 60.834 28 87.501l26 106l28.5 111c9.66699 36.667 19.667 71.834 30 105.501s20.666 63.334 30.999 89.001s20.333 46.167 30 61.5s19.167 23 28.5 23
c5.33301 0 12.666 -2.83301 21.999 -8.5s18.666 -13.5 27.999 -23.5c-6 -4 -14.5 -18.333 -25.5 -43s-23.333 -55.667 -37 -93s-27.667 -79 -42 -125s-27.333 -92.333 -39 -139s-21.334 -91.5 -29.001 -134.5s-11.5 -80.167 -11.5 -111.5c0 -23.333 1.5 -42.5 4.5 -57.5
s7.66699 -26.833 14 -35.5s14.666 -14.834 24.999 -18.501s22.5 -5.5 36.5 -5.5z" />
    <glyph glyph-name="V" unicode="V" horiz-adv-x="633" 
d="M230 -56c18.667 0 40.3311 9.66797 64.998 29.001s50.167 45.166 76.5 77.499s52 69.333 77 111s47.5 84.834 67.5 129.501s36 88.834 48 132.501s18 83.834 18 120.501c0 33.333 -5 57.666 -15 72.999s-23.333 25.666 -40 30.999c9.33301 16 19.166 27.667 29.499 35
s19.833 11 28.5 11c14 0 27.667 -9 41 -27s20 -46 20 -84c0 -36.667 -7 -78.667 -21 -126s-32.5 -95.666 -55.5 -144.999s-49.5 -98 -79.5 -146s-61.167 -90.667 -93.5 -128s-64.666 -67.5 -96.999 -90.5s-62.166 -34.5 -89.499 -34.5c-7.33301 0 -15.833 1 -25.5 3
s-19 6 -28 12s-16.667 14.167 -23 24.5s-9.5 23.833 -9.5 40.5c0 24.667 6.5 58.167 19.5 100.5l43.5 140.5c16 51.333 30.5 104.666 43.5 159.999s19.5 108 19.5 158c0 18.667 -0.333008 36.334 -1 53.001s-3 31.5 -7 44.5s-10 23.333 -18 31s-19.333 11.5 -34 11.5
c-18.667 0 -34.5 -5.66699 -47.5 -17s-23.667 -25.5 -32 -42.5s-14.333 -35.167 -18 -54.5s-5.5 -37.333 -5.5 -54c0 -22 3 -40 9 -54c-26 0 -44.333 7.16699 -55 21.5s-16 31.166 -16 50.499c0 20.667 5 41.5 15 62.5s23.333 40 40 57s36 31 58 42s45.333 16.5 70 16.5
c42 0 73 -16.167 93 -48.5s30 -75.5 30 -129.5c0 -48.667 -6.66699 -99.834 -20 -153.501s-28.166 -105.667 -44.499 -156l-44.5 -141c-13.333 -43.667 -20 -79.834 -20 -108.501c0 -11.333 1.83301 -20.666 5.5 -27.999s11.167 -11 22.5 -11z" />
    <glyph glyph-name="W" unicode="W" horiz-adv-x="907" 
d="M526 395c22 0 37.4941 -5.66211 46.4941 -16.9951s13.5 -22 13.5 -32c0 -13.333 -5.83301 -33.333 -17.5 -60l-38 -90.5c-13.667 -33.667 -26.334 -68.834 -38.001 -105.501s-17.5 -71.334 -17.5 -104.001c0 -12.667 1.66699 -22.834 5 -30.501s11 -11.5 23 -11.5
c18.667 0 40.334 9.66699 65.001 29s50.167 45.166 76.5 77.499s52 69.333 77 111s47.5 84.834 67.5 129.501s36 88.834 48 132.501s18 83.834 18 120.501c0 33.333 -5 57.666 -15 72.999s-23.333 25.666 -40 30.999c9.33301 16 19.166 27.667 29.499 35s19.833 11 28.5 11
c14 0 27.667 -9 41 -27s20 -46 20 -84c0 -36.667 -7 -78.667 -21 -126s-32.5 -95.666 -55.5 -144.999s-49.5 -98 -79.5 -146s-61.167 -90.667 -93.5 -128s-64.666 -67.5 -96.999 -90.5s-62.166 -34.5 -89.499 -34.5c-9.33301 0 -19.166 1.5 -29.499 4.5
s-19.666 7.5 -27.999 13.5s-15.166 13.667 -20.499 23s-8 20.666 -8 33.999c0 10 1.83301 22.667 5.5 38s8.5 32.666 14.5 51.999c-17.333 -24 -34.666 -46.167 -51.999 -66.5s-34.833 -37.666 -52.5 -51.999s-35.167 -25.666 -52.5 -33.999s-34 -12.5 -50 -12.5
c-7.33301 0 -15.833 1 -25.5 3s-19 6 -28 12s-16.667 14.167 -23 24.5s-9.5 23.833 -9.5 40.5c0 24.667 6.5 58.167 19.5 100.5l43.5 140.5c16 51.333 30.5 104.666 43.5 159.999s19.5 108 19.5 158c0 18.667 -0.333008 36.334 -1 53.001s-3 31.5 -7 44.5s-10 23.333 -18 31
s-19.333 11.5 -34 11.5c-18.667 0 -34.5 -5.66699 -47.5 -17s-23.667 -25.5 -32 -42.5s-14.333 -35.167 -18 -54.5s-5.5 -37.333 -5.5 -54c0 -22 3 -40 9 -54c-26 0 -44.333 7.16699 -55 21.5s-16 31.166 -16 50.499c0 20.667 5 41.5 15 62.5s23.333 40 40 57s36 31 58 42
s45.333 16.5 70 16.5c42 0 73 -16.167 93 -48.5s30 -75.5 30 -129.5c0 -48.667 -6.66699 -99.667 -20 -153s-28.166 -105.333 -44.499 -156l-44.5 -141.5c-13.333 -43.667 -20 -79.834 -20 -108.501c0 -12.667 2 -22.334 6 -29.001s12 -10 24 -10c16.667 0 35.167 8 55.5 24
s41 37 62 63s41.333 55.5 61 88.5s37.667 66.167 54 99.5s30 65.5 41 96.5s17.833 57.5 20.5 79.5z" />
    <glyph glyph-name="X" unicode="X" horiz-adv-x="663" 
d="M597 722c5.33301 -3.33301 10.502 -9.83594 15.502 -19.5029s7.5 -19.167 7.5 -28.5c0 -13.333 -6.66699 -33.166 -20 -59.499s-31.166 -56.666 -53.499 -90.999s-48.166 -71.666 -77.499 -111.999l-93 -122.5c1.33301 -42.667 3.83301 -84.334 7.5 -125.001
s9 -76.834 16 -108.501s16.167 -57.167 27.5 -76.5s25.666 -29 42.999 -29c20 0 44.333 19.333 73 58s61 90 97 154l12 -10c-19.333 -38.667 -37.333 -72.834 -54 -102.501s-33.167 -54.667 -49.5 -75s-33 -35.666 -50 -45.999s-35.5 -15.5 -55.5 -15.5
c-28 0 -50.5 9.16699 -67.5 27.5s-30.5 41.5 -40.5 69.5s-17.167 58.833 -21.5 92.5s-7.5 65.5 -9.5 95.5l-87 -104.5l-80 -91.5l-66.5 -71c-19.667 -20 -34.834 -34.333 -45.501 -43c1.33301 10.667 3.16602 20 5.49902 28s5.5 15.333 9.5 22s8.83301 13.167 14.5 19.5
l19.5 21.5c42.667 46 82.667 91.333 120 136l107 131c-1.33301 22 -2.5 40 -3.5 54l-3 42c-1 14 -1.66699 30.5 -2 49.5s-0.833008 44.5 -1.5 76.5c-0.666992 38.667 -1.5 72 -2.5 100s-3.33301 51.167 -7 69.5s-9.33398 32 -17.001 41s-18.5 13.5 -32.5 13.5
c-16.667 0 -31.5 -5.66699 -44.5 -17s-23.833 -25.666 -32.5 -42.999s-15.334 -36.166 -20.001 -56.499s-7 -39.166 -7 -56.499c0 -20 2.66699 -36.333 8 -49c-25.333 0 -43.166 6.66699 -53.499 20s-15.5 29.666 -15.5 48.999c0 20.667 5.16699 41.667 15.5 63
s24.166 40.833 41.499 58.5s37.333 32 60 43s46.334 16.5 71.001 16.5c32.667 0 57.167 -10 73.5 -30s27.833 -47.167 34.5 -81.5s10.167 -74.333 10.5 -120s0.833008 -93.834 1.5 -144.501c54 74.667 99.5 143.834 136.5 207.501s65.5 120.5 85.5 170.5z" />
    <glyph glyph-name="Y" unicode="Y" horiz-adv-x="667" 
d="M177 -18c-3.33301 -10 -5.50879 -19.6689 -6.50879 -29.002s-1.5 -17.666 -1.5 -24.999c0 -28 7.16699 -50 21.5 -66s36.166 -24 65.499 -24c22.667 0 43 4.83301 61 14.5s34.167 22.334 48.5 38.001s27 33.5 38 53.5s20.333 40.5 28 61.5s14.334 41.5 20.001 61.5
s10.167 38 13.5 54c5.33301 22.667 11.333 52 18 88s14.667 75 24 117c-13.333 -25.333 -27.666 -48.833 -42.999 -70.5s-31.833 -40.167 -49.5 -55.5s-36.834 -27.333 -57.501 -36s-43 -13 -67 -13c-39.333 0 -67.333 11 -84 33s-25 50.667 -25 86c0 26 3.5 54.333 10.5 85
s14.833 61.334 23.5 92.001s16.5 60.5 23.5 89.5s10.5 54.833 10.5 77.5c0 21.333 -4.16699 39.666 -12.5 54.999s-23.166 23 -44.499 23c-18.667 0 -34.667 -6 -48 -18s-24.5 -26.667 -33.5 -44s-15.667 -36 -20 -56s-6.5 -38.333 -6.5 -55c0 -20 2.66699 -36.333 8 -49
c-25.333 0 -43.166 6.66699 -53.499 20s-15.5 29.666 -15.5 48.999c0 20.667 5 41.667 15 63s23.833 40.833 41.5 58.5s38 32 61 43s47.5 16.5 73.5 16.5c18.667 0 34.667 -3 48 -9s24.166 -13.833 32.499 -23.5s14.333 -20.5 18 -32.5s5.5 -24 5.5 -36
c0 -18.667 -3.5 -41.5 -10.5 -68.5l-23 -85.5c-8.33301 -30 -16 -60.5 -23 -91.5s-10.5 -59.833 -10.5 -86.5c0 -29.333 5.33301 -52.666 16 -69.999s28.667 -26 54 -26c23.333 0 45.333 7.5 66 22.5s40 34.5 58 58.5s34.333 50.667 49 80s27.667 58.666 39 87.999
c8.66699 36 17.834 70.833 27.501 104.5s19.5 63.5 29.5 89.5s20.333 46.833 31 62.5s21.334 23.5 32.001 23.5c6.66699 0 15.334 -2.83301 26.001 -8.5s20.667 -13.5 30 -23.5l-30.5 -52c-9 -16 -17.333 -33.167 -25 -51.5s-15.167 -38.666 -22.5 -60.999
s-15.166 -48.833 -23.499 -79.5l-28 -107l-35.5 -143c-10.667 -42.667 -22.667 -86.5 -36 -131.5s-30.666 -86 -51.999 -123s-48.166 -67.333 -80.499 -91s-72.5 -35.5 -120.5 -35.5c-19.333 0 -37.333 2 -54 6s-31.167 10 -43.5 18s-22.166 17.833 -29.499 29.5
s-11 25.167 -11 40.5c0 17.333 4.83301 32.333 14.5 45s24.834 22.667 45.501 30z" />
    <glyph glyph-name="Z" unicode="Z" horiz-adv-x="632" 
d="M219 305c0.666992 14 4.99512 25.5029 12.9951 34.5029s18.833 16.167 32.5 21.5s29.334 9 47.001 11s36.5 3 56.5 3c7.33301 0 14.833 -0.166992 22.5 -0.5s15.167 -0.833008 22.5 -1.5c26 46 49.167 89.667 69.5 131s36.166 76.666 47.499 105.999
c-16.667 4 -36.334 10.667 -59.001 20s-46.5 18.5 -71.5 27.5s-50.333 17 -76 24s-49.5 10.5 -71.5 10.5c-16 0 -30.833 -2.33301 -44.5 -7s-25.667 -12.5 -36 -23.5s-18.333 -25.833 -24 -44.5s-8.5 -41.667 -8.5 -69c0 -14.667 1.33301 -26.334 4 -35.001
c-19.333 3.33301 -33.166 11.166 -41.499 23.499s-12.5 28.5 -12.5 48.5c0 44.667 17.167 78.334 51.5 101.001s81.5 34 141.5 34c34.667 0 67.334 -3.33301 98.001 -10s60 -14 88 -22s55.167 -15.333 81.5 -22s52.5 -10 78.5 -10h17c4.66699 0 9.66699 0.666992 15 2
c-18 -15.333 -34.667 -27 -50 -35c-14.667 -34.667 -33 -74 -55 -118s-47 -90 -75 -138c20 -2 38.833 -4 56.5 -6s34.167 -3 49.5 -3c-5.33301 -8 -11 -14.167 -17 -18.5s-13.833 -7.66602 -23.5 -9.99902s-21.667 -3.83301 -36 -4.5s-32.833 -1.33398 -55.5 -2.00098
c-33.333 -54 -68.5 -106 -105.5 -156s-74.5 -93 -112.5 -129l129.5 -38c43 -12 81.5 -18 115.5 -18c26.667 0 50.334 5.33301 71.001 16c-11.333 -31.333 -25.666 -53.333 -42.999 -66s-38 -19 -62 -19c-17.333 0 -36.166 2.83301 -56.499 8.5s-41.333 12.667 -63 21
s-43.667 17.833 -66 28.5l-66.5 31c-22.667 -17.333 -44.667 -31 -66 -41s-42 -15 -62 -15c-14.667 0 -27.667 2.5 -39 7.5s-21 11.333 -29 19s-14 16.167 -18 25.5s-6 18.666 -6 27.999c0 14 5.83301 26.167 17.5 36.5s31.5 15.5 59.5 15.5c19.333 0 40.5 -2.5 63.5 -7.5
s47.167 -11.167 72.5 -18.5c32 34 64.833 74.667 98.5 122s65.834 96.333 96.501 147c-12.667 0 -24.167 -0.333008 -34.5 -1s-20.5 -1.5 -30.5 -2.5l-30.5 -3c-10.333 -1 -21.833 -2.5 -34.5 -4.5zM61.9951 -26.9971c13.333 0 27.6699 4.16797 43.0029 12.501
s31.666 19.833 48.999 34.5c-22 9.33301 -43 17 -63 23s-37.667 9 -53 9c-14.667 0 -24.5 -2.33301 -29.5 -7s-7.5 -10.334 -7.5 -17.001c0 -5.33301 1.5 -11.333 4.5 -18s7.16699 -12.667 12.5 -18s11.666 -9.83301 18.999 -13.5s15.666 -5.5 24.999 -5.5z" />
    <glyph glyph-name="bracketleft" unicode="[" horiz-adv-x="394" 
d="M316 -11c-2.66699 -25.333 -14.1748 -44.332 -34.5078 -56.999s-52.166 -19 -95.499 -19c-16 0 -32.333 0.666992 -49 2s-32.5 3 -47.5 5s-28.667 4.16699 -41 6.5s-22.166 4.5 -29.499 6.5c1.33301 2.66699 2.83301 5.83398 4.5 9.50098s3.83398 11.5 6.50098 23.5
s6.33398 29.5 11.001 52.5l19 96l29 155l42 228.5c8 42 17.333 76.333 28 103s21.834 47.5 33.501 62.5s23.5 25.333 35.5 31s23 8.5 33 8.5c8.66699 0 19.334 -0.5 32.001 -1.5s26 -1.5 40 -1.5c17.333 0 34.833 1.33301 52.5 4s33.5 8 47.5 16
c-1.33301 -18 -5 -32.333 -11 -43s-13.667 -18.834 -23 -24.501s-20.166 -9.16699 -32.499 -10.5s-25.166 -2 -38.499 -2c-17.333 0 -35 2 -53 6s-36 7.66699 -54 11c-10 -28 -19.667 -61.833 -29 -101.5s-18.5 -81.834 -27.5 -126.501s-17.667 -90.167 -26 -136.5
l-23.5 -132.5c-7.33301 -42 -14.333 -79.833 -21 -113.5s-12.667 -59.834 -18 -78.501c36 0 65.667 0.333008 89 1s43.5 1.66699 60.5 3s32.333 3.33301 46 6s28.5 6.33398 44.5 11.001z" />
    <glyph glyph-name="backslash" unicode="\" horiz-adv-x="561" 
d="M154 720c16 0 29.335 -5.16797 40.002 -15.501s17.667 -20.166 21 -29.499c8.66699 -23.333 17.667 -52.5 27 -87.5s18.666 -73.667 27.999 -116l28.5 -133.5l28.5 -138l27 -131c8.66699 -42 17.167 -79.333 25.5 -112s16.333 -59.667 24 -81s14.834 -34 21.501 -38
c-28.667 4.66699 -52.834 21 -72.501 49s-37.834 73 -54.501 135c-6.66699 22.667 -14.167 54.5 -22.5 95.5l-27 134l-28.5 149.5l-27 143c-8.66699 44 -16.5 82 -23.5 114s-12.167 52.667 -15.5 62z" />
    <glyph glyph-name="bracketright" unicode="]" horiz-adv-x="411" 
d="M391 699c-2 -9.33301 -4.99902 -26.668 -8.99902 -52.001l-14 -89.5l-17.5 -111.5l-19.5 -118.5l-19 -110c-6 -34.333 -11.333 -62.833 -16 -85.5l-12.5 -57.5c-5 -23 -12.333 -45.333 -22 -67s-22 -40.167 -37 -55.5s-33.833 -23 -56.5 -23
c-34.667 0 -69.167 -0.833008 -103.5 -2.5s-63.833 -6.5 -88.5 -14.5c0.666992 13.333 4 24.5 10 33.5s13.833 16.167 23.5 21.5s20.667 9.16602 33 11.499s25.166 3.5 38.499 3.5c17.333 0 37 -1 59 -3s43.667 -3.66699 65 -5c9.33301 26.667 18.833 59.334 28.5 98.001
s19.167 80 28.5 124l27.5 136l25.5 134.5l22.5 118.5c7 36 13.5 65.667 19.5 89h-63c-33.333 0 -66.333 -1.16699 -99 -3.5s-66 -8.16602 -100 -17.499c0 14 3 25.5 9 34.5s14.5 15.833 25.5 20.5s24.5 7.83398 40.5 9.50098s34 2.5 54 2.5
c24.667 0 51.167 -1.83301 79.5 -5.5s57.5 -8.83398 87.5 -15.501z" />
    <glyph glyph-name="asciicircum" unicode="^" horiz-adv-x="204" 
d="M10 441c-4 2.66699 -6.66797 5.66992 -8.00098 9.00293s-2 6.66602 -2 9.99902c0 10 4.66699 20.167 14 30.5s20.333 19.666 33 27.999s25.334 15.333 38.001 21s22.334 8.5 29.001 8.5c8 0 17.167 -3.83301 27.5 -11.5s20.166 -17 29.499 -28s17.166 -23 23.499 -36
s9.5 -24.833 9.5 -35.5c0 -6.66699 -1.33301 -12.667 -4 -18s-7 -9.66602 -13 -12.999c-9.33301 19.333 -20 35.666 -32 48.999s-26 27.666 -42 42.999c-20.667 -7.33301 -39.167 -15.333 -55.5 -24s-32.166 -19.667 -47.499 -33z" />
    <glyph glyph-name="underscore" unicode="_" horiz-adv-x="846" 
d="M-30 -66c2 16.667 12.167 30.3291 30.5 40.9961s43 19 74 25s67.667 10.167 110 12.5s88.166 3.5 137.499 3.5c32.667 0 61.667 -0.5 87 -1.5s48.333 -2 69 -3s39.834 -2.33301 57.501 -4s35.167 -3.16699 52.5 -4.5s35.5 -2.5 54.5 -3.5s40.167 -1.5 63.5 -1.5
c-14 -9.33301 -28.333 -17 -43 -23s-29 -10.667 -43 -14s-27.667 -5.5 -41 -6.5s-25.333 -1.5 -36 -1.5c-67.333 0 -124.333 -0.166992 -171 -0.5s-86.5 -0.666016 -119.5 -0.999023s-61 -0.666016 -84 -0.999023s-44.5 -1.16602 -64.5 -2.49902
s-40.333 -3.16602 -61 -5.49902z" />
    <glyph glyph-name="grave" unicode="`" horiz-adv-x="126" 
d="M0 526c1.33301 12 4 20.1699 8 24.5029s8.66699 6.5 14 6.5c10 0 21 -5.16699 33 -15.5s23.333 -22.333 34 -36s19.5 -27.167 26.5 -40.5s10.5 -23 10.5 -29c0 -3.33301 -1 -7.83301 -3 -13.5s-5.66699 -9.83398 -11 -12.501c-14.667 19.333 -31 38.166 -49 56.499
s-39 38.166 -63 59.499z" />
    <glyph glyph-name="a" unicode="a" horiz-adv-x="437" 
d="M280 212c2.66699 -0.666992 6.33398 -1.66699 11.001 -3s9.16699 -3 13.5 -5s8 -4.33301 11 -7s4.5 -6 4.5 -10c0 -6 -3 -14.333 -9 -25l-20 -35.5c-7.33301 -13 -14 -26.333 -20 -40s-9 -26.5 -9 -38.5c0 -10 2.66699 -19.833 8 -29.5s14 -14.5 26 -14.5
c18 0 41.667 13 71 39s59 65.667 89 119l10 -10c-10.667 -27.333 -23.667 -52.166 -39 -74.499s-31.833 -41.5 -49.5 -57.5s-35.834 -28.333 -54.501 -37s-37 -13 -55 -13c-24.667 0 -42.834 7.33301 -54.501 22s-17.5 30.667 -17.5 48c0 8 1 17.667 3 29
c-29.333 -38.667 -55.666 -67.667 -78.999 -87s-47.333 -29 -72 -29c-21.333 0 -39 6.83301 -53 20.5s-21 34.5 -21 62.5c0 20 3.83301 41.333 11.5 64s18.167 45.5 31.5 68.5s29 45 47 66s37.167 39.5 57.5 55.5s41.5 28.833 63.5 38.5s44 14.5 66 14.5
c26 0 47.667 -6.83301 65 -20.5s26 -31.834 26 -54.501c0 -16.667 -4.5 -28 -13.5 -34s-20.833 -9 -35.5 -9c3.33301 12 5 23.667 5 35c0 15.333 -3.66699 28.5 -11 39.5s-20 16.5 -38 16.5c-16 0 -32 -4.66699 -48 -14s-31.667 -21.833 -47 -37.5
s-29.666 -33.5 -42.999 -53.5s-25.166 -40.5 -35.499 -61.5s-18.333 -41.667 -24 -62s-8.5 -38.5 -8.5 -54.5c0 -26 9 -39 27 -39c15.333 0 32.666 8 51.999 24s38.666 35.333 57.999 58s37.833 46.5 55.5 71.5z" />
    <glyph glyph-name="b" unicode="b" horiz-adv-x="395" 
d="M105 270c-3.33301 -5.33301 -7.66797 -15.5 -13.001 -30.5s-10.5 -32.333 -15.5 -52s-9.5 -40.834 -13.5 -63.501s-6 -44.334 -6 -65.001c0 -28 4.16699 -50.667 12.5 -68s22.5 -26 42.5 -26c19.333 0 39.166 7.83301 59.499 23.5s37.166 35.834 50.499 60.501
c-24.667 12.667 -43 31 -55 55s-18 48.667 -18 74c0 32 8.33301 57.667 25 77s36.334 29 59.001 29c19.333 0 34.666 -7.83301 45.999 -23.5s17 -38.5 17 -68.5c0 -22 -3 -44.667 -9 -68s-14.667 -46 -26 -68c8 -2 16.667 -3 26 -3c18 0 33.667 3.5 47 10.5
s25 15.833 35 26.5s18.667 22.5 26 35.5l20 36.5l12 -13c-9.33301 -23.333 -19.666 -42.333 -30.999 -57s-23.166 -26.167 -35.499 -34.5s-25 -14.166 -38 -17.499s-25.833 -5 -38.5 -5c-11.333 0 -22 1 -32 3c-18 -30.667 -40.167 -56.834 -66.5 -78.501
s-57.166 -32.5 -92.499 -32.5c-34.667 0 -60.5 11.333 -77.5 34s-25.5 53.334 -25.5 92.001c0 33.333 5.83301 72.833 17.5 118.5s26.667 93 45 142s39 97.5 62 145.5s46 90.833 69 128.5s44.833 68.167 65.5 91.5s38 35 52 35c11.333 0 19.5 -7 24.5 -21s7.5 -28 7.5 -42
c0 -23.333 -6.33301 -53 -19 -89s-29.5 -72.667 -50.5 -110s-45.333 -72.5 -73 -105.5s-56.167 -58.5 -85.5 -76.5zM294.998 633c-5.33301 0 -15.499 -9.66895 -30.499 -29.002s-31.667 -44.5 -50 -75.5s-36.5 -65.833 -54.5 -104.5s-32.667 -77 -44 -115
c22.667 18.667 45 43.167 67 73.5s41.667 61.333 59 93s31.166 61.334 41.499 89.001s15.5 47.834 15.5 60.501c0 5.33301 -1.33301 8 -4 8zM183.999 172.998c0 -18 3.66699 -36.998 11 -56.998s19.666 -35.667 36.999 -47c7.33301 15.333 13 31.5 17 48.5s6 34.5 6 52.5
c0 23.333 -3.16699 41.666 -9.5 54.999s-14.166 20 -23.499 20c-10 0 -18.833 -6.83301 -26.5 -20.5s-11.5 -30.834 -11.5 -51.501z" />
    <glyph glyph-name="c" unicode="c" horiz-adv-x="324" 
d="M214 338c14 0 25.501 -2.16602 34.501 -6.49902s16.167 -10 21.5 -17s9.16602 -15 11.499 -24s3.5 -17.833 3.5 -26.5c0 -19.333 -4.5 -36.333 -13.5 -51s-21.167 -22 -36.5 -22c-11.333 0 -21 5 -29 15c10 5.33301 18.667 16 26 32s11 31.667 11 47
c0 8 -1.5 14.167 -4.5 18.5s-8.83301 6.5 -17.5 6.5c-18 0 -36.667 -8.16699 -56 -24.5s-37 -36.833 -53 -61.5s-29.167 -51.167 -39.5 -79.5s-15.5 -54.833 -15.5 -79.5c0 -10 1.16699 -20 3.5 -30s6.16602 -19 11.499 -27s12.833 -14.333 22.5 -19s21.5 -7 35.5 -7
c20 0 40.167 4.16699 60.5 12.5s40 20.333 59 36s36.5 34.667 52.5 57s29.333 47.5 40 75.5l13 -10c-11.333 -30 -26.166 -57.833 -44.499 -83.5s-38.5 -47.834 -60.5 -66.501s-45.333 -33.167 -70 -43.5s-49 -15.5 -73 -15.5c-32 0 -58.667 10.5 -80 31.5
s-32 53.167 -32 96.5c0 33.333 6.66699 66 20 98s30.5 60.5 51.5 85.5s44.5 45 70.5 60s51.667 22.5 77 22.5z" />
    <glyph glyph-name="d" unicode="d" horiz-adv-x="474" 
d="M295 315c-7.33301 10 -19.9951 15.002 -37.9951 15.002s-35.5 -4.66699 -52.5 -14s-33 -21.666 -48 -36.999s-28.833 -32.666 -41.5 -51.999s-23.5 -38.833 -32.5 -58.5s-16 -38.5 -21 -56.5s-7.5 -33.333 -7.5 -46c0 -15.333 3.16699 -27.166 9.5 -35.499
s15.166 -12.5 26.499 -12.5c13.333 0 29.166 6.5 47.499 19.5s37.333 31.5 57 55.5s39.167 52.833 58.5 86.5s37 71.5 53 113.5l58 148c20 50.667 39.667 96.667 59 138s37.666 75.166 54.999 101.499s33 39.5 47 39.5c5.33301 0 10 -2.16699 14 -6.5s6 -9.83301 6 -16.5
c0 -10.667 -5.66699 -28.834 -17 -54.501l-42.5 -92l-55.5 -116.5c-20 -42 -38.5 -84.5 -55.5 -127.5s-31.167 -85 -42.5 -126s-17 -77.833 -17 -110.5c0 -19.333 1 -33.5 3 -42.5s8.66699 -13.5 20 -13.5c10 0 21.833 3.5 35.5 10.5s27.5 16.833 41.5 29.5
s27.667 28.167 41 46.5s25.333 38.833 36 61.5l12 -9c-10 -26 -22.5 -49.833 -37.5 -71.5s-31.167 -40.5 -48.5 -56.5s-35.5 -28.5 -54.5 -37.5s-36.833 -13.5 -53.5 -13.5c-12.667 0 -23.167 2.33301 -31.5 7s-15 10.5 -20 17.5s-8.66699 15 -11 24s-3.5 17.833 -3.5 26.5
c0 11.333 1.66699 26.166 5 44.499s8 39.166 14 62.499c-16 -26.667 -32.833 -51.334 -50.5 -74.001s-35.334 -42.334 -53.001 -59.001s-35 -29.667 -52 -39s-33.167 -14 -48.5 -14c-8.66699 0 -17.334 1.66699 -26.001 5s-16.667 8.33301 -24 15s-13.333 15.334 -18 26.001
s-7 23.334 -7 38.001c0 18.667 3.83301 39.167 11.5 61.5s18 44.833 31 67.5s28.167 44.667 45.5 66s36 40.166 56 56.499s40.667 29.5 62 39.5s42.333 15 63 15c29.333 0 44 -10.333 44 -31c0 -2.66699 -0.166992 -5 -0.5 -7s-0.833008 -4.33301 -1.5 -7z" />
    <glyph glyph-name="e" unicode="e" horiz-adv-x="334" 
d="M302 299c0 -25.333 -7.49805 -49.166 -22.498 -71.499s-34.5 -42.166 -58.5 -59.499s-50.667 -31.5 -80 -42.5s-58.333 -17.833 -87 -20.5c-1.33301 -6.66699 -2.33301 -13 -3 -19s-1 -11.667 -1 -17c0 -10 1.16699 -20 3.5 -30s6.5 -19 12.5 -27
s14.167 -14.5 24.5 -19.5s23.166 -7.5 38.499 -7.5c21.333 0 42.666 4.66699 63.999 14s41.666 22.166 60.999 38.499s37.5 35.166 54.5 56.499s31.833 44 44.5 68l12 -9c-13.333 -30 -29.666 -57.167 -48.999 -81.5s-40.166 -45 -62.499 -62s-46 -30.167 -71 -39.5
s-49.833 -14 -74.5 -14c-40.667 0 -71.167 11.167 -91.5 33.5s-30.5 49.833 -30.5 82.5c0 20 3.5 41 10.5 63s16.667 43.667 29 65s26.666 41.666 42.999 60.999s34 36.333 53 51s38.5 26.334 58.5 35.001s40 13 60 13c15.333 0 29.5 -4 42.5 -12s19.5 -24.333 19.5 -49z
M237.002 329c-16 0 -33 -6.16602 -51 -18.499s-35.333 -28.333 -52 -48s-31.667 -41.667 -45 -66s-23.333 -48.5 -30 -72.5c18 6 38.333 14.833 61 26.5s44.334 25.5 65.001 41.5s38 33.667 52 53s21 39.666 21 60.999c0 7.33301 -1.33301 13 -4 17s-8.33398 6 -17.001 6z
" />
    <glyph glyph-name="f" unicode="f" horiz-adv-x="313" 
d="M346 152c-8.66699 -20 -18.501 -37.1709 -29.501 -51.5039s-22.333 -26.166 -34 -35.499s-23.334 -16.166 -35.001 -20.499s-22.5 -6.5 -32.5 -6.5c-12 0 -24.5 3 -37.5 9s-25.167 14 -36.5 24c0 -42 -4.5 -83.833 -13.5 -125.5s-20.833 -79.167 -35.5 -112.5
s-31.167 -60.5 -49.5 -81.5s-36.833 -31.5 -55.5 -31.5c-5.33301 0 -11.166 1.16699 -17.499 3.5s-12.333 6.66602 -18 12.999s-10.334 15.166 -14.001 26.499s-5.5 26.333 -5.5 45c0 25.333 3.83301 58 11.5 98s18.334 83.667 32.001 131s29.667 97.166 48 149.499
s38.333 103.833 60 154.5s44.334 98.834 68.001 144.501s47.5 85.834 71.5 120.501s47.667 62.334 71 83.001s45.333 31 66 31c14 0 23.167 -4.33301 27.5 -13s6.5 -19 6.5 -31c0 -28.667 -8 -60 -24 -94s-36.667 -68 -62 -102s-53.833 -66.667 -85.5 -98
s-63.5 -58 -95.5 -80c-3.33301 -8 -6.5 -16.167 -9.5 -24.5l-9.5 -25.5c7.33301 -1.33301 13 -5.16602 17 -11.499s6.66699 -13.166 8 -20.499c3.33301 -22.667 6.83301 -43.5 10.5 -62.5s8.5 -35.5 14.5 -49.5s13.833 -24.833 23.5 -32.5s22.5 -11.5 38.5 -11.5
c23.333 0 43 8.33301 59 25s33.333 41 52 73zM114.999 59.9961c0 20.667 -2.66504 39.501 -7.99805 56.501s-14 37.167 -26 60.5c-12.667 -37.333 -24.334 -74 -35.001 -110s-19.834 -69.833 -27.501 -101.5s-13.667 -60.334 -18 -86.001s-6.5 -46.834 -6.5 -63.501
c0 -15.333 1.66699 -27.166 5 -35.499s8 -12.5 14 -12.5s12.833 4.83301 20.5 14.5s15.334 22.334 23.001 38.001s15 33.667 22 54s13.167 41.333 18.5 63s9.66602 43.167 12.999 64.5s5 40.666 5 57.999zM341.001 652.997c-13.333 0 -27.832 -8.16797 -43.499 -24.501
s-32.167 -38.666 -49.5 -66.999s-35 -61.333 -53 -99s-35.333 -77.5 -52 -119.5c32 30 61.167 60.333 87.5 91s48.666 59.5 66.999 86.5s32.5 51 42.5 72s15 36.5 15 46.5c0 9.33301 -4.66699 14 -14 14z" />
    <glyph glyph-name="g" unicode="g" horiz-adv-x="390" 
d="M295 295c-7.33301 10 -20.665 15.002 -39.998 15.002c-26 0 -51.167 -7.83301 -75.5 -23.5s-45.833 -35.167 -64.5 -58.5s-33.5 -48.166 -44.5 -74.499s-16.5 -49.833 -16.5 -70.5c0 -16 3.16699 -28.167 9.5 -36.5s14.833 -12.5 25.5 -12.5c9.33301 0 20 3.5 32 10.5
s24.5 16.5 37.5 28.5s26.167 26 39.5 42s26.333 33 39 51l12 53c0.666992 4.66699 2.33398 10 5.00098 16s6 11.5 10 16.5s9 9.33301 15 13s13 5.5 21 5.5c6 0 13 -1 21 -3c0 -8 -1.83301 -21.333 -5.5 -40s-8.83398 -40.334 -15.501 -65.001s-14.834 -51.5 -24.501 -80.5
s-20.167 -58.5 -31.5 -88.5c16 8 32.167 17.667 48.5 29s31.666 24.166 45.999 38.499s27.5 30 39.5 47s21.667 35.167 29 54.5l13 -10c-8 -22.667 -19.333 -43.834 -34 -63.501s-30.667 -37.5 -48 -53.5s-35.333 -30 -54 -42s-35.667 -21.667 -51 -29
c-14 -34 -28.5 -65.833 -43.5 -95.5s-30.667 -55.5 -47 -77.5s-33.166 -39.333 -50.499 -52s-35.333 -19 -54 -19c-14.667 0 -28 4.5 -40 13.5s-18 23.833 -18 44.5c0 20 6.16699 38.5 18.5 55.5s28.166 32.667 47.499 47s40.333 27.5 63 39.5l66 34
c9.33301 23.333 18.166 48.5 26.499 75.5s16.5 56.833 24.5 89.5c-25.333 -36.667 -51.833 -67.167 -79.5 -91.5s-55.5 -36.5 -83.5 -36.5c-24 0 -42.5 8.83301 -55.5 26.5s-19.5 41.167 -19.5 70.5c0 34.667 8.66699 67.667 26 99s39.333 58.833 66 82.5
s55.334 42.5 86.001 56.5s59.667 21 87 21c19.333 0 33.166 -3.16699 41.499 -9.5s12.5 -13.833 12.5 -22.5c0 -6 -1.66699 -10.667 -5 -14s-5.66602 -5.33301 -6.99902 -6zM35.001 -247.998c6.66699 0 14.668 3.16797 24.001 9.50098s19.5 16.333 30.5 30
s22.833 31.667 35.5 54s25.667 49.5 39 81.5c-20 -10 -39.167 -20.167 -57.5 -30.5s-34.5 -21.333 -48.5 -33s-25.333 -23.834 -34 -36.501s-13 -26 -13 -40c0 -10.667 2.16699 -19.167 6.5 -25.5s10.166 -9.5 17.499 -9.5z" />
    <glyph glyph-name="h" unicode="h" horiz-adv-x="477" 
d="M247 39c0 10.667 1.66309 22.167 4.99609 34.5l10.5 38.5l10.5 40c3.33301 13.333 5 26 5 38c0 17.333 -3.66699 29.666 -11 36.999s-16.333 11 -27 11c-16.667 0 -31.667 -6.83301 -45 -20.5s-25.5 -30.667 -36.5 -51s-21.167 -42.5 -30.5 -66.5
s-18.5 -46.167 -27.5 -66.5s-17.833 -37.333 -26.5 -51s-17.667 -20.5 -27 -20.5c-6 0 -11.667 3 -17 9s-9.66602 13.833 -12.999 23.5s-6 20.667 -8 33s-3 25.166 -3 38.499c0 32 5.33301 70.167 16 114.5s24.667 90.5 42 138.5s37 95.5 59 142.5s44 89.333 66 127
s43.167 68 63.5 91s37.833 34.5 52.5 34.5c6 0 11.167 -2 15.5 -6s7.66602 -9.16699 9.99902 -15.5s4.16602 -13.166 5.49902 -20.499s2 -14.333 2 -21c0 -15.333 -3 -33.833 -9 -55.5s-14.167 -44.667 -24.5 -69s-22.666 -49.166 -36.999 -74.499s-30 -49.5 -47 -72.5
s-35.167 -44 -54.5 -63s-38.666 -34.5 -57.999 -46.5c-6 -14.667 -11.333 -30.667 -16 -48s-8.5 -34.833 -11.5 -52.5s-5.33301 -34.834 -7 -51.501s-2.5 -31.667 -2.5 -45c0 -7.33301 0.166992 -13.666 0.5 -18.999s0.833008 -10.333 1.5 -15c12 34 25 66.667 39 98
s29.5 59 46.5 83s35.333 43 55 57s40.5 21 62.5 21c14 0 25.833 -2.66699 35.5 -8s17.5 -12.166 23.5 -20.499s10.333 -18 13 -29s4 -21.833 4 -32.5c0 -15.333 -2.16699 -30.5 -6.5 -45.5s-9.33301 -29.5 -15 -43.5s-10.667 -27.667 -15 -41s-6.5 -26 -6.5 -38
c0 -13.333 2.83301 -23 8.5 -29s12.834 -9 21.501 -9c11.333 0 24 4.33301 38 13s28 20.167 42 34.5s27.667 31.166 41 50.499s25 40 35 62l13 -12c-10.667 -24.667 -23 -47.5 -37 -68.5s-29.333 -39.333 -46 -55s-34.167 -28 -52.5 -37s-37.166 -13.5 -56.499 -13.5
c-23.333 0 -40.666 6 -51.999 18s-17 27 -17 45zM299.996 633c-5.33301 0 -15.166 -9.16992 -29.499 -27.5029s-30.5 -42.666 -48.5 -72.999s-36.167 -65 -54.5 -104s-33.833 -78.833 -46.5 -119.5c22.667 18.667 45 43.167 67 73.5s41.667 61.333 59 93
s31.166 61.334 41.499 89.001s15.5 47.834 15.5 60.501c0 5.33301 -1.33301 8 -4 8z" />
    <glyph glyph-name="i" unicode="i" horiz-adv-x="242" 
d="M139 339c6 0 11.1631 -1.83398 15.4961 -5.50098s6.5 -9.16699 6.5 -16.5c0 -8 -5.5 -21.167 -16.5 -39.5l-36 -62c-13 -23 -24.833 -47.333 -35.5 -73s-16 -50.167 -16 -73.5c0 -24 4 -40 12 -48s20.333 -12 37 -12c11.333 0 23 2.66699 35 8s24.5 14 37.5 26
s26.333 27.667 40 47s27.5 43.333 41.5 72l9 -10c-10 -28.667 -22.167 -54.167 -36.5 -76.5s-30.166 -41 -47.499 -56s-35.666 -26.333 -54.999 -34s-38.666 -11.5 -57.999 -11.5c-26 0 -45.333 8.16699 -58 24.5s-19 36.166 -19 59.499c0 12.667 2 28.334 6 47.001
s9.5 38.5 16.5 59.5s15 41.833 24 62.5s18.833 39.334 29.5 56.001s21.834 30.167 33.501 40.5s23.167 15.5 34.5 15.5zM191.996 431.999c-11.333 0 -21 2.66797 -29 8.00098s-12 13.666 -12 24.999c0 6.66699 2.33301 13.167 7 19.5s10.5 12 17.5 17
s14.833 8.83301 23.5 11.5s17 4 25 4c10 0 18 -2.33301 24 -7s9 -12.667 9 -24c0 -6 -1.83301 -12.333 -5.5 -19s-8.66699 -12.5 -15 -17.5s-13.333 -9.16699 -21 -12.5s-15.5 -5 -23.5 -5z" />
    <glyph glyph-name="j" unicode="j" horiz-adv-x="219" 
d="M143 317c0 -7.33301 -1.83203 -21.667 -5.49902 -43s-9 -46.833 -16 -76.5s-15.5 -62.334 -25.5 -98.001s-21 -71.5 -33 -107.5l43 25.5c14.667 8.33301 29.334 18.5 44.001 30.5s29.334 26.667 44.001 44s29 39 43 65l13 -7c-12.667 -30 -27.167 -54.833 -43.5 -74.5
s-33.333 -36.167 -51 -49.5s-35.334 -24.833 -53.001 -34.5l-49.5 -27.5c-11.333 -31.333 -24 -61.5 -38 -90.5s-29 -55 -45 -78s-33.333 -41.333 -52 -55s-38 -20.5 -58 -20.5c-17.333 0 -30.333 4.83301 -39 14.5s-13 21.834 -13 36.501c0 12 3.16699 25 9.5 39
s15 28 26 42s24.167 27.5 39.5 40.5s32.333 24.5 51 34.5c9.33301 5.33301 19 10.333 29 15l35 17c13.333 32 25.666 68.5 36.999 109.5s21.333 86.5 30 136.5c-10 -18 -19.167 -33.667 -27.5 -47l-19.5 -32l-9 15c11.333 20.667 21.5 43 30.5 67l26 67
c8.33301 20.667 16.833 37.834 25.5 51.501s18 20.5 28 20.5c7.33301 0 13.166 -2.83301 17.499 -8.5s6.5 -12.834 6.5 -21.501zM-148.999 -246.001c13.333 0 32.5 14.3301 57.5 42.9971s50.5 72 76.5 130c-50.667 -25.333 -88.5 -51.166 -113.5 -77.499
s-37.5 -50.166 -37.5 -71.499c0 -9.33301 1.66699 -15.666 5 -18.999s7.33301 -5 12 -5zM135.001 436.996c-10.667 0 -19.998 2.66406 -27.998 7.99707s-12 13.333 -12 24c0 7.33301 2.33301 14.333 7 21s10.5 12.334 17.5 17.001s14.833 8.33398 23.5 11.001s17 4 25 4
c9.33301 0 17.166 -2.33301 23.499 -7s9.5 -11.667 9.5 -21c0 -15.333 -6.83301 -28.666 -20.5 -39.999s-28.834 -17 -45.501 -17z" />
    <glyph glyph-name="k" unicode="k" horiz-adv-x="447" 
d="M195 142c7.33301 0 18.167 1.83398 32.5 5.50098s28.5 9.33398 42.5 17.001s26.333 17.5 37 29.5s16 26.667 16 44c0 14 -5 25 -15 33s-21.667 12 -35 12c-20 0 -38.333 -6.83301 -55 -20.5s-32.167 -30.834 -46.5 -51.501s-27.166 -43.334 -38.499 -68.001
s-21 -47.834 -29 -69.501s-14.667 -40.667 -20 -57s-9 -26.166 -11 -29.499c-3.33301 -6 -8.33301 -10.5 -15 -13.5s-13 -4.5 -19 -4.5c-8.66699 0 -15.334 2.66699 -20.001 8s-8.16699 12.5 -10.5 21.5s-3.66602 19.167 -3.99902 30.5s-0.5 22.666 -0.5 33.999
c0 34.667 5.83301 74.834 17.5 120.501s26.834 92.667 45.501 141s39.334 95.833 62.001 142.5s45.334 88.334 68.001 125.001s43.667 66.167 63 88.5s35 33.5 47 33.5c9.33301 0 16.833 -6.33301 22.5 -19s8.5 -28 8.5 -46c0 -23.333 -5.16699 -49 -15.5 -77
s-24.5 -56.167 -42.5 -84.5s-39.5 -55.333 -64.5 -81s-52.167 -47.5 -81.5 -65.5c-22 -54 -38.5 -106.5 -49.5 -157.5s-16.5 -93.833 -16.5 -128.5c10.667 26.667 23.667 56.167 39 88.5s32.5 62.666 51.5 90.999s39.667 52.166 62 71.499s46.166 29 71.499 29
c24.667 0 45.667 -8.66699 63 -26s26 -38.333 26 -63c0 -21.333 -5.5 -39.5 -16.5 -54.5s-24.167 -27.167 -39.5 -36.5s-31 -16 -47 -20s-29 -6 -39 -6c0.666992 -5.33301 2.66699 -15.166 6 -29.499s8.16602 -28.833 14.499 -43.5s14.166 -27.667 23.499 -39
s20.666 -17 33.999 -17c14 0 27.667 4.16699 41 12.5s26.333 19.833 39 34.5s24.667 32 36 52s22 41.333 32 64l10 -10c-7.33301 -24.667 -17.5 -48.5 -30.5 -71.5s-27.5 -43.333 -43.5 -61s-33 -31.834 -51 -42.501s-35.667 -16 -53 -16c-19.333 0 -35.5 6.5 -48.5 19.5
s-23.5 28.833 -31.5 47.5s-13.667 38.334 -17 59.001s-5 38.667 -5 54zM301.001 633.001c-5.33301 0 -13.332 -6.83496 -23.999 -20.502s-23 -32 -37 -55s-28.667 -49.833 -44 -80.5s-30.333 -62.667 -45 -96c22.667 18.667 43.5 39.334 62.5 62.001
s35.167 45.334 48.5 68.001s23.666 44 30.999 64s11 36.333 11 49c0 6 -1 9 -3 9z" />
    <glyph glyph-name="l" unicode="l" horiz-adv-x="237" 
d="M347 646c0 -14.667 -3.16309 -33.6611 -9.49609 -56.9941s-15.333 -48.833 -27 -76.5s-25.667 -56.834 -42 -87.501s-34.333 -60.834 -54 -90.501s-40.834 -57.834 -63.501 -84.501s-46 -50 -70 -70c-4 -18 -7.16699 -35.5 -9.5 -52.5s-3.5 -33.167 -3.5 -48.5
c0 -51.333 14.667 -77 44 -77c13.333 0 26.666 4.66699 39.999 14s26.166 21.5 38.499 36.5s24.166 32.167 35.499 51.5s21.333 38.666 30 57.999l15 -8c-26.667 -57.333 -55.667 -102.333 -87 -135s-65 -49 -101 -49c-28.667 0 -49.167 9.66699 -61.5 29s-18.5 44 -18.5 74
c0 32 6.16699 70.167 18.5 114.5s28 90.5 47 138.5s40.5 95.5 64.5 142.5s47.5 89.167 70.5 126.5s44.333 67.5 64 90.5s35.167 34.5 46.5 34.5c5.33301 0 10 -2.5 14 -7.5s7.5 -11.333 10.5 -19s5.16699 -15.834 6.5 -24.501s2 -16.334 2 -23.001zM309.004 639.006
c-4.66699 0 -12 -6.00195 -22 -18.002s-21.5 -28.333 -34.5 -49s-27.167 -45 -42.5 -73s-30.333 -57.667 -45 -89s-28.5 -63.833 -41.5 -97.5s-24.167 -66.5 -33.5 -98.5c28.667 29.333 56.667 64 84 104s51.5 79.833 72.5 119.5s37.833 76.334 50.5 110.001
s19 58.834 19 75.501c0 6.66699 -0.833008 11 -2.5 13s-3.16699 3 -4.5 3z" />
    <glyph glyph-name="m" unicode="m" horiz-adv-x="647" 
d="M259 -22c-4 0 -8.82715 0.333984 -14.4941 1.00098s-11.334 1.83398 -17.001 3.50098s-10.334 3.83398 -14.001 6.50098s-5.5 5.66699 -5.5 9c0 4.66699 3.33301 16 10 34s13.834 38.5 21.501 61.5s14.834 46.833 21.501 71.5s10 45.667 10 63
c0 11.333 -1.83301 20.5 -5.5 27.5s-10.167 10.5 -19.5 10.5c-14.667 0 -32.334 -9 -53.001 -27s-41.834 -41 -63.501 -69s-42.5 -59.333 -62.5 -94s-36 -69 -48 -103c-4.66699 0 -10.167 0.666992 -16.5 2s-12.166 3 -17.499 5s-10 4.16699 -14 6.5s-6 4.83301 -6 7.5
c0 4 3.5 16 10.5 36l23.5 70.5c8.66699 27 16.667 55 24 84s11 54.5 11 76.5c4 4.66699 10.333 9.33398 19 14.001s17.667 7 27 7c18 0 27 -8.66699 27 -26c0 -9.33301 -2.5 -24.333 -7.5 -45s-11.167 -43.667 -18.5 -69c13.333 21.333 28.5 43.166 45.5 65.499
s34.667 42.833 53 61.5s37.166 33.834 56.499 45.501s38 17.5 56 17.5c20.667 0 34.834 -7.5 42.501 -22.5s11.5 -32.833 11.5 -53.5c0 -12.667 -1.16699 -25.834 -3.5 -39.501s-5 -27 -8 -40s-6.33301 -24.833 -10 -35.5s-6.83398 -19.334 -9.50098 -26.001
c10.667 18.667 22 37.334 34 56.001s25 35.167 39 49.5s28.667 26 44 35s31.666 13.5 48.999 13.5c21.333 0 36.166 -6.33301 44.499 -19s12.5 -27.667 12.5 -45c0 -13.333 -2 -27.5 -6 -42.5l-12.5 -45l-12.5 -43c-4 -13.667 -6 -25.834 -6 -36.501
c0 -9.33301 2.16699 -17.333 6.5 -24s12.166 -10 23.499 -10c14 0 27.333 5 40 15s24.667 22.833 36 38.5s21.833 32.667 31.5 51s18.5 36.166 26.5 53.499l12 -14c-8 -21.333 -17.833 -42.5 -29.5 -63.5s-24.667 -40.167 -39 -57.5s-30.333 -31.333 -48 -42
s-36.5 -16 -56.5 -16c-23.333 0 -40.333 7.16699 -51 21.5s-16 31.5 -16 51.5c0 12 1.5 24.333 4.5 37s6.5 25.167 10.5 37.5s7.5 24.166 10.5 35.499s4.5 22 4.5 32c0 13.333 -3 22.666 -9 27.999s-12.667 8 -20 8c-16.667 0 -34.834 -12.833 -54.501 -38.5
s-45.167 -62.5 -76.5 -110.5c-10.667 -16 -19.667 -32.167 -27 -48.5s-14.333 -31.166 -21 -44.499z" />
    <glyph glyph-name="n" unicode="n" horiz-adv-x="467" 
d="M-38 7c0 2.66699 3.66309 13.002 10.9961 31.002s15.333 39.333 24 64s16.834 50.5 24.501 77.5s11.5 51.5 11.5 73.5c4 4.66699 10.333 9.33398 19 14.001s17.667 7 27 7c18 0 27 -8.66699 27 -26c0 -10.667 -3 -28.334 -9 -53.001s-13.667 -51 -23 -79
c13.333 20 28 40.5 44 61.5s33 40 51 57s36.5 30.833 55.5 41.5s38.167 16 57.5 16c12.667 0 23.667 -2.5 33 -7.5s17 -11.833 23 -20.5s10.5 -18.334 13.5 -29.001s4.5 -21.667 4.5 -33c0 -15.333 -2.16699 -30 -6.5 -44s-9 -27.333 -14 -40s-9.66699 -25.167 -14 -37.5
s-6.5 -24.5 -6.5 -36.5c0 -14 2.83301 -23.833 8.5 -29.5s12.834 -8.5 21.501 -8.5c12.667 0 25.334 4.66699 38.001 14s25 21.5 37 36.5s23.5 31.667 34.5 50s21.167 36.833 30.5 55.5l11 -13c-10.667 -24.667 -22.167 -47.334 -34.5 -68.001s-25.666 -38.5 -39.999 -53.5
s-29.666 -26.667 -45.999 -35s-33.833 -12.5 -52.5 -12.5c-23.333 0 -40.833 6 -52.5 18s-17.5 27.333 -17.5 46c0 10 1.5 20.667 4.5 32s6.33301 23 10 35s7 24 10 36s4.5 24 4.5 36c0 18.667 -3.83301 31.5 -11.5 38.5s-17.167 10.5 -28.5 10.5
c-20.667 0 -41.667 -8.66699 -63 -26s-42 -38.833 -62 -64.5s-38.833 -52.667 -56.5 -81l-45.5 -75.5c-10.667 0 -20.834 1.83301 -30.501 5.5s-17.167 9.16699 -22.5 16.5z" />
    <glyph glyph-name="o" unicode="o" horiz-adv-x="365" 
d="M270 63c-18 0 -33.999 3.33301 -47.999 10c-23.333 -30 -48.333 -55 -75 -75s-52.667 -30 -78 -30c-28.667 0 -49 8.83301 -61 26.5s-18 39.167 -18 64.5c0 20.667 3.33301 42.167 10 64.5s15.334 42.833 26.001 61.5s23 34.167 37 46.5s28 18.5 42 18.5
c6 0 13 -1.66699 21 -5c-6 -5.33301 -13.167 -15.333 -21.5 -30s-16.166 -31 -23.499 -49s-13.5 -36 -18.5 -54s-7.5 -33.333 -7.5 -46c0 -20 3.16699 -34.5 9.5 -43.5s15.166 -13.5 26.499 -13.5c14 0 30.667 7.5 50 22.5s38.333 34.167 57 57.5
c-19.333 15.333 -34 35.5 -44 60.5s-15 50.5 -15 76.5c0 16.667 2.16699 32.5 6.5 47.5s10.666 28.333 18.999 40s18.5 21 30.5 28s26 10.5 42 10.5c27.333 0 45.666 -7.33301 54.999 -22s14 -33 14 -55c0 -26 -6.33301 -54.833 -19 -86.5s-28.667 -62.167 -48 -91.5
c12 -6.66699 24.667 -10 38 -10c8 0 16.833 1.16699 26.5 3.5s19.5 6.33301 29.5 12s19.5 13 28.5 22s16.5 20.5 22.5 34.5l12 -10c-6.66699 -16 -15 -29.333 -25 -40s-20.667 -19.5 -32 -26.5s-23 -12 -35 -15s-23.333 -4.5 -34 -4.5zM182.001 223
c0 -19.333 2.83398 -38.833 8.50098 -58.5s14.167 -36.167 25.5 -49.5c16.667 24.667 30.5 50.5 41.5 77.5s16.5 52.5 16.5 76.5c0 19.333 -2.83301 33.5 -8.5 42.5s-12.834 13.5 -21.501 13.5c-6.66699 0 -13.667 -2.66699 -21 -8s-14 -12.5 -20 -21.5s-11 -19.667 -15 -32
s-6 -25.833 -6 -40.5z" />
    <glyph glyph-name="p" unicode="p" horiz-adv-x="392" 
d="M124 -26c-17.333 0 -31.333 2 -42 6s-16 8 -16 12c0 2.66699 2.33301 4.16699 7 4.5s10.667 0.5 18 0.5c26.667 0 52.334 6.66699 77.001 20s46.334 30.5 65.001 51.5s33.667 44.5 45 70.5s17 51.667 17 77c0 21.333 -4.5 39.5 -13.5 54.5s-23.5 22.5 -43.5 22.5
c-17.333 0 -34.666 -5.66699 -51.999 -17s-33.333 -25.333 -48 -42s-27.834 -34.167 -39.501 -52.5s-20.5 -34.833 -26.5 -49.5l-36 -145c-12 -46.667 -23.5 -88.5 -34.5 -125.5s-21 -67.667 -30 -92s-16.5 -39.166 -22.5 -44.499c-3.33301 -3.33301 -7.33301 -5 -12 -5
c-4 0 -8 1.83301 -12 5.5s-7.5 7.66699 -10.5 12s-5.16699 8.5 -6.5 12.5s-2 6.66699 -2 8c8 27.333 15.667 51.833 23 73.5l22.5 65.5c7.66699 22 15.167 45.833 22.5 71.5s14.666 56 21.999 91s14.833 76.5 22.5 124.5s15.5 105.333 23.5 172c0.666992 6 2 10.333 4 13
s7 4 15 4c17.333 0 29.666 -4.83301 36.999 -14.5s11 -20.167 11 -31.5c0 -9.33301 -2 -26 -6 -50s-9.66699 -52.333 -17 -85c8.66699 16.667 18.834 33.667 30.501 51s24.834 33.166 39.501 47.499s30.667 26 48 35s35.666 13.5 54.999 13.5c30 0 54.333 -10.5 73 -31.5
s28 -48.5 28 -82.5c0 -26 -5.83301 -53.667 -17.5 -83s-28 -56.5 -49 -81.5s-45.833 -45.667 -74.5 -62s-60.334 -24.5 -95.001 -24.5z" />
    <glyph glyph-name="q" unicode="q" horiz-adv-x="402" 
d="M311 271c0 14.667 -4.33008 27.5059 -12.9971 38.5059s-23.334 16.5 -44.001 16.5c-18 0 -35.5 -4.66699 -52.5 -14s-33 -21.5 -48 -36.5s-28.5 -32 -40.5 -51s-22.333 -38.167 -31 -57.5s-15.334 -37.833 -20.001 -55.5s-7 -32.834 -7 -45.501
c0 -15.333 3.16699 -27.166 9.5 -35.499s14.833 -12.5 25.5 -12.5c13.333 0 27.666 6.33301 42.999 19s31 29.167 47 49.5s32.333 43.166 49 68.499l48 75c7.33301 12 14.833 20.167 22.5 24.5s14.834 6.5 21.501 6.5c8 0 13.333 -2 16 -6s4 -8 4 -12
c0 -8 -3.33301 -18 -10 -30l-24 -43.5c-9.33301 -17 -19 -37 -29 -60s-18.333 -49.833 -25 -80.5c14 1.33301 28.333 4.33301 43 9s29 12.167 43 22.5s27.833 23.666 41.5 39.999s26.834 36.5 39.501 60.5l12 -11c-11.333 -25.333 -24.166 -46.833 -38.499 -64.5
s-29.5 -32.167 -45.5 -43.5s-32.333 -20 -49 -26s-32.667 -9.66699 -48 -11c11.333 -36 17 -73.667 17 -113c0 -23.333 -1.83301 -45.5 -5.5 -66.5s-8.83398 -39.333 -15.501 -55s-14.5 -28 -23.5 -37s-18.833 -13.5 -29.5 -13.5c-9.33301 0 -17.5 5 -24.5 15
s-10.5 29.333 -10.5 58c0 17.333 1.33301 38.166 4 62.499s6.66699 50.166 12 77.499s11.5 55.333 18.5 84s15.167 55.667 24.5 81c-26.667 -38 -53.5 -68.833 -80.5 -92.5s-52.833 -35.5 -77.5 -35.5c-8.66699 0 -17.334 1.5 -26.001 4.5s-16.667 8 -24 15
s-13.333 16 -18 27s-7 24.167 -7 39.5c0 19.333 3.83301 40.166 11.5 62.499s18.167 44.666 31.5 66.999s29 43.833 47 64.5s37.333 39 58 55s42.167 28.667 64.5 38s44.833 14 67.5 14s41.5 -4.66699 56.5 -14s22.5 -21 22.5 -35c0 -8.66699 -2.83301 -17 -8.5 -25
s-13.834 -12 -24.501 -12zM246.003 -98.9941c0 27.333 -2.33301 52.333 -7 75c-8.66699 -36 -15.167 -69.333 -19.5 -100s-6.5 -55 -6.5 -73c0 -18.667 2.66699 -28 8 -28c4 0 7.5 3.83301 10.5 11.5s5.5 17.5 7.5 29.5s3.66699 25.5 5 40.5s2 29.833 2 44.5z" />
    <glyph glyph-name="r" unicode="r" horiz-adv-x="349" 
d="M1 127c9.33301 17.333 21.498 42.666 36.498 75.999s29.833 71.333 44.5 114c-6.66699 6.66699 -10 14.667 -10 24c0 10 1.66699 19.167 5 27.5s7.33301 15.5 12 21.5s9.33398 10.667 14.001 14s8.33398 5 11.001 5c7.33301 0 11.5 -3.16699 12.5 -9.5
s1.5 -11.166 1.5 -14.499c0 -2 -0.5 -4.83301 -1.5 -8.5s-2.33301 -7.5 -4 -11.5s-3 -7.66699 -4 -11s-1.5 -5.33301 -1.5 -6c0 -9.33301 5.33301 -17.833 16 -25.5l35 -26c12.667 -9.66699 24.334 -21.334 35.001 -35.001s16 -31.167 16 -52.5
c0 -15.333 -2.66699 -30.833 -8 -46.5s-11 -30.834 -17 -45.501l-17 -41.5c-5.33301 -13 -8 -24.833 -8 -35.5c0 -12 3 -20 9 -24s13 -6 21 -6c16 0 32.667 5 50 15s33.833 22.5 49.5 37.5s29.834 31.167 42.501 48.5s22 33.333 28 48l13 -10
c-9.33301 -21.333 -21.5 -42.5 -36.5 -63.5s-31.833 -39.667 -50.5 -56s-38.334 -29.666 -59.001 -39.999s-41.667 -15.5 -63 -15.5c-22.667 0 -40.5 6 -53.5 18s-19.5 27.667 -19.5 47c0 14.667 2.83301 30.167 8.5 46.5s12 32.666 19 48.999s13.333 32.333 19 48
s8.5 30.167 8.5 43.5c0 10.667 -1.66699 19.834 -5 27.501s-7.83301 14.334 -13.5 20.001s-11.834 10.667 -18.501 15s-13 8.83301 -19 13.5l-24 -58.5c-8 -19 -16 -36.833 -24 -53.5l-22.5 -46c-7 -14 -13.167 -25.333 -18.5 -34z" />
    <glyph glyph-name="s" unicode="s" horiz-adv-x="346" 
d="M-20 80c0 20 2.83301 35.333 8.5 46s12.167 18.667 19.5 24s14.5 9.16602 21.5 11.499s11.833 5.16602 14.5 8.49902c20 22 38.333 45 55 69s31.334 49.333 44.001 76v12c0 24.667 4.16699 42.167 12.5 52.5s17.166 15.5 26.499 15.5c10.667 0 16 -4.33301 16 -13
c0 -3.33301 -1 -8.66602 -3 -15.999s-3 -16.666 -3 -27.999c0 -16.667 2.66699 -34.167 8 -52.5s11.333 -37.666 18 -57.999s12.667 -41.5 18 -63.5s8 -44.333 8 -67c0 -18 -2 -34.333 -6 -49c23.333 4 45.333 14.333 66 31s40.667 44 60 82l9 -10
c-12.667 -36.667 -31.667 -64.5 -57 -83.5s-53 -30.833 -83 -35.5c-10.667 -28.667 -27.5 -49.667 -50.5 -63s-48.833 -20 -77.5 -20c-23.333 0 -43 4 -59 12s-28.833 18.333 -38.5 31s-16.667 26.667 -21 42s-6.5 30.666 -6.5 45.999zM179 96
c0 32 -3.83301 63.168 -11.5 93.501s-14.167 59.5 -19.5 87.5c-15.333 -25.333 -31.5 -49.5 -48.5 -72.5s-33.167 -42.167 -48.5 -57.5c10 -21.333 25.5 -41.333 46.5 -60s46.833 -31.334 77.5 -38.001c1.33301 6.66699 2.33301 13.667 3 21s1 16 1 26zM107 -15.999
c4 0 8.83398 0.504883 14.501 1.50488s11.5 3.16699 17.5 6.5s11.667 8.16602 17 14.499s10 15.166 14 26.499c-28 5.33301 -52.833 16.166 -74.5 32.499s-37.834 33.166 -48.501 50.499c-14.667 -0.666992 -22 -12.334 -22 -35.001c0 -12 1.83301 -23.833 5.5 -35.5
s9 -22 16 -31s15.5 -16.333 25.5 -22s21.667 -8.5 35 -8.5z" />
    <glyph glyph-name="t" unicode="t" horiz-adv-x="286" 
d="M304 301c-73.333 -8 -131.995 -12 -175.995 -12h-15c-15.333 -36 -28.333 -72.333 -39 -109s-16 -73 -16 -109c0 -29.333 4.33301 -50 13 -62s23 -18 43 -18c34.667 0 68.667 15.333 102 46s62.666 72.334 87.999 125.001l13 -10c-12 -28 -26.5 -54.167 -43.5 -78.5
s-35.5 -45.333 -55.5 -63s-41.333 -31.5 -64 -41.5s-45.667 -15 -69 -15c-59.333 0 -89 33 -89 99c0 30 5.33301 66.167 16 108.5s24.667 86.5 42 132.5c-6.66699 1.33301 -13 2.5 -19 3.5s-11.667 2.5 -17 4.5v18c5.33301 -0.666992 11.666 -1.33398 18.999 -2.00098
s15.666 -1.33398 24.999 -2.00098c14 36 29 70.833 45 104.5s31.833 63.667 47.5 90s30.667 47.333 45 63s26.5 23.5 36.5 23.5c5.33301 0 10.166 -1.83301 14.499 -5.5s6.5 -9.16699 6.5 -16.5c0 -8.66699 -4.16699 -21.5 -12.5 -38.5s-19 -36.833 -32 -59.5l-43 -76
c-15.667 -28 -30.834 -57.333 -45.501 -88h37c22 0 45 0.333008 69 1s48.667 2.33398 74 5.00098v-18z" />
    <glyph glyph-name="u" unicode="u" horiz-adv-x="439" 
d="M276 271c2.66699 -0.666992 6.67285 -1.49902 12.0059 -2.49902s10.666 -2.5 15.999 -4.5s10 -4.66699 14 -8s6 -7 6 -11c0 -2.66699 -3.5 -11.667 -10.5 -27s-14.667 -33.5 -23 -54.5s-16 -42.667 -23 -65s-10.5 -41.833 -10.5 -58.5c0 -12 2.5 -21.667 7.5 -29
s13.5 -11 25.5 -11c10.667 0 23 3.66699 37 11s28.667 17.833 44 31.5s30.5 30.5 45.5 50.5s28.5 43 40.5 69l13 -9c-10.667 -27.333 -23.834 -52.166 -39.501 -74.499s-32.5 -41.5 -50.5 -57.5s-36.5 -28.5 -55.5 -37.5s-37.5 -13.5 -55.5 -13.5
c-26.667 0 -45 7.16699 -55 21.5s-15 31.833 -15 52.5c0 8 0.666992 16.167 2 24.5s3 16.833 5 25.5c-9.33301 -16.667 -19 -32.5 -29 -47.5s-20.5 -28.167 -31.5 -39.5s-22.333 -20.333 -34 -27s-23.834 -10 -36.501 -10c-22.667 0 -40.834 10 -54.501 30
s-20.5 43.667 -20.5 71c0 18.667 3.16699 41.167 9.5 67.5s14 51.166 23 74.499s18.667 43.333 29 60s19.166 25 26.499 25c3.33301 0 9 -1.83301 17 -5.5s14.667 -8.5 20 -14.5c-5.33301 -8.66699 -11.833 -20.834 -19.5 -36.501s-15 -32.834 -22 -51.501s-13 -38 -18 -58
s-7.5 -38.333 -7.5 -55c0 -4 0.333008 -9.83301 1 -17.5s2.16699 -15.167 4.5 -22.5s6 -13.666 11 -18.999s11.5 -8 19.5 -8c15.333 0 31.666 10 48.999 30s34.333 44 51 72s32.167 56.833 46.5 86.5z" />
    <glyph glyph-name="v" unicode="v" horiz-adv-x="408" 
d="M439 148c-14.667 -33.333 -30.8359 -55.668 -48.5029 -67.001s-34.5 -17 -50.5 -17c-22 0 -40.333 8 -55 24s-24.334 40.333 -29.001 73c-12 -24 -25.833 -48 -41.5 -72s-31.834 -45.5 -48.501 -64.5s-33.667 -34.333 -51 -46s-34 -17.5 -50 -17.5
c-21.333 0 -35.833 10.167 -43.5 30.5s-11.5 46.833 -11.5 79.5c0 1.33301 0.333008 11.833 1 31.5s2.33398 52.834 5.00098 99.501c1.33301 18 3.33301 30.333 6 37s11.334 10 26.001 10c11.333 0 18.5 -2.16699 21.5 -6.5s4.5 -12.833 4.5 -25.5
c0 -22 -1.5 -47.833 -4.5 -77.5s-4.5 -57.5 -4.5 -83.5c0 -19.333 1.5 -33.5 4.5 -42.5s9.16699 -13.5 18.5 -13.5c12 0 25.5 7 40.5 21s30 31.833 45 53.5s29.333 45.334 43 71.001s25.834 50.167 36.501 73.5c0.666992 22.667 2.33398 41.167 5.00098 55.5
s6 25.833 10 34.5s8.66699 14.667 14 18s11 5 17 5c12.667 0 21.834 -4.5 27.501 -13.5s8.5 -17.167 8.5 -24.5c0 -6.66699 -1.83301 -13.167 -5.5 -19.5s-7.66699 -14.333 -12 -24s-8.33301 -21.667 -12 -36s-5.5 -32.5 -5.5 -54.5c0 -8 0.5 -16.5 1.5 -25.5
s3.16699 -17.333 6.5 -25s8 -13.834 14 -18.501s14.333 -7 25 -7c14 0 27.333 5.33301 40 16s25.667 30 39 58z" />
    <glyph glyph-name="w" unicode="w" horiz-adv-x="618" 
d="M649 148c-14.667 -33.333 -30.835 -55.6611 -48.502 -66.9941s-34.5 -17 -50.5 -17c-20.667 0 -38.167 7 -52.5 21s-24.833 35 -31.5 63c-12.667 -23.333 -26.5 -46.166 -41.5 -68.499s-30.5 -42.333 -46.5 -60s-32.167 -31.834 -48.5 -42.501s-32.166 -16 -47.499 -16
c-10.667 0 -19.5 2.5 -26.5 7.5s-12.5 12 -16.5 21s-6.83301 19.333 -8.5 31s-2.5 24.167 -2.5 37.5s0.666992 27.833 2 43.5s3 31.167 5 46.5l-35 -65c-12 -21.333 -24.833 -40.333 -38.5 -57s-27.667 -30.167 -42 -40.5s-29.166 -15.5 -44.499 -15.5
c-11.333 0 -21.5 2.66699 -30.5 8s-16.833 12.666 -23.5 21.999s-11.834 20 -15.501 32s-5.5 25 -5.5 39c0 18.667 3.16699 41.167 9.5 67.5s14 51.166 23 74.499s18.667 43.333 29 60s19.166 25 26.499 25c2 0 5 -0.5 9 -1.5s8 -2.33301 12 -4
s7.66699 -3.83398 11 -6.50098s5 -5.33398 5 -8.00098c-5.33301 -8.66699 -11.833 -20.834 -19.5 -36.501s-15 -33 -22 -52s-13 -38.333 -18 -58s-7.5 -37.834 -7.5 -54.501c0 -4 0.333008 -9.83301 1 -17.5s2.16699 -15.167 4.5 -22.5s5.83301 -13.666 10.5 -18.999
s11 -8 19 -8c11.333 0 23.333 5.66699 36 17s25.5 26.166 38.5 44.499s26 38.833 39 61.5s25.167 45.334 36.5 68.001c4 20.667 7.5 37 10.5 49s5.83301 21 8.5 27s5.66699 9.83301 9 11.5s7.33301 2.5 12 2.5c8.66699 0 15.667 -1.83301 21 -5.5s8 -9.16699 8 -16.5
c0 -2 -0.666992 -5.66699 -2 -11c-4 -12 -7.66699 -26.5 -11 -43.5s-6.16602 -35 -8.49902 -54s-4.33301 -38.167 -6 -57.5s-2.5 -37.333 -2.5 -54c0 -32.667 7.33301 -49 22 -49c10 0 21.667 6.33301 35 19s27 28.834 41 48.501s27.833 41.667 41.5 66
s26.167 48.166 37.5 71.499c0 26 1.5 47.167 4.5 63.5s6.83301 29.333 11.5 39s10 16.167 16 19.5s12 5 18 5c12.667 0 21.834 -4.5 27.501 -13.5s8.5 -17.167 8.5 -24.5c0 -6.66699 -1.83301 -13.167 -5.5 -19.5s-7.66699 -14.333 -12 -24s-8.33301 -21.667 -12 -36
s-5.5 -32.5 -5.5 -54.5c0 -8 0.5 -16.5 1.5 -25.5s3.16699 -17.333 6.5 -25s8 -13.834 14 -18.501s14.333 -7 25 -7c14 0 27.333 5.33301 40 16s25.667 30 39 58z" />
    <glyph glyph-name="x" unicode="x" horiz-adv-x="419" 
d="M56 -52c-4 -4.66699 -7.99707 -7.00098 -11.9971 -7.00098c-6.66699 0 -10 5 -10 15c0 6 4 15.667 12 29s18.833 29 32.5 47s29.5 37.667 47.5 59l56 65l-5.5 44c-1.66699 14 -4.16699 26.333 -7.5 37s-7.33301 19.167 -12 25.5s-11 9.5 -19 9.5c-12 0 -23 -4 -33 -12
s-19.667 -18.667 -29 -32s-18.5 -28.5 -27.5 -45.5l-29.5 -53.5l-9 16c9.33301 18 18 36.667 26 56s17.167 37.166 27.5 53.499s22.666 29.833 36.999 40.5s32.166 16 53.499 16c26 0 45 -9.16699 57 -27.5s20.667 -40.833 26 -67.5l44.5 45.5
c14.333 14.333 27.5 26.666 39.5 36.999s22.5 18.5 31.5 24.5s15.833 9 20.5 9c3.33301 0 8.33301 -1 15 -3s10 -4.66699 10 -8c-6 0 -14.167 -3.83301 -24.5 -11.5s-22.5 -18 -36.5 -31s-29 -28.333 -45 -46l-49 -55.5c2 -20 3.66699 -40 5 -60s3.5 -38 6.5 -54
s7.83301 -28.833 14.5 -38.5s16 -14.5 28 -14.5s24.833 5.16699 38.5 15.5s27 23 40 38s25 31.333 36 49s19.833 33.834 26.5 48.501l10 -10c-7.33301 -21.333 -17.333 -42.666 -30 -63.999s-26.834 -40.333 -42.501 -57s-32.5 -30.167 -50.5 -40.5s-35.667 -15.5 -53 -15.5
c-14.667 0 -27 3.83301 -37 11.5s-18.167 17.834 -24.5 30.501s-11.333 27.167 -15 43.5s-6.5 33.5 -8.5 51.5l-77.5 -95z" />
    <glyph glyph-name="y" unicode="y" horiz-adv-x="390" 
d="M321 272c0 -8 -1.8291 -21.501 -5.49609 -40.501s-9 -41.167 -16 -66.5s-15.167 -53 -24.5 -83s-20 -60 -32 -90c31.333 12 61.833 31.833 91.5 59.5s54.167 64.5 73.5 110.5l13 -10c-7.33301 -24 -17.833 -45.667 -31.5 -65s-29.167 -36.666 -46.5 -51.999
s-35.5 -28.666 -54.5 -39.999s-37.833 -21.333 -56.5 -30c-13.333 -32 -27.333 -62.833 -42 -92.5s-30 -55.667 -46 -78s-32.5 -40.333 -49.5 -54s-34.167 -20.5 -51.5 -20.5s-32.166 4.5 -44.499 13.5s-18.5 22.167 -18.5 39.5c0 21.333 5.33301 40.333 16 57s25 32 43 46
s38.667 27.333 62 40l73 38c9.33301 24.667 18.666 52.167 27.999 82.5s18.666 63.833 27.999 100.5c-10.667 -17.333 -21.834 -33.833 -33.501 -49.5s-23.5 -29.167 -35.5 -40.5s-24.5 -20.333 -37.5 -27s-26.167 -10 -39.5 -10c-10 0 -19.667 1.66699 -29 5
s-17.833 8.16602 -25.5 14.499s-13.834 14.666 -18.501 24.999s-7 22.5 -7 36.5c0 18.667 3.16699 40.5 9.5 65.5s14.166 48.833 23.499 71.5s19 41.834 29 57.501s18.667 23.5 26 23.5c2 0 5.33301 -0.666992 10 -2s9.5 -3 14.5 -5s9.5 -4.5 13.5 -7.5s6 -5.83301 6 -8.5
c-6 -8.66699 -12.667 -21.167 -20 -37.5s-14.5 -34 -21.5 -53s-12.833 -38 -17.5 -57s-7 -35.167 -7 -48.5c0 -12 2.66699 -21.667 8 -29s14.666 -11 27.999 -11c9.33301 0 19.666 3.5 30.999 10.5s22.833 16.5 34.5 28.5s23.334 25.667 35.001 41s22.5 31.333 32.5 48
c2 7.33301 3.83301 14.833 5.5 22.5s3.16699 15.5 4.5 23.5c0.666992 4.66699 2.33398 10 5.00098 16s6 11.5 10 16.5s9 9.33301 15 13s13 5.5 21 5.5c6 0 13 -1 21 -3zM38.0039 -248.001c4.66699 0 11.5 2.99902 20.5 8.99902s19 16 30 30s23 32.333 36 55
s26.167 50.667 39.5 84l-59 -32.5c-18.667 -10.333 -35 -21.333 -49 -33s-25 -24.167 -33 -37.5s-12 -28.333 -12 -45c0 -5.33301 2 -11.666 6 -18.999s11 -11 21 -11z" />
    <glyph glyph-name="z" unicode="z" horiz-adv-x="318" 
d="M346 150c-9.33301 -30 -24.333 -57.167 -45 -81.5s-44.334 -46.5 -71.001 -66.5c1.33301 -5.33301 2.33301 -10.833 3 -16.5s1 -11.167 1 -16.5c0 -30 -6.66699 -60 -20 -90s-31.166 -56.667 -53.499 -80s-47.833 -42.333 -76.5 -57s-58.334 -22 -89.001 -22
c-20.667 0 -36.834 3.83301 -48.501 11.5s-17.5 20.834 -17.5 39.501c0 21.333 7.33301 41 22 59s33.667 35.5 57 52.5s49.5 34 78.5 51s58.167 35.167 87.5 54.5c0 24 -5 46 -15 66s-28 40.333 -54 61c17.333 4.66699 32.833 12.667 46.5 24s25.167 23.833 34.5 37.5
s16.333 28 21 43s7 29.167 7 42.5c0 15.333 -3.16699 28 -9.5 38s-16.166 15 -29.499 15c-16.667 0 -31.834 -4.83301 -45.501 -14.5s-26.5 -22.834 -38.5 -39.501s-23.5 -35.834 -34.5 -57.501s-22.167 -44.834 -33.5 -69.501l-12 10c10.667 30 21.834 57.667 33.501 83
s24.334 47.333 38.001 66s29.167 33.334 46.5 44.001s37.333 16 60 16s42.167 -7.33301 58.5 -22s24.5 -34.667 24.5 -60c0 -18 -3.33301 -35.167 -10 -51.5s-15.5 -31.166 -26.5 -44.499s-23.667 -25.5 -38 -36.5s-28.833 -20.167 -43.5 -27.5
c34.667 -26.667 58 -56.667 70 -90c25.333 19.333 47.833 40.5 67.5 63.5s34.167 48.833 43.5 77.5zM-12 -251c12 0 27.834 4.83398 47.501 14.501s39.167 23.667 58.5 42s36.5 40.833 51.5 67.5s24.167 57.334 27.5 92.001c-26.667 -17.333 -52.834 -33.333 -78.501 -48
s-48.667 -29.334 -69 -44.001s-36.833 -29.334 -49.5 -44.001s-19 -30.334 -19 -47.001c0 -11.333 2.83301 -19.666 8.5 -24.999s13.167 -8 22.5 -8z" />
    <glyph glyph-name="braceleft" unicode="{" horiz-adv-x="261" 
d="M131 325c9.33301 -9.33301 15.9941 -19.3359 19.9941 -30.0029s6 -23.667 6 -39c0 -31.333 -4 -60 -12 -86s-16.667 -50.5 -26 -73.5l-26 -65.5c-8 -20.667 -12 -41 -12 -61c0 -9.33301 2.33301 -17 7 -23s13.334 -9 26.001 -9c4 0 8.33301 0.666992 13 2
s8.66699 3.33301 12 6c-1.33301 -12.667 -6.66602 -21.334 -15.999 -26.001s-19.666 -7 -30.999 -7c-12.667 0 -23.167 1.83301 -31.5 5.5s-15 8.5 -20 14.5s-8.5 13 -10.5 21s-3 16.333 -3 25c0 16.667 3.83301 35.667 11.5 57s16.167 43.333 25.5 66
s17.833 45.167 25.5 67.5s11.5 43.5 11.5 63.5s-2.16699 38.333 -6.5 55s-14.166 31 -29.499 43c24.667 2.66699 42.667 14 54 34s19.333 44.5 24 73.5s7.83398 60 9.50098 93s5 63.333 10 91s13.5 50.834 25.5 69.501s31 28 57 28c12.667 0 24.5 -3.66699 35.5 -11
s17.5 -21.333 19.5 -42c-5.33301 3.33301 -10.833 6.5 -16.5 9.5s-11.167 4.5 -16.5 4.5c-14.667 0 -25.834 -8.5 -33.501 -25.5s-13.667 -38.5 -18 -64.5s-8.16602 -54.167 -11.499 -84.5s-7.66602 -58.666 -12.999 -84.999s-12.5 -48.666 -21.5 -66.999
s-21.833 -28.166 -38.5 -29.499z" />
    <glyph glyph-name="bar" unicode="|" horiz-adv-x="260" 
d="M149 697c11.333 -5.33301 18.833 -13.998 22.5 -25.998s5.5 -22.333 5.5 -31c0 -19.333 -0.5 -44.5 -1.5 -75.5s-2.33301 -64.833 -4 -101.5s-3.66699 -74.834 -6 -114.501l-7 -115.5c-2.33301 -37.333 -4.83301 -71.833 -7.5 -103.5s-5 -57.5 -7 -77.5
c-6 -58 -16.5 -103.167 -31.5 -135.5s-37.5 -48.5 -67.5 -48.5c9.33301 25.333 17.833 61.166 25.5 107.499s14.5 97.5 20.5 153.5s11.5 114 16.5 174l14.5 169.5c4.66699 53 9.16699 99.5 13.5 139.5s8.83301 68.333 13.5 85z" />
    <glyph glyph-name="braceright" unicode="}" horiz-adv-x="257" 
d="M68 129c2.66699 22 5.66113 44.3359 8.99414 67.0029s7.83301 44 13.5 64s13 37.667 22 53s20.167 26.666 33.5 33.999c-9.33301 10.667 -15.833 22 -19.5 34s-5.5 24.667 -5.5 38c0 21.333 3.66699 44 11 68s15.5 47.333 24.5 70l24.5 64c7.33301 20 11 37 11 51
c0 4 -0.333008 7.5 -1 10.5s-2.66699 4.5 -6 4.5c-2.66699 0 -8 -1.16699 -16 -3.5s-16.333 -6.83301 -25 -13.5c3.33301 14.667 12.333 26.667 27 36s28.334 14 41.001 14c13.333 0 23.333 -3.5 30 -10.5s10 -14.833 10 -23.5c0 -11.333 -3.83301 -26.666 -11.5 -45.999
l-25.5 -63.5c-9.33301 -23 -17.833 -46.833 -25.5 -71.5s-11.5 -48.334 -11.5 -71.001c0 -17.333 2 -34.833 6 -52.5s13.667 -31.834 29 -42.501c-19.333 -4.66699 -34.666 -14.334 -45.999 -29.001s-20.166 -32.5 -26.499 -53.5s-10.833 -44 -13.5 -69
s-5.16699 -50.167 -7.5 -75.5s-4.83301 -50 -7.5 -74s-7.16699 -45.333 -13.5 -64s-15.166 -33.5 -26.499 -44.5s-26.666 -16.5 -45.999 -16.5c-13.333 0 -25.666 3.66699 -36.999 11s-18 21.333 -20 42c12 -8 23.333 -12 34 -12c10 0 18.5 5 25.5 15s13 23.333 18 40
s9.16699 35.5 12.5 56.5s6.33301 42.167 9 63.5z" />
    <glyph glyph-name="asciitilde" unicode="~" horiz-adv-x="436" 
d="M30 160c13.333 17.333 26.667 29.332 40 35.999s27.666 10 42.999 10c14 0 28.5 -2.33301 43.5 -7l46.5 -15c16 -5.33301 32.667 -10.333 50 -15s35.333 -7 54 -7c10 0 20 1 30 3c-12 -13.333 -24.5 -22.666 -37.5 -27.999s-26.5 -8 -40.5 -8s-28.5 2 -43.5 6
s-30.167 8.5 -45.5 13.5s-30.833 9.5 -46.5 13.5s-31.5 6 -47.5 6c-17.333 0 -32.666 -2.66699 -45.999 -8z" />
    <glyph glyph-name="exclamdown" unicode="&#xa1;" horiz-adv-x="265" 
d="M205 367c0 -12 -1.83301 -26.001 -5.5 -42.001s-8.33398 -32.5 -14.001 -49.5l-18 -51.5l-17.5 -47l-58 -148c-20 -50.667 -39.667 -96.667 -59 -138s-37.666 -75.166 -54.999 -101.499s-33 -39.5 -47 -39.5c-5.33301 0 -10 2.16699 -14 6.5s-6 9.83301 -6 16.5
c0 9.33301 5.5 28 16.5 56s25.333 61 43 99l59.5 122.5l66 127l61.5 112c19 33.667 34.833 59.5 47.5 77.5zM234 479.999c8.66699 0 16.167 -2.16699 22.5 -6.5s9.5 -11.166 9.5 -20.499c0 -11.333 -6.33301 -21 -19 -29s-25.667 -12 -39 -12c-8 0 -14.333 1.66699 -19 5
s-7 9.66602 -7 18.999c0 10 5.33301 19.833 16 29.5s22.667 14.5 36 14.5z" />
    <glyph glyph-name="cent" unicode="&#xa2;" horiz-adv-x="404" 
d="M279 508c14 0 25.834 -2.16602 35.501 -6.49902s17.167 -10 22.5 -17s9.16602 -15 11.499 -24s3.5 -17.833 3.5 -26.5c0 -19.333 -4.5 -36.333 -13.5 -51s-21.167 -22 -36.5 -22c-11.333 0 -21 5 -29 15c10 5.33301 18.667 16 26 32s11 31.667 11 47
c0 8 -1.5 14.167 -4.5 18.5s-8.83301 6.5 -17.5 6.5c-6.66699 0 -11.667 -0.333008 -15 -1c-5.33301 -26.667 -10.5 -54 -15.5 -82s-10.333 -56 -16 -84l-16.5 -82l-15 -76c20.667 3.33301 41.334 9.83301 62.001 19.5s40.334 22.834 59.001 39.501l17 -16
c-20 -19.333 -42.833 -35.666 -68.5 -48.999s-51.167 -23 -76.5 -29c-10 -44 -19.5 -83.333 -28.5 -118s-19 -64.167 -30 -88.5s-23.333 -43 -37 -56s-30.167 -19.5 -49.5 -19.5c6 6.66699 12.667 18.5 20 35.5s15.166 37.667 23.499 62s16.833 51.666 25.5 81.999
s17.334 62.5 26.001 96.5c-32 0 -58.5 10.5 -79.5 31.5s-31.5 53.167 -31.5 96.5c0 29.333 6 58.166 18 86.499s27.5 54.166 46.5 77.499s40.333 43.5 64 60.5s47.5 28.833 71.5 35.5c7.33301 36 13.666 68.667 18.999 98s9.66602 54.333 12.999 75
c1.33301 10 4.83301 19 10.5 27s17.167 14 34.5 18zM104.001 235.001c0 -19.333 4 -37.168 12 -53.501s23.667 -26.166 47 -29.499c13.333 52 26 104.833 38 158.5l34 154.5c-18 -10 -35 -23.833 -51 -41.5s-29.833 -37.167 -41.5 -58.5s-21 -43.333 -28 -66
s-10.5 -44 -10.5 -64z" />
    <glyph glyph-name="sterling" unicode="&#xa3;" horiz-adv-x="651" 
d="M119 255c0.666992 14 4.99414 25.501 12.9941 34.501s18.667 16.167 32 21.5s28.666 9 45.999 11s36 3 56 3l24 75c-31.333 10 -55.666 24.667 -72.999 44s-26 40.333 -26 63c0 8.66699 1.5 17.667 4.5 27s7.16699 17.833 12.5 25.5s11.833 14 19.5 19
s16.167 7.5 25.5 7.5c-5.33301 -7.33301 -8.83301 -17.166 -10.5 -29.499s-2.5 -23.166 -2.5 -32.499c0 -25.333 5.33301 -46.5 16 -63.5s24.334 -30.167 41.001 -39.5c12.667 40 26.334 78 41.001 114s30.667 67.667 48 95s36.333 49.166 57 65.499s43.667 24.5 69 24.5
c10 0 20.667 -1.5 32 -4.5s21.833 -8.5 31.5 -16.5s17.667 -18.5 24 -31.5s9.5 -29.5 9.5 -49.5c0 -23.333 -4.83301 -48.333 -14.5 -75s-24.334 -51.5 -44.001 -74.5s-44.5 -42.167 -74.5 -57.5s-65.667 -23 -107 -23h-16c-8 -21.333 -15.333 -43.333 -22 -66
c30 -2 58 -4.83301 84 -8.5s49.667 -5.5 71 -5.5c-5.33301 -8 -11.333 -14.167 -18 -18.5s-16 -7.5 -28 -9.5s-27.833 -3.33301 -47.5 -4s-45.834 -1.33398 -78.501 -2.00098l-9.5 -25.5l-9.5 -25.5c32.667 -2 63.5 -4.83301 92.5 -8.5s55.167 -5.83398 78.5 -6.50098
c-5.33301 -8 -11.333 -14.167 -18 -18.5s-16.667 -7.5 -30 -9.5s-31.166 -3.5 -53.499 -4.5s-52.166 -1.83301 -89.499 -2.5l-32 -69c-10.667 -22 -22 -42 -34 -60l69.5 -22c23.667 -7.33301 46.834 -14 69.501 -20s44.667 -10.833 66 -14.5s41.333 -5.5 60 -5.5
c26.667 0 50.334 5.33301 71.001 16c-11.333 -31.333 -25.666 -53.333 -42.999 -66s-38 -19 -62 -19c-18 0 -37.5 3 -58.5 9s-42.667 13.5 -65 22.5s-45 19 -68 30l-68.5 31.5c-16.667 -18.667 -34 -33.167 -52 -43.5s-37.667 -15.5 -59 -15.5c-16 0 -30.333 3 -43 9
s-23.167 13.333 -31.5 22s-14.666 18.167 -18.999 28.5s-6.5 19.5 -6.5 27.5c0 12 5.33301 22.333 16 31s29.667 13 57 13c17.333 0 36.5 -2 57.5 -6s42.833 -9 65.5 -15c18 30.667 34.667 68.334 50 113.001l-38.5 -4c-13 -1.33301 -27.5 -3.33301 -43.5 -6l-34 -5
c0.666992 13.333 4.66699 24.333 12 33s17 15.667 29 21s26.167 9.16602 42.5 11.499s33.5 3.83301 51.5 4.5l15 46c-15.333 -2.66699 -30.333 -4.5 -45 -5.5s-31.667 -2.83301 -51 -5.5zM518.994 695.001c-15.333 0 -30.001 -7.83398 -44.001 -23.501
s-27.5 -36.667 -40.5 -63s-25.667 -56.833 -38 -91.5l-37.5 -110c30 0 57.167 8.83301 81.5 26.5s45 38.834 62 63.501s30 50.5 39 77.5s13.5 50.5 13.5 70.5c0 19.333 -3.66699 32.5 -11 39.5s-15.666 10.5 -24.999 10.5zM64.9932 -24
c14.667 0 28.334 4.00098 41.001 12.001s24.667 19.333 36 34c-21.333 8.66699 -41.666 15.834 -60.999 21.501s-37 8.5 -53 8.5c-12.667 0 -21.334 -1.66699 -26.001 -5s-7 -8 -7 -14s1.66699 -12.333 5 -19s8.16602 -12.834 14.499 -18.501s13.833 -10.334 22.5 -14.001
s18 -5.5 28 -5.5z" />
    <glyph glyph-name="currency" unicode="&#xa4;" horiz-adv-x="698" 
d="M531 401c0 -28.667 -4.66992 -59.834 -14.0029 -93.501s-22.666 -65.5 -39.999 -95.5c32.667 -30.667 59.834 -60.667 81.501 -90s32.5 -56 32.5 -80v-9c0 -2.66699 -0.666992 -5.66699 -2 -9c-9.33301 17.333 -27 37.333 -53 60s-55 51 -87 85
c-17.333 -21.333 -36.333 -38.833 -57 -52.5s-43 -20.5 -67 -20.5c-18.667 0 -34.834 3.5 -48.501 10.5s-25.167 16.833 -34.5 29.5c-30.667 -34 -60.334 -58 -89.001 -72s-55.334 -21 -80.001 -21c8 8 17.333 15.667 28 23s22.334 16 35.001 26s26.167 22 40.5 36
s28.5 31.333 42.5 52c-3.33301 10.667 -5.66602 21.5 -6.99902 32.5s-2 22.5 -2 34.5c0 28 3.83301 57.5 11.5 88.5s19.167 60.5 34.5 88.5l-65 68.5c-20 20.333 -37.667 37.5 -53 51.5c-5.33301 4.66699 -9.66602 12.667 -12.999 24s-5 23.333 -5 36s2 24 6 34
c4.66699 -4 11.834 -11.167 21.501 -21.5l35 -38l46 -50.5l54.5 -59c17.333 22.667 37 41.167 59 55.5s45.667 21.5 71 21.5c24 0 44.833 -6 62.5 -18s31.167 -28.667 40.5 -50c13.333 16 24.833 31.333 34.5 46s19.5 27.834 29.5 39.501s21.667 20.834 35 27.501
s30.333 10 51 10c3.33301 0 6.33301 -0.166992 9 -0.5s5.66699 -0.833008 9 -1.5c-4 -5.33301 -10.667 -13.666 -20 -24.999l-34 -41l-46 -53.5l-54 -62.5c0 -2.66699 0.166992 -5.33398 0.5 -8.00098s0.5 -5.33398 0.5 -8.00098zM412.997 496
c-20.667 0 -39.834 -9.33301 -57.501 -28s-33 -41.5 -46 -68.5s-23.333 -55.333 -31 -85s-11.5 -55.5 -11.5 -77.5c0 -13.333 2 -25.333 6 -36s9.33301 -19.834 16 -27.501s13.834 -13.667 21.501 -18s15.167 -6.5 22.5 -6.5c16.667 0 33.667 8.66699 51 26
s33 39.166 47 65.499s25.333 54.833 34 85.5s13 59.334 13 86.001c0 24.667 -6.83301 44.834 -20.5 60.501s-28.5 23.5 -44.5 23.5z" />
    <glyph glyph-name="yen" unicode="&#xa5;" horiz-adv-x="811" 
d="M254 -18c-3.33301 -10 -5.50098 -19.667 -6.50098 -29s-1.5 -17.666 -1.5 -24.999c0 -28 7.16699 -50 21.5 -66s36.166 -24 65.499 -24c20 0 38.167 3.83301 54.5 11.5s31.166 17.834 44.499 30.501s25.333 27.5 36 44.5s20 34.5 28 52.5c-24 0 -48.333 -0.666992 -73 -2
s-50.667 -4.33301 -78 -9c7.33301 18.667 26.166 31.167 56.499 37.5s66.833 10.166 109.5 11.499c4 10.667 7.5 21.167 10.5 31.5s6.16699 20.5 9.5 30.5h-5c-28.667 0 -57.834 -0.5 -87.501 -1.5s-60.834 -4.16699 -93.501 -9.5c4 10 11.5 18.167 22.5 24.5
s24.833 11.333 41.5 15s35.667 6.16699 57 7.5s44 2 68 2h6l2 6c5.33301 22.667 11.333 52 18 88s14.667 75 24 117c-13.333 -25.333 -27.666 -48.833 -42.999 -70.5s-31.833 -40.167 -49.5 -55.5s-36.834 -27.333 -57.501 -36s-43 -13 -67 -13c-39.333 0 -67.333 11 -84 33
s-25 50.667 -25 86c0 26 3.5 54.333 10.5 85s14.833 61.334 23.5 92.001s16.5 60.5 23.5 89.5s10.5 54.833 10.5 77.5c0 21.333 -4.16699 39.666 -12.5 54.999s-23.166 23 -44.499 23c-18.667 0 -34.667 -6 -48 -18s-24.5 -26.667 -33.5 -44s-15.667 -36 -20 -56
s-6.5 -38.333 -6.5 -55c0 -20 2.66699 -36.333 8 -49c-25.333 0 -43.166 6.66699 -53.499 20s-15.5 29.666 -15.5 48.999c0 20.667 5 41.667 15 63s23.833 40.833 41.5 58.5s38 32 61 43s47.5 16.5 73.5 16.5c18.667 0 34.667 -3 48 -9s24.166 -13.833 32.499 -23.5
s14.333 -20.5 18 -32.5s5.5 -24 5.5 -36c0 -18.667 -3.5 -41.5 -10.5 -68.5l-23 -85.5c-8.33301 -30 -16 -60.5 -23 -91.5s-10.5 -59.833 -10.5 -86.5c0 -29.333 5.33301 -52.666 16 -69.999s28.667 -26 54 -26c23.333 0 45.333 7.5 66 22.5s40 34.5 58 58.5
s34.333 50.667 49 80s27.667 58.666 39 87.999c8.66699 36 17.834 70.833 27.501 104.5s19.5 63.5 29.5 89.5s20.333 46.833 31 62.5s21.334 23.5 32.001 23.5c6.66699 0 15.334 -2.83301 26.001 -8.5s20.667 -13.5 30 -23.5l-30.5 -52c-9 -16 -17.333 -33.167 -25 -51.5
s-15.167 -38.666 -22.5 -60.999s-15.166 -48.833 -23.499 -79.5l-28 -107l-35.5 -143l-10 -40.5c-3.33301 -13.667 -7 -27.167 -11 -40.5l60.5 -3.5c17.667 -1 31.5 -2.16699 41.5 -3.5c-16.667 -12 -34.5 -19.833 -53.5 -23.5s-35.5 -5.5 -49.5 -5.5h-9
c-6.66699 -21.333 -14 -42.333 -22 -63c29.333 -0.666992 56 -1.83398 80 -3.50098s42 -3.16699 54 -4.5c-16.667 -12 -34.5 -19.833 -53.5 -23.5s-35.5 -5.5 -49.5 -5.5h-47c-10.667 -23.333 -22.834 -45 -36.501 -65s-29.5 -37.333 -47.5 -52s-38.167 -26.167 -60.5 -34.5
s-47.5 -12.5 -75.5 -12.5c-19.333 0 -37.333 2 -54 6s-31.167 10 -43.5 18s-22.166 17.833 -29.499 29.5s-11 25.167 -11 40.5c0 17.333 4.83301 32.333 14.5 45s24.834 22.667 45.501 30z" />
    <glyph glyph-name="brokenbar" unicode="&#xa6;" horiz-adv-x="261" 
d="M98 197c4.66699 4.66699 11.168 9.16602 19.501 13.499s17.166 6.5 26.499 6.5c5.33301 0 8.66602 -2.66699 9.99902 -8s2 -10.333 2 -15c-3.33301 -51.333 -7.16602 -97.166 -11.499 -137.499s-10.333 -74.5 -18 -102.5s-18 -49.333 -31 -64s-29.833 -22 -50.5 -22
c6 15.333 11.333 34.5 16 57.5s9.16699 48.833 13.5 77.5s8.5 59.5 12.5 92.5s7.66699 66.833 11 101.5zM107.001 295.999l11.502 130.998l10.5 118c3.33301 36 6.66602 67.167 9.99902 93.5s6.66602 45.833 9.99902 58.5c11.333 -5.33301 18.833 -14 22.5 -26
s5.5 -22.333 5.5 -31c0 -13.333 -0.5 -29.166 -1.5 -47.499l-3.5 -61.5c-1.33301 -22.667 -2.5 -46.667 -3.5 -72s-1.5 -51 -1.5 -77c0 -6 -2.16699 -16.167 -6.5 -30.5s-12.833 -26.166 -25.5 -35.499z" />
    <glyph glyph-name="section" unicode="&#xa7;" horiz-adv-x="417" 
d="M260 31c0 18 -4.83203 33.8281 -14.499 47.4951s-21.834 26.334 -36.501 38.001s-30.667 23 -48 34s-33.333 23.167 -48 36.5s-26.834 28.166 -36.501 44.499s-14.5 35.833 -14.5 58.5c0 17.333 3.33301 34.5 10 51.5s16.667 32 30 45s30 23.5 50 31.5s43.333 12 70 12
h12c4 0 8 -0.333008 12 -1l-37.5 22.5c-12.333 7.66699 -23.5 16.167 -33.5 25.5s-18 19.833 -24 31.5s-9 25.167 -9 40.5c0 17.333 4.33301 36 13 56s20.834 38.5 36.501 55.5s34.5 31 56.5 42s46 16.5 72 16.5c27.333 0 46 -5.83301 56 -17.5s15 -26.834 15 -45.501
c0 -12 -1.66699 -24.667 -5 -38s-7.33301 -26.166 -12 -38.499s-10 -24.166 -16 -35.499s-11.333 -21 -16 -29c-8.66699 1.33301 -14.334 4.66602 -17.001 9.99902s-4 11 -4 17c0 9.33301 2 19.833 6 31.5l12.5 35.5l12.5 36c4 12 6 22.667 6 32
c0 8.66699 -2.5 15.334 -7.5 20.001s-14.167 7 -27.5 7c-20 0 -38.667 -4.83301 -56 -14.5s-32.333 -21.667 -45 -36s-22.5 -29.666 -29.5 -45.999s-10.5 -31.5 -10.5 -45.5c0 -16 4.5 -29.5 13.5 -40.5s20 -21 33 -30s27.333 -18 43 -27s30 -19.833 43 -32.5s24 -28 33 -46
s13.5 -40 13.5 -66c0 -44 -12.333 -76.5 -37 -97.5s-58 -31.5 -100 -31.5c-8.66699 0 -15.334 0.5 -20.001 1.5s-9.16699 2.16699 -13.5 3.5s-9 3.16602 -14 5.49902s-11.833 5.16602 -20.5 8.49902c7.33301 -8 19.166 -16.167 35.499 -24.5s32.833 -18.5 49.5 -30.5
s31.334 -26.5 44.001 -43.5s19 -37.5 19 -61.5c0 -21.333 -5.33301 -40.5 -16 -57.5s-24.5 -31.333 -41.5 -43s-35.667 -20.667 -56 -27s-40.5 -9.5 -60.5 -9.5c-17.333 0 -34 2.33301 -50 7s-30.167 11.667 -42.5 21s-22.166 21.333 -29.499 36s-11 31.667 -11 51
c0 16.667 2.5 30.334 7.5 41.001s11.5 19.334 19.5 26.001s16.833 11.334 26.5 14.001s18.834 4 27.501 4c-11.333 -12 -20 -25.5 -26 -40.5s-9 -29.833 -9 -44.5c0 -23.333 7.83301 -44.166 23.5 -62.499s40.5 -27.5 74.5 -27.5c14.667 0 29 2 43 6s26.667 9.83301 38 17.5
s20.5 17.334 27.5 29.001s10.5 25.167 10.5 40.5zM209.001 230.995c63.333 0 95 28.3311 95 84.998c0 25.333 -7 45.833 -21 61.5s-36 23.5 -66 23.5c-12.667 0 -25 -1.66699 -37 -5s-22.5 -8.66602 -31.5 -15.999s-16.333 -16.666 -22 -27.999s-8.5 -25.333 -8.5 -42
c0 -6 0.833008 -13.5 2.5 -22.5s5.5 -17.667 11.5 -26s15 -15.5 27 -21.5s28.667 -9 50 -9z" />
    <glyph glyph-name="dieresis" unicode="&#xa8;" horiz-adv-x="240" 
d="M37 436c-10 0 -18.667 2.33301 -26 7s-11 12.334 -11 23.001c0 6 2 11.833 6 17.5s9.33301 10.667 16 15s13.834 7.83301 21.501 10.5s15.167 4 22.5 4c9.33301 0 16.666 -2 21.999 -6s8 -11.333 8 -22c0 -6 -1.66699 -11.833 -5 -17.5s-7.83301 -10.834 -13.5 -15.501
s-12 -8.5 -19 -11.5s-14.167 -4.5 -21.5 -4.5zM181 415c-10 0 -18.667 2.33301 -26 7s-11 12.334 -11 23.001c0 6 2 11.833 6 17.5s9.33301 10.667 16 15s13.834 7.83301 21.501 10.5s15.167 4 22.5 4c9.33301 0 16.666 -2 21.999 -6s8 -11.333 8 -22
c0 -6 -1.66699 -11.833 -5 -17.5s-7.83301 -10.834 -13.5 -15.501s-12 -8.5 -19 -11.5s-14.167 -4.5 -21.5 -4.5z" />
    <glyph glyph-name="copyright" unicode="&#xa9;" 
d="M69 358c0 44.667 7.66699 83.5 23 116.5s35 60.167 59 81.5s50.667 37.333 80 48s58 16 86 16s56.5 -5.33301 85.5 -16s55.333 -26.667 79 -48s42.834 -48.166 57.501 -80.499s22 -70.166 22 -113.499c0 -44.667 -7.66699 -83.5 -23 -116.5s-35 -60.167 -59 -81.5
s-50.667 -37.333 -80 -48s-58 -16 -86 -16s-56.5 5.33301 -85.5 16s-55.333 26.667 -79 48s-42.834 48.166 -57.501 80.499s-22 70.166 -22 113.499zM533 362c0 33.333 -5.16699 64 -15.5 92s-25 52.333 -44 73s-41.833 36.667 -68.5 48s-56 17 -88 17
s-61.333 -5.66699 -88 -17s-49.834 -27.333 -69.501 -48s-35 -45.334 -46 -74.001s-16.5 -60.334 -16.5 -95.001c0 -33.333 5.16699 -64 15.5 -92s25 -52.333 44 -73s41.833 -36.667 68.5 -48s56 -17 88 -17s61.333 5.66699 88 17s49.834 27.333 69.501 48
s35 45.334 46 74.001s16.5 60.334 16.5 95.001zM265 299c0 -42.667 17.999 -64.001 53.999 -64.001c9.33301 0 17.166 2 23.499 6s11.333 8.66699 15 14s6.33398 10.666 8.00098 15.999s2.5 9.66602 2.5 12.999c0 4.66699 1.66699 7.83398 5 9.50098s6 2.5 8 2.5
c11.333 0 17 -4.66699 17 -14c-1.33301 -20 -8.83301 -37.167 -22.5 -51.5s-33.5 -21.5 -59.5 -21.5c-23.333 0 -42.666 6.83301 -57.999 20.5s-23 36.834 -23 69.501v132c0 33.333 7.83301 56.833 23.5 70.5s34.834 20.5 57.501 20.5c15.333 0 28.333 -2.66699 39 -8
s19.167 -11.666 25.5 -18.999s10.833 -15 13.5 -23s4 -15 4 -21c0 -7.33301 -1.66699 -12 -5 -14s-6.66602 -3 -9.99902 -3c-6.66699 0 -10.667 1.16699 -12 3.5s-2.33301 5.16602 -3 8.49902c-0.666992 4.66699 -1.83398 9.83398 -3.50098 15.501s-4.33398 11 -8.00098 16
s-8.66699 9.16699 -15 12.5s-14.5 5 -24.5 5c-16 0 -28.667 -5.16699 -38 -15.5s-14 -26.5 -14 -48.5v-132z" />
    <glyph glyph-name="ordfeminine" unicode="&#xaa;" horiz-adv-x="384" 
d="M309 629c4 -1.33301 9.66309 -3.33008 16.9961 -5.99707s11 -6.66699 11 -12c0 -4 -2.16699 -9.66699 -6.5 -17l-14 -24.5c-5 -9 -9.66699 -18.333 -14 -28s-6.5 -18.834 -6.5 -27.501c0 -7.33301 1.83301 -14.333 5.5 -21s9.83398 -10 18.501 -10
c12.667 0 29.167 9.16699 49.5 27.5s41.166 46.166 62.499 83.499l7 -7c-7.33301 -19.333 -16.333 -36.833 -27 -52.5s-22.167 -29 -34.5 -40s-25.166 -19.667 -38.499 -26s-26 -9.5 -38 -9.5c-17.333 0 -30.166 5.16699 -38.499 15.5s-12.5 21.5 -12.5 33.5
c0 3.33301 0.166992 6.66602 0.5 9.99902s0.833008 7 1.5 11c-20 -27.333 -38.167 -47.833 -54.5 -61.5s-33.166 -20.5 -50.499 -20.5c-15.333 0 -27.833 4.83301 -37.5 14.5s-14.5 24.5 -14.5 44.5c0 20.667 5.83301 43.5 17.5 68.5s26.834 48.167 45.501 69.5
s39.5 39.333 62.5 54s45.833 22 68.5 22c18 0 33 -4.83301 45 -14.5s18 -22.167 18 -37.5c0 -11.333 -3.16699 -19.166 -9.5 -23.499s-14.5 -6.5 -24.5 -6.5c1.33301 4 2.33301 8.16699 3 12.5s1 8.16602 1 11.499c0 10.667 -2.66699 20 -8 28s-14.333 12 -27 12
c-16.667 0 -33.5 -7.16699 -50.5 -21.5s-32.5 -31.833 -46.5 -52.5s-25.333 -42.5 -34 -65.5s-13 -42.833 -13 -59.5c0 -18 6.33301 -27 19 -27c10.667 0 22.834 5.5 36.501 16.5s27.167 24.5 40.5 40.5s26.166 32.833 38.499 50.5z" />
    <glyph glyph-name="guillemotleft" unicode="&#xab;" horiz-adv-x="436" 
d="M186 316c1.33301 -1.33301 2.49707 -4.50195 3.49707 -9.50195s1.5 -9.16699 1.5 -12.5c0 -13.333 -5.66699 -26.833 -17 -40.5s-25.5 -27 -42.5 -40s-35.333 -25.167 -55 -36.5s-37.834 -21.333 -54.501 -30l31.5 -22.5c9.66699 -7 20.334 -13.833 32.001 -20.5
s25.334 -13.5 41.001 -20.5s34.834 -14.833 57.501 -23.5c-3.33301 -3.33301 -7.33301 -6.83301 -12 -10.5s-10.334 -5.5 -17.001 -5.5c-12 0 -26.5 4 -43.5 12s-33.667 18 -50 30s-30.666 24.5 -42.999 37.5s-19.833 24.5 -22.5 34.5l13 2
c13.333 6.66699 28 15.834 44 27.501s32.167 24.5 48.5 38.5s31.833 28.833 46.5 44.5s27.334 30.834 38.001 45.501zM335.997 315.998c1.33301 -1.33301 2.49707 -4.50195 3.49707 -9.50195s1.5 -9.16699 1.5 -12.5c0 -13.333 -5.66699 -26.833 -17 -40.5
s-25.5 -27 -42.5 -40s-35.333 -25.167 -55 -36.5s-37.834 -21.333 -54.501 -30l31.5 -22.5c9.66699 -7 20.334 -13.833 32.001 -20.5s25.334 -13.5 41.001 -20.5s34.834 -14.833 57.501 -23.5c-3.33301 -3.33301 -7.33301 -6.83301 -12 -10.5s-10.334 -5.5 -17.001 -5.5
c-12 0 -26.5 4 -43.5 12s-33.667 18 -50 30s-30.666 24.5 -42.999 37.5s-19.833 24.5 -22.5 34.5l13 2c13.333 6.66699 28 15.834 44 27.501s32.167 24.5 48.5 38.5s31.833 28.833 46.5 44.5s27.334 30.834 38.001 45.501z" />
    <glyph glyph-name="logicalnot" unicode="&#xac;" horiz-adv-x="668" 
d="M479 33c3.33301 14 5.66504 26.501 6.99805 37.501s2.33301 22.333 3 34s1 24.667 1 39v53.5c-9.33301 -1.33301 -18.166 -2 -26.499 -2h-23.5c-37.333 0 -70.166 -0.166992 -98.499 -0.5s-53.666 -0.5 -75.999 -0.5h-61c-18.333 0 -36.166 -0.333008 -53.499 -1
s-35.333 -1.83398 -54 -3.50098l-63 -5.5c6 10 18 18.167 36 24.5s40.333 11.333 67 15s57 6.16699 91 7.5s70 2 108 2c28 0 55 -0.166992 81 -0.5s50.667 -1.16602 74 -2.49902c1.33301 8.66699 4.16602 17.5 8.49902 26.5s10.833 17.5 19.5 25.5
c0.666992 -5.33301 1.5 -12.666 2.5 -21.999l3.5 -32c17.333 -0.666992 32.666 -1.33398 45.999 -2.00098s24.666 -1.33398 33.999 -2.00098c-12 -5.33301 -24.667 -9.83301 -38 -13.5s-26.666 -6.83398 -39.999 -9.50098c0 -6 0.166992 -12 0.5 -18s0.5 -12 0.5 -18
c0 -34 -3.16699 -63.167 -9.5 -87.5s-19.5 -39.166 -39.5 -44.499z" />
    <glyph glyph-name="uni00AD" unicode="&#xad;" horiz-adv-x="485" 
d="M25 144c4 10 11.498 18.166 22.498 24.499s24.833 11.333 41.5 15s35.667 6.16699 57 7.5s44 2 68 2c36 0 69.333 -1.16699 100 -3.5s53.334 -4.16602 68.001 -5.49902c-7.33301 -5.33301 -15.666 -9.83301 -24.999 -13.5s-21.5 -6.66699 -36.5 -9s-34 -4 -57 -5
s-51.5 -1.5 -85.5 -1.5c-15.333 0 -29 -0.166992 -41 -0.5s-23.833 -0.833008 -35.5 -1.5s-23.5 -1.66699 -35.5 -3s-25.667 -3.33301 -41 -6z" />
    <glyph glyph-name="registered" unicode="&#xae;" 
d="M69 358c0 44.667 7.66699 83.5 23 116.5s35 60.167 59 81.5s50.667 37.333 80 48s58 16 86 16s56.5 -5.33301 85.5 -16s55.333 -26.667 79 -48s42.834 -48.166 57.501 -80.499s22 -70.166 22 -113.499c0 -44.667 -7.66699 -83.5 -23 -116.5s-35 -60.167 -59 -81.5
s-50.667 -37.333 -80 -48s-58 -16 -86 -16s-56.5 5.33301 -85.5 16s-55.333 26.667 -79 48s-42.834 48.166 -57.501 80.499s-22 70.166 -22 113.499zM533 362c0 33.333 -5.16699 64 -15.5 92s-25 52.333 -44 73s-41.833 36.667 -68.5 48s-56 17 -88 17
s-61.333 -5.66699 -88 -17s-49.834 -27.333 -69.501 -48s-35 -45.334 -46 -74.001s-16.5 -60.334 -16.5 -95.001c0 -33.333 5.16699 -64 15.5 -92s25 -52.333 44 -73s41.833 -36.667 68.5 -48s56 -17 88 -17s61.333 5.66699 88 17s49.834 27.333 69.501 48
s35 45.334 46 74.001s16.5 60.334 16.5 95.001zM241 508c0 3.33301 1.33203 6.33301 3.99902 9s6.33398 4 11.001 4h63c23.333 0 43.5 -6 60.5 -18s25.5 -34 25.5 -66c0 -25.333 -5.83301 -44.5 -17.5 -57.5s-25.834 -21.167 -42.501 -24.5l58 -124
c1.33301 -2.66699 2 -5 2 -7c0 -9.33301 -4.66699 -14 -14 -14c-6 0 -11.333 4.16699 -16 12.5s-7.66699 13.833 -9 16.5l-53 114h-41v-129c0 -4.66699 -1.66699 -8.16699 -5 -10.5s-6.66602 -3.5 -9.99902 -3.5c-4 0 -7.66699 1.16699 -11 3.5s-5 5.83301 -5 10.5v284z
M271.999 494v-115.001h47c16.667 0 30 4.5 40 13.5s15 23.833 15 44.5s-5 35.334 -15 44.001s-23.333 13 -40 13h-47z" />
    <glyph glyph-name="degree" unicode="&#xb0;" horiz-adv-x="266" 
d="M204 562c28 0 47.668 -5.16699 59.001 -15.5s17 -23.166 17 -38.499c0 -12 -3.33301 -24.667 -10 -38s-15.834 -25.5 -27.501 -36.5s-25.167 -20 -40.5 -27s-31.333 -10.5 -48 -10.5c-26 0 -44.5 5.16699 -55.5 15.5s-16.5 23.166 -16.5 38.499
c0 12 3.16699 24.5 9.5 37.5s15 25 26 36s23.833 20.167 38.5 27.5s30.667 11 48 11zM204.001 545c-11.333 0 -22.332 -3.16895 -32.999 -9.50195s-20.334 -14.166 -29.001 -23.499s-15.5 -19.5 -20.5 -30.5s-7.5 -21.5 -7.5 -31.5c0 -10.667 3.5 -19.5 10.5 -26.5
s18.5 -10.5 34.5 -10.5c10.667 0 21.5 3.16699 32.5 9.5s20.833 14.333 29.5 24s15.667 20 21 31s8 21.5 8 31.5c0 10.667 -3.5 19.334 -10.5 26.001s-18.833 10 -35.5 10z" />
    <glyph glyph-name="plusminus" unicode="&#xb1;" horiz-adv-x="450" 
d="M177 165c2 12 3.66895 23.332 5.00195 33.999s2.33301 21 3 31s1.16699 20.333 1.5 31s0.5 22.667 0.5 36h-39c-11.333 0 -22.333 -0.333008 -33 -1s-21.667 -1.5 -33 -2.5s-24 -2.5 -38 -4.5c5.33301 14 21.166 23.667 47.499 29s58.166 8.66602 95.499 9.99902v40
c0 11.333 1.5 24.5 4.5 39.5s10.167 29.167 21.5 42.5c1.33301 -11.333 2.83301 -28 4.5 -50s2.83398 -46 3.50098 -72c30.667 -0.666992 59.167 -1.66699 85.5 -3s45.833 -2.66602 58.5 -3.99902c-15.333 -10 -31.333 -16.5 -48 -19.5s-31.667 -4.5 -45 -4.5h-51
c-1.33301 -34 -4.83301 -63.167 -10.5 -87.5s-16.834 -39.166 -33.501 -44.499zM44.002 83.999c6.66699 16 25.832 26.5 57.499 31.5s69.167 7.5 112.5 7.5c32 0 61.833 -0.833008 89.5 -2.5s48.167 -3.16699 61.5 -4.5c-7.33301 -4 -15 -7.5 -23 -10.5
s-17.833 -5.5 -29.5 -7.5s-25.667 -3.33301 -42 -4s-35.833 -1 -58.5 -1c-28 0 -55.667 -0.5 -83 -1.5s-55.666 -3.5 -84.999 -7.5z" />
    <glyph glyph-name="twosuperior" unicode="&#xb2;" horiz-adv-x="355" 
d="M170 557c-12.667 3.33301 -22.165 8.33398 -28.498 15.001s-9.5 17 -9.5 31c0 13.333 2.66699 26.333 8 39s13 23.834 23 33.501s21.833 17.5 35.5 23.5s28.5 9 44.5 9c25.333 0 45.666 -9 60.999 -27s23 -39.667 23 -65c0 -22 -4 -44.833 -12 -68.5
s-18.5 -46.834 -31.5 -69.501s-28 -44 -45 -64s-34.5 -37.333 -52.5 -52l8 -2c17.333 -4 34 -7.66699 50 -11s29.667 -5 41 -5c5.33301 0 11.166 1.16699 17.499 3.5s15.166 7.16602 26.499 14.499c-5.33301 -20 -12.333 -34.667 -21 -44s-20.667 -14 -36 -14
c-13.333 0 -28.666 3 -45.999 9s-34.333 12.667 -51 20l-19 8c-21.333 -14 -40 -21 -56 -21c-11.333 0 -20.5 2.66699 -27.5 8s-10.5 12.333 -10.5 21c0 17.333 13.667 26 41 26c7.33301 0 15.166 -0.666992 23.499 -2s17.5 -3 27.5 -5c14.667 13.333 29.834 30 45.501 50
s29.667 41.5 42 64.5s22.5 46.667 30.5 71s12 47.5 12 69.5c0 24 -4.66699 41.333 -14 52s-21 16 -35 16c-20 0 -35.667 -9.33301 -47 -28s-17 -42 -17 -70c0 -6.66699 0.5 -12.5 1.5 -17.5s2.83301 -11.167 5.5 -18.5h-8zM99.002 338.001
c4.66699 0 9.33203 1.16699 13.999 3.5s10.334 5.5 17.001 9.5c-12 4.66699 -22.333 7 -31 7c-5.33301 0 -9 -1.16699 -11 -3.5s-3 -4.5 -3 -6.5c0 -3.33301 1.5 -5.83301 4.5 -7.5s6.16699 -2.5 9.5 -2.5z" />
    <glyph glyph-name="threesuperior" unicode="&#xb3;" horiz-adv-x="295" 
d="M263 654c0 17.333 -4.16406 29.5039 -12.4971 36.5039s-17.833 10.5 -28.5 10.5c-13.333 0 -25.5 -4.5 -36.5 -13.5s-16.5 -21.833 -16.5 -38.5c0 -9.33301 2.66699 -20.333 8 -33c-2 -4 -5.5 -7.66699 -10.5 -11s-9.5 -5 -13.5 -5
c-7.33301 0 -12.666 4.66699 -15.999 14s-5 18.333 -5 27c0 12 2.83301 22.833 8.5 32.5s13 17.834 22 24.501s19.167 11.667 30.5 15s23 5 35 5c20.667 0 39.167 -5.5 55.5 -16.5s24.5 -27.5 24.5 -49.5c0 -10.667 -2 -21.834 -6 -33.501s-9.66699 -22.834 -17 -33.501
s-16 -20.167 -26 -28.5s-21 -14.5 -33 -18.5c26 -9.33301 44.167 -23.5 54.5 -42.5s15.5 -36.833 15.5 -53.5c0 -16 -3.5 -31.667 -10.5 -47s-16.833 -29 -29.5 -41s-27.5 -21.667 -44.5 -29s-35.5 -11 -55.5 -11c-16 0 -29.333 2.33301 -40 7s-19.334 10.5 -26.001 17.5
s-11.5 14.833 -14.5 23.5s-4.5 17 -4.5 25c0 12.667 3.66699 25 11 37s18.666 18 33.999 18h6c2 0 4.66699 -0.666992 8 -2c-5.33301 -4.66699 -9.5 -11.5 -12.5 -20.5s-4.5 -17.833 -4.5 -26.5c0 -15.333 4.16699 -29 12.5 -41s20.166 -18 35.499 -18
c9.33301 0 18.5 2.66699 27.5 8s17.167 12.666 24.5 21.999s13.333 20.666 18 33.999s7 28 7 44c0 19.333 -4.33301 38 -13 56s-24 29.667 -46 35c12.667 6 24.167 13.667 34.5 23s19.166 19.666 26.499 30.999s13 22.833 17 34.5s6 22.5 6 32.5z" />
    <glyph glyph-name="acute" unicode="&#xb4;" horiz-adv-x="126" 
d="M214 526c-24 -21.333 -45 -41.1689 -63 -59.502s-34.333 -37.166 -49 -56.499c-5.33301 2.66699 -9 6.83398 -11 12.501s-3 10.167 -3 13.5c0 6 3.5 15.667 10.5 29s15.833 26.833 26.5 40.5s22 25.667 34 36s23 15.5 33 15.5c5.33301 0 10 -2.16699 14 -6.5
s6.66699 -12.5 8 -24.5z" />
    <glyph glyph-name="mu" unicode="&#xb5;" horiz-adv-x="585" 
d="M162 327c-14.667 -65.333 -26.3242 -120.002 -34.9912 -164.002s-13 -78.333 -13 -103c0 -33.333 9.66699 -50 29 -50c15.333 0 31.666 10 48.999 30s34.333 44 51 72s32.167 56.833 46.5 86.5l35.5 72.5c2.66699 -0.666992 6.66699 -1.5 12 -2.5
s10.666 -2.5 15.999 -4.5s10 -4.66699 14 -8s6 -7 6 -11c0 -2.66699 -3.5 -11.667 -10.5 -27s-14.667 -33.5 -23 -54.5s-16 -42.667 -23 -65s-10.5 -41.833 -10.5 -58.5c0 -12 2.5 -21.667 7.5 -29s13.5 -11 25.5 -11c10.667 0 23 3.66699 37 11s28.667 17.833 44 31.5
s30.5 30.5 45.5 50.5s28.5 43 40.5 69l13 -9c-10.667 -27.333 -23.834 -52.166 -39.501 -74.499s-32.5 -41.5 -50.5 -57.5s-36.5 -28.5 -55.5 -37.5s-37.5 -13.5 -55.5 -13.5c-26.667 0 -45 7.16699 -55 21.5s-15 31.833 -15 52.5c0 8 0.666992 16.167 2 24.5
s3 16.833 5 25.5c-9.33301 -16.667 -19 -32.5 -29 -47.5s-20.5 -28.167 -31.5 -39.5s-22.333 -20.333 -34 -27s-23.834 -10 -36.501 -10c-16.667 0 -30.667 5.66699 -42 17c-24.667 -87.333 -45.334 -153.666 -62.001 -198.999s-29.667 -68 -39 -68
c-4.66699 0 -8.83398 1.83301 -12.501 5.5s-6.83398 7.66699 -9.50098 12s-4.83398 8.5 -6.50098 12.5s-2.5 6.66699 -2.5 8c8 27.333 16 51.833 24 73.5l24 65.5c8 22 16 45.833 24 71.5s16.167 56 24.5 91s16.5 76.5 24.5 124.5s16 105.333 24 172
c0.666992 6 2 10.333 4 13s7 4 15 4c17.333 0 29.666 -4.83301 36.999 -14.5s11 -20.167 11 -31.5z" />
    <glyph glyph-name="paragraph" unicode="&#xb6;" horiz-adv-x="645" 
d="M482 716c6 0 10.9971 -4.3252 14.9971 -12.9922s7.33301 -20.334 10 -35.001s4.83398 -31.5 6.50098 -50.5s3.16699 -38.833 4.5 -59.5c17.333 -5.33301 33 -10.833 47 -16.5s26 -11.167 36 -16.5c-1.33301 -2.66699 -3.66602 -5.5 -6.99902 -8.5
s-7.33301 -5.83301 -12 -8.5s-9 -5 -13 -7s-7 -3 -9 -3c-3.33301 0 -8.33301 2.16699 -15 6.5s-15.334 9.16602 -26.001 14.499c0.666992 -8.66699 1 -17.334 1 -26.001v-25c0 -156.667 -2 -277.334 -6 -362.001s-7.33301 -132.334 -10 -143.001
c-5.33301 -15.333 -14.333 -27.5 -27 -36.5s-26.334 -13.5 -41.001 -13.5c0.666992 2 1.83398 13.167 3.50098 33.5s3.5 47 5.5 80s4 70.667 6 113s3.83301 86.5 5.5 132.5s3 92.167 4 138.5s1.5 89.833 1.5 130.5v4c-11.333 3.33301 -25 6.66602 -41 9.99902
c0.666992 -12.667 1.16699 -28.5 1.5 -47.5l1 -59.5c0.333008 -20.667 0.5 -41.167 0.5 -61.5v-52.5c0 -112.667 -2.16699 -200.834 -6.5 -264.501s-7.83301 -99.167 -10.5 -106.5s-7.16699 -14 -13.5 -20s-13.666 -11.333 -21.999 -16s-17 -8.16699 -26 -10.5
s-17.833 -3.5 -26.5 -3.5c2.66699 35.333 6 73.666 10 114.999s7.66699 84 11 128c-13.333 0.666992 -29.833 2.16699 -49.5 4.5s-40.167 6 -61.5 11s-42.666 11.833 -63.999 20.5s-40.333 19.5 -57 32.5s-30.334 28.667 -41.001 47s-16 39.833 -16 64.5
c0 37.333 9.83301 70.333 29.5 99s44.667 53.167 75 73.5s63.833 36.333 100.5 48s72 19.167 106 22.5c-1.33301 49.333 -4.33301 92.333 -9 129c10.667 5.33301 20.334 8 29.001 8c11.333 0 19.5 -5 24.5 -15s8.33301 -22.167 10 -36.5s2.5 -29.333 2.5 -45
s0.333008 -29.5 1 -41.5c7.33301 -0.666992 14.333 -1.5 21 -2.5s13.667 -2.16699 21 -3.5c-0.666992 28 -1.5 53.667 -2.5 77s-2.16699 43 -3.5 59c8 5.33301 16.667 8 26 8z" />
    <glyph glyph-name="periodcentered" unicode="&#xb7;" horiz-adv-x="210" 
d="M60 124c-8.66699 0 -16.167 2.16699 -22.5 6.5s-9.5 11.166 -9.5 20.499c0 11.333 6.33301 21 19 29s25.667 12 39 12c8 0 14.333 -1.66699 19 -5s7 -9.66602 7 -18.999c0 -10 -5.33301 -19.833 -16 -29.5s-22.667 -14.5 -36 -14.5z" />
    <glyph glyph-name="cedilla" unicode="&#xb8;" horiz-adv-x="218" 
d="M139 38l-53 -80.999c7.33301 5.33301 16.333 10.666 27 15.999s24 8 40 8c30 0 45 -14 45 -42c0 -14 -3.16699 -27.833 -9.5 -41.5s-14.833 -25.667 -25.5 -36s-23.167 -18.666 -37.5 -24.999s-29.166 -9.5 -44.499 -9.5c-19.333 0 -34.333 3.66699 -45 11
s-16 15.666 -16 24.999c0 11.333 7.33301 22.333 22 33c3.33301 -16 9 -27.5 17 -34.5s16.333 -10.5 25 -10.5c9.33301 0 19 2.83301 29 8.5s19 12.834 27 21.501s14.5 18.167 19.5 28.5s7.5 19.833 7.5 28.5c0 5.33301 -1.16699 10.833 -3.5 16.5s-6.83301 8.5 -13.5 8.5
s-14.334 -2.16699 -23.001 -6.5s-17 -9 -25 -14l-22.5 -14c-7 -4.33301 -11.833 -6.5 -14.5 -6.5c-4.66699 0 -8.16699 2.16699 -10.5 6.5s-3.5 8.16602 -3.5 11.499c0 0.666992 2 4 6 10l14.5 21c5.66699 8 11.5 15.667 17.5 23s11 13 15 17z" />
    <glyph glyph-name="onesuperior" unicode="&#xb9;" horiz-adv-x="260" 
d="M240 717c2 -2 3.33301 -4.49805 4 -7.49805s1 -5.83301 1 -8.5c0 -5.33301 -0.666992 -10.833 -2 -16.5l-4 -16.5c-2 -8 -4.33301 -18.833 -7 -32.5l-9 -45l-10.5 -51.5l-10.5 -51l-13 -62c-4 -18.667 -8 -34.5 -12 -47.5s-9.33301 -23.5 -16 -31.5
c3.33301 0.666992 7.66602 1 12.999 1c13.333 0 24.666 -2 33.999 -6s15.333 -12.667 18 -26c-6.66699 0.666992 -13.834 1.16699 -21.501 1.5s-14.834 0.5 -21.501 0.5c-17.333 0 -32.166 -0.666992 -44.499 -2s-25.5 -2 -39.5 -2c-6.66699 0 -14.167 2 -22.5 6
s-15.166 10 -20.499 18h12c1.33301 0 2.83301 -0.166992 4.5 -0.5s3.16699 -0.5 4.5 -0.5c14.667 0 31.334 1.66699 50.001 5c8 17.333 15.167 39.666 21.5 66.999s12.166 55.5 17.499 84.5l15 83c4.66699 26.333 9.33398 47.5 14.001 63.5
c-16 -10.667 -27.667 -17.667 -35 -21s-12.666 -5 -15.999 -5c-5.33301 0 -9.16602 1.16699 -11.499 3.5s-3.5 7.16602 -3.5 14.499c4 2 10.167 5.83301 18.5 11.5s17.333 12.334 27 20.001s19.667 16.167 30 25.5s20.166 18.666 29.499 27.999h6z" />
    <glyph glyph-name="ordmasculine" unicode="&#xba;" horiz-adv-x="280" 
d="M345 578c-3.33301 -5.33301 -8.83008 -10 -16.4971 -14s-15.834 -6 -24.501 -6c-12.667 0 -21.334 4.33301 -26.001 13c-15.333 -34.667 -33.833 -63.167 -55.5 -85.5s-44.834 -33.5 -69.501 -33.5c-17.333 0 -31 5.66699 -41 17s-15 25.666 -15 42.999
c0 18.667 4.83301 40 14.5 64s22.5 46.667 38.5 68s34.167 39.333 54.5 54s41.166 22 62.499 22c15.333 0 25.333 -4.66699 30 -14c10.667 0 18.167 -3.16699 22.5 -9.5s6.5 -12.166 6.5 -17.499c0 -4 -1.5 -9.16699 -4.5 -15.5l-9.5 -21
c-3.33301 -7.66699 -6.5 -15.834 -9.5 -24.501s-4.5 -17.667 -4.5 -27c0 -6.66699 2 -11 6 -13s8.66699 -3 14 -3c4.66699 0 9.33398 0.333008 14.001 1s9 1.33398 13 2.00098zM169.003 482c8 0 16.499 2.83301 25.499 8.5s18 13.167 27 22.5s17.667 20.5 26 33.5
s15.5 27.167 21.5 42.5c-2.66699 10.667 -4 24 -4 40s1.16699 29.167 3.5 39.5s5.5 18.5 9.5 24.5c-20 0 -38.333 -6.66699 -55 -20s-31 -29.333 -43 -48s-21.333 -38 -28 -58s-10 -36.667 -10 -50c0 -10.667 2.33301 -19.167 7 -25.5s11.334 -9.5 20.001 -9.5z" />
    <glyph glyph-name="guillemotright" unicode="&#xbb;" horiz-adv-x="455" 
d="M46 316c10.667 -14.667 23.3311 -29.832 37.998 -45.499s30.167 -30.5 46.5 -44.5s32.5 -26.833 48.5 -38.5s30.667 -20.834 44 -27.501l13 -2c-2.66699 -10 -10.167 -21.5 -22.5 -34.5s-26.666 -25.5 -42.999 -37.5s-33 -22 -50 -30s-31.5 -12 -43.5 -12
c-6.66699 0 -12.334 1.83301 -17.001 5.5s-8.66699 7.16699 -12 10.5c22.667 8.66699 41.834 16.5 57.501 23.5s29.334 13.833 41.001 20.5s22.334 13.5 32.001 20.5l31.5 22.5c-16.667 8.66699 -34.834 18.667 -54.501 30s-38 23.5 -55 36.5s-31.167 26.333 -42.5 40
s-17 27.167 -17 40.5c0 3.33301 0.5 7.5 1.5 12.5s2.16699 8.16699 3.5 9.5zM195.997 316.002c10.667 -14.667 23.3311 -29.832 37.998 -45.499s30.167 -30.5 46.5 -44.5s32.5 -26.833 48.5 -38.5s30.667 -20.834 44 -27.501l13 -2c-2.66699 -10 -10.167 -21.5 -22.5 -34.5
s-26.666 -25.5 -42.999 -37.5s-33 -22 -50 -30s-31.5 -12 -43.5 -12c-6.66699 0 -12.334 1.83301 -17.001 5.5s-8.66699 7.16699 -12 10.5c22.667 8.66699 41.834 16.5 57.501 23.5s29.334 13.833 41.001 20.5s22.334 13.5 32.001 20.5l31.5 22.5
c-16.667 8.66699 -34.834 18.667 -54.501 30s-38 23.5 -55 36.5s-31.167 26.333 -42.5 40s-17 27.167 -17 40.5c0 3.33301 0.5 7.5 1.5 12.5s2.16699 8.16699 3.5 9.5z" />
    <glyph glyph-name="onequarter" unicode="&#xbc;" horiz-adv-x="643" 
d="M549 720c-3.33301 -9.33301 -12 -27.9971 -26 -55.9971l-50 -100l-64.5 -125l-70 -131.5l-66 -120.5c-21 -37.333 -38.5 -67.333 -52.5 -90c-34.667 -55.333 -67 -99.833 -97 -133.5s-59.333 -50.5 -88 -50.5c15.333 15.333 35 40.666 59 75.999s50 76 78 122l86.5 148.5
l84.5 156.5c26.667 51.333 50.667 99.666 72 144.999s38 83.333 50 114c2 4.66699 6 9.66699 12 15s13 10.166 21 14.499s16.5 8 25.5 11s17.5 4.5 25.5 4.5zM240 717.003c2 -2 3.33301 -4.49805 4 -7.49805s1 -5.83301 1 -8.5c0 -5.33301 -0.666992 -10.833 -2 -16.5
l-4 -16.5c-2 -8 -4.33301 -18.833 -7 -32.5l-9 -45l-10.5 -51.5l-10.5 -51l-13 -62c-4 -18.667 -8 -34.5 -12 -47.5s-9.33301 -23.5 -16 -31.5c3.33301 0.666992 7.66602 1 12.999 1c13.333 0 24.666 -2 33.999 -6s15.333 -12.667 18 -26
c-6.66699 0.666992 -13.834 1.16699 -21.501 1.5s-14.834 0.5 -21.501 0.5c-17.333 0 -32.166 -0.666992 -44.499 -2s-25.5 -2 -39.5 -2c-6.66699 0 -14.167 2 -22.5 6s-15.166 10 -20.499 18h12c1.33301 0 2.83301 -0.166992 4.5 -0.5s3.16699 -0.5 4.5 -0.5
c14.667 0 31.334 1.66699 50.001 5c8 17.333 15.167 39.666 21.5 66.999s12.166 55.5 17.499 84.5l15 83c4.66699 26.333 9.33398 47.5 14.001 63.5c-16 -10.667 -27.667 -17.667 -35 -21s-12.666 -5 -15.999 -5c-5.33301 0 -9.16602 1.16699 -11.499 3.5
s-3.5 7.16602 -3.5 14.499c4 2 10.167 5.83301 18.5 11.5s17.333 12.334 27 20.001s19.667 16.167 30 25.5s20.166 18.666 29.499 27.999h6zM559 377.005c8.66699 -1.33301 13.002 -6.00293 13.002 -14.0029c0 -2 -1.16699 -7 -3.5 -15s-5.5 -19.833 -9.5 -35.5
s-8.83301 -35.667 -14.5 -60s-11.834 -53.833 -18.501 -88.5h17c5.33301 0 10.833 0.5 16.5 1.5l19.5 3.5c-7.33301 -10.667 -15.833 -19.167 -25.5 -25.5s-18.167 -9.5 -25.5 -9.5h-7c-1.33301 -5.33301 -3 -14.666 -5 -27.999s-4.33301 -28 -7 -44
s-4.83398 -32.167 -6.50098 -48.5s-2.5 -29.5 -2.5 -39.5c-14.667 1.33301 -26.334 4 -35.001 8s-13 10 -13 18c0 0.666992 0.333008 3.33398 1 8.00098s1.83398 12.167 3.50098 22.5s4.16699 23.833 7.5 40.5l13 63c-3.33301 0 -6.5 0.166992 -9.5 0.5
s-6.16699 0.5 -9.5 0.5h-17c-21.333 0 -40.166 -0.666992 -56.499 -2s-31.166 -3.66602 -44.499 -6.99902c0 6 1 11 3 15s4.33301 7.33301 7 10l52.5 46.5c19.667 17.667 39.167 36.5 58.5 56.5s37.666 40.5 54.999 61.5s31.666 41.5 42.999 61.5zM490.002 189.002
c3.33301 17.333 6.66797 33.167 10.001 47.5s7.33301 28.5 12 42.5l-44 -43l-36.5 -35c-13 -12 -25.167 -24 -36.5 -36c6 0.666992 12.5 1.16699 19.5 1.5s14.833 0.5 23.5 0.5c5.33301 0 10.166 -0.166992 14.499 -0.5s8.83301 -0.5 13.5 -0.5h19z" />
    <glyph glyph-name="onehalf" unicode="&#xbd;" horiz-adv-x="699" 
d="M555 720c-3.33301 -9.33301 -12 -27.9971 -26 -55.9971l-50 -100l-64.5 -125l-70 -131.5l-66 -120.5c-21 -37.333 -38.5 -67.333 -52.5 -90c-34.667 -55.333 -67 -99.833 -97 -133.5s-59.333 -50.5 -88 -50.5c15.333 15.333 35 40.666 59 75.999s50 76 78 122l86.5 148.5
l84.5 156.5c26.667 51.333 50.667 99.666 72 144.999s38 83.333 50 114c2 4.66699 6 9.66699 12 15s13 10.166 21 14.499s16.5 8 25.5 11s17.5 4.5 25.5 4.5zM246 717.003c2 -2 3.33301 -4.49805 4 -7.49805s1 -5.83301 1 -8.5c0 -5.33301 -0.666992 -10.833 -2 -16.5
l-4 -16.5c-2 -8 -4.33301 -18.833 -7 -32.5l-9 -45l-10.5 -51.5l-10.5 -51l-13 -62c-4 -18.667 -8 -34.5 -12 -47.5s-9.33301 -23.5 -16 -31.5c3.33301 0.666992 7.66602 1 12.999 1c13.333 0 24.666 -2 33.999 -6s15.333 -12.667 18 -26
c-6.66699 0.666992 -13.834 1.16699 -21.501 1.5s-14.834 0.5 -21.501 0.5c-17.333 0 -32.166 -0.666992 -44.499 -2s-25.5 -2 -39.5 -2c-6.66699 0 -14.167 2 -22.5 6s-15.166 10 -20.499 18h12c1.33301 0 2.83301 -0.166992 4.5 -0.5s3.16699 -0.5 4.5 -0.5
c14.667 0 31.334 1.66699 50.001 5c8 17.333 15.167 39.666 21.5 66.999s12.166 55.5 17.499 84.5l15 83c4.66699 26.333 9.33398 47.5 14.001 63.5c-16 -10.667 -27.667 -17.667 -35 -21s-12.666 -5 -15.999 -5c-5.33301 0 -9.16602 1.16699 -11.499 3.5
s-3.5 7.16602 -3.5 14.499c4 2 10.167 5.83301 18.5 11.5s17.333 12.334 27 20.001s19.667 16.167 30 25.5s20.166 18.666 29.499 27.999h6zM443 227.005c-12.667 3.33301 -22.165 8.33398 -28.498 15.001s-9.5 17 -9.5 31c0 13.333 2.66699 26.333 8 39
s13 23.834 23 33.501s21.833 17.5 35.5 23.5s28.5 9 44.5 9c25.333 0 45.666 -9 60.999 -27s23 -39.667 23 -65c0 -22 -4 -44.833 -12 -68.5s-18.5 -46.834 -31.5 -69.501s-28 -44 -45 -64s-34.5 -37.333 -52.5 -52l8 -2c17.333 -4 34 -7.66699 50 -11s29.667 -5 41 -5
c5.33301 0 11.166 1.16699 17.499 3.5s15.166 7.16602 26.499 14.499c-5.33301 -20 -12.333 -34.667 -21 -44s-20.667 -14 -36 -14c-13.333 0 -28.666 3 -45.999 9s-34.333 12.667 -51 20l-19 8c-21.333 -14 -40 -21 -56 -21c-11.333 0 -20.5 2.66699 -27.5 8
s-10.5 12.333 -10.5 21c0 17.333 13.667 26 41 26c7.33301 0 15.166 -0.666992 23.499 -2s17.5 -3 27.5 -5c14.667 13.333 29.834 30 45.501 50s29.667 41.5 42 64.5s22.5 46.667 30.5 71s12 47.5 12 69.5c0 24 -4.66699 41.333 -14 52s-21 16 -35 16
c-20 0 -35.667 -9.33301 -47 -28s-17 -42 -17 -70c0 -6.66699 0.5 -12.5 1.5 -17.5s2.83301 -11.167 5.5 -18.5h-8zM372.002 8.00586c4.66699 0 9.33203 1.16699 13.999 3.5s10.334 5.5 17.001 9.5c-12 4.66699 -22.333 7 -31 7c-5.33301 0 -9 -1.16699 -11 -3.5
s-3 -4.5 -3 -6.5c0 -3.33301 1.5 -5.83301 4.5 -7.5s6.16699 -2.5 9.5 -2.5z" />
    <glyph glyph-name="threequarters" unicode="&#xbe;" horiz-adv-x="686" 
d="M592 720c-3.33301 -9.33301 -12 -27.9971 -26 -55.9971l-50 -100l-64.5 -125l-70 -131.5l-66 -120.5c-21 -37.333 -38.5 -67.333 -52.5 -90c-34.667 -55.333 -67 -99.833 -97 -133.5s-59.333 -50.5 -88 -50.5c15.333 15.333 35 40.666 59 75.999s50 76 78 122l86.5 148.5
l84.5 156.5c26.667 51.333 50.667 99.666 72 144.999s38 83.333 50 114c2 4.66699 6 9.66699 12 15s13 10.166 21 14.499s16.5 8 25.5 11s17.5 4.5 25.5 4.5zM602 377.003c8.66699 -1.33301 13.002 -6.00293 13.002 -14.0029c0 -2 -1.16699 -7 -3.5 -15
s-5.5 -19.833 -9.5 -35.5s-8.83301 -35.667 -14.5 -60s-11.834 -53.833 -18.501 -88.5h17c5.33301 0 10.833 0.5 16.5 1.5l19.5 3.5c-7.33301 -10.667 -15.833 -19.167 -25.5 -25.5s-18.167 -9.5 -25.5 -9.5h-7c-1.33301 -5.33301 -3 -14.666 -5 -27.999
s-4.33301 -28 -7 -44s-4.83398 -32.167 -6.50098 -48.5s-2.5 -29.5 -2.5 -39.5c-14.667 1.33301 -26.334 4 -35.001 8s-13 10 -13 18c0 0.666992 0.333008 3.33398 1 8.00098s1.83398 12.167 3.50098 22.5s4.16699 23.833 7.5 40.5l13 63c-3.33301 0 -6.5 0.166992 -9.5 0.5
s-6.16699 0.5 -9.5 0.5h-17c-21.333 0 -40.166 -0.666992 -56.499 -2s-31.166 -3.66602 -44.499 -6.99902c0 6 1 11 3 15s4.33301 7.33301 7 10l52.5 46.5c19.667 17.667 39.167 36.5 58.5 56.5s37.666 40.5 54.999 61.5s31.666 41.5 42.999 61.5zM533.002 189
c3.33301 17.333 6.66797 33.167 10.001 47.5s7.33301 28.5 12 42.5l-44 -43l-36.5 -35c-13 -12 -25.167 -24 -36.5 -36c6 0.666992 12.5 1.16699 19.5 1.5s14.833 0.5 23.5 0.5c5.33301 0 10.166 -0.166992 14.499 -0.5s8.83301 -0.5 13.5 -0.5h19zM265.004 654.001
c0 17.333 -4.16406 29.5039 -12.4971 36.5039s-17.833 10.5 -28.5 10.5c-13.333 0 -25.5 -4.5 -36.5 -13.5s-16.5 -21.833 -16.5 -38.5c0 -9.33301 2.66699 -20.333 8 -33c-2 -4 -5.5 -7.66699 -10.5 -11s-9.5 -5 -13.5 -5c-7.33301 0 -12.666 4.66699 -15.999 14
s-5 18.333 -5 27c0 12 2.83301 22.833 8.5 32.5s13 17.834 22 24.501s19.167 11.667 30.5 15s23 5 35 5c20.667 0 39.167 -5.5 55.5 -16.5s24.5 -27.5 24.5 -49.5c0 -10.667 -2 -21.834 -6 -33.501s-9.66699 -22.834 -17 -33.501s-16 -20.167 -26 -28.5s-21 -14.5 -33 -18.5
c26 -9.33301 44.167 -23.5 54.5 -42.5s15.5 -36.833 15.5 -53.5c0 -16 -3.5 -31.667 -10.5 -47s-16.833 -29 -29.5 -41s-27.5 -21.667 -44.5 -29s-35.5 -11 -55.5 -11c-16 0 -29.333 2.33301 -40 7s-19.334 10.5 -26.001 17.5s-11.5 14.833 -14.5 23.5s-4.5 17 -4.5 25
c0 12.667 3.66699 25 11 37s18.666 18 33.999 18h6c2 0 4.66699 -0.666992 8 -2c-5.33301 -4.66699 -9.5 -11.5 -12.5 -20.5s-4.5 -17.833 -4.5 -26.5c0 -15.333 4.16699 -29 12.5 -41s20.166 -18 35.499 -18c9.33301 0 18.5 2.66699 27.5 8s17.167 12.666 24.5 21.999
s13.333 20.666 18 33.999s7 28 7 44c0 19.333 -4.33301 38 -13 56s-24 29.667 -46 35c12.667 6 24.167 13.667 34.5 23s19.166 19.666 26.499 30.999s13 22.833 17 34.5s6 22.5 6 32.5z" />
    <glyph glyph-name="questiondown" unicode="&#xbf;" horiz-adv-x="416" 
d="M-60 -161c0 22 3.83105 41.8301 11.498 59.4971s17.5 34.334 29.5 50.001s25.333 30.834 40 45.501l44 46c14.667 16 28.167 33.167 40.5 51.5s22.166 39.166 29.499 62.499c6.66699 20.667 10.667 39 12 55s5.66602 31.667 12.999 47c13.333 -6 21.833 -11.667 25.5 -17
s5.5 -13.666 5.5 -24.999c0 -24 -4.66699 -46 -14 -66s-21.166 -39.167 -35.499 -57.5s-29.666 -36.333 -45.999 -54s-31.666 -36.167 -45.999 -55.5s-26.166 -39.833 -35.499 -61.5s-14 -45.834 -14 -72.501c0 -34 7.5 -59.5 22.5 -76.5s33.833 -25.5 56.5 -25.5
c17.333 0 35 5 53 15s34.167 23.667 48.5 41s26.166 37.5 35.499 60.5s14 47.833 14 74.5c0 10 -0.666992 18.833 -2 26.5s-3 15.834 -5 24.501c25.333 -3.33301 42 -11.166 50 -23.499s12 -27.5 12 -45.5c0 -25.333 -5.16699 -50 -15.5 -74s-24.666 -45.167 -42.999 -63.5
s-40.5 -33 -66.5 -44s-54.333 -16.5 -85 -16.5c-42 0 -75 10.167 -99 30.5s-36 49.833 -36 88.5zM197.998 389.997c8.66699 0 16.167 -2.16699 22.5 -6.5s9.5 -10.833 9.5 -19.5c0 -12 -6.33301 -22 -19 -30s-25.667 -12 -39 -12c-17.333 0 -26 7.33301 -26 22
c0 11.333 5.33301 21.833 16 31.5s22.667 14.5 36 14.5z" />
    <glyph glyph-name="Agrave" unicode="&#xc0;" 
d="M-8 283c7.33301 19.333 20.167 32.8291 38.5 40.4961s40.166 11.5 65.499 11.5c11.333 0 22.833 -0.666992 34.5 -2s24.167 -3 37.5 -5l78 113l77.5 104.5c25 32.333 48.5 61.166 70.5 86.499s40.667 45.333 56 60c19.333 18.667 35.333 28 48 28
c14 0 31.667 -10.667 53 -32c-6.66699 -5.33301 -15.167 -19.666 -25.5 -42.999s-21.333 -52.166 -33 -86.499s-23.167 -72.333 -34.5 -114s-21.666 -83.667 -30.999 -126s-17 -83 -23 -122s-9 -73.167 -9 -102.5c0 -25.333 2.83301 -45 8.5 -59s15.167 -21 28.5 -21
c17.333 0 37 12 59 36s46 61.333 72 112l10 -10c-10 -26.667 -21.5 -51.167 -34.5 -73.5s-27 -41.5 -42 -57.5s-30.667 -28.5 -47 -37.5s-32.833 -13.5 -49.5 -13.5c-28 0 -48 12.167 -60 36.5s-18 56.833 -18 97.5c0 42.667 5.66699 92.334 17 149.001
c-30 4.66699 -57 8.5 -81 11.5l-67 8.5c-32 -58.667 -62.667 -118.5 -92 -179.5s-56.666 -121.167 -81.999 -180.5c-15.333 8.66699 -24.833 17.834 -28.5 27.501s-5.5 17.834 -5.5 24.501c0 14 4 31.833 12 53.5s18.833 46.167 32.5 73.5s29.667 56.833 48 88.5
s38.166 64.167 59.499 97.5c-24.667 2 -45.667 3.33301 -63 4s-32.333 1 -45 1h-35zM466.001 656.996c-15.333 -9.33301 -32.667 -24.5 -52 -45.5s-39.666 -46.167 -60.999 -75.5s-43.5 -62.5 -66.5 -99.5l-69.5 -117.5l67 -16l62 -15c7.33301 32.667 15.833 66 25.5 100
s19.667 67.167 30 99.5s21.166 62.833 32.499 91.5zM435 863.996c1.33301 12 4 20.1699 8 24.5029s8.66699 6.5 14 6.5c10 0 21 -5.16699 33 -15.5s23.333 -22.333 34 -36s19.5 -27.167 26.5 -40.5s10.5 -23 10.5 -29c0 -3.33301 -1 -7.83301 -3 -13.5
s-5.66699 -9.83398 -11 -12.501c-14.667 19.333 -31 38.166 -49 56.499s-39 38.166 -63 59.499z" />
    <glyph glyph-name="Aacute" unicode="&#xc1;" 
d="M-8 283c7.33301 19.333 20.167 32.8291 38.5 40.4961s40.166 11.5 65.499 11.5c11.333 0 22.833 -0.666992 34.5 -2s24.167 -3 37.5 -5l78 113l77.5 104.5c25 32.333 48.5 61.166 70.5 86.499s40.667 45.333 56 60c19.333 18.667 35.333 28 48 28
c14 0 31.667 -10.667 53 -32c-6.66699 -5.33301 -15.167 -19.666 -25.5 -42.999s-21.333 -52.166 -33 -86.499s-23.167 -72.333 -34.5 -114s-21.666 -83.667 -30.999 -126s-17 -83 -23 -122s-9 -73.167 -9 -102.5c0 -25.333 2.83301 -45 8.5 -59s15.167 -21 28.5 -21
c17.333 0 37 12 59 36s46 61.333 72 112l10 -10c-10 -26.667 -21.5 -51.167 -34.5 -73.5s-27 -41.5 -42 -57.5s-30.667 -28.5 -47 -37.5s-32.833 -13.5 -49.5 -13.5c-28 0 -48 12.167 -60 36.5s-18 56.833 -18 97.5c0 42.667 5.66699 92.334 17 149.001
c-30 4.66699 -57 8.5 -81 11.5l-67 8.5c-32 -58.667 -62.667 -118.5 -92 -179.5s-56.666 -121.167 -81.999 -180.5c-15.333 8.66699 -24.833 17.834 -28.5 27.501s-5.5 17.834 -5.5 24.501c0 14 4 31.833 12 53.5s18.833 46.167 32.5 73.5s29.667 56.833 48 88.5
s38.166 64.167 59.499 97.5c-24.667 2 -45.667 3.33301 -63 4s-32.333 1 -45 1h-35zM466.001 656.996c-15.333 -9.33301 -32.667 -24.5 -52 -45.5s-39.666 -46.167 -60.999 -75.5s-43.5 -62.5 -66.5 -99.5l-69.5 -117.5l67 -16l62 -15c7.33301 32.667 15.833 66 25.5 100
s19.667 67.167 30 99.5s21.166 62.833 32.499 91.5zM642 863.996c-24 -21.333 -45 -41.1689 -63 -59.502s-34.333 -37.166 -49 -56.499c-5.33301 2.66699 -9 6.83398 -11 12.501s-3 10.167 -3 13.5c0 6 3.5 15.667 10.5 29s15.833 26.833 26.5 40.5s22 25.667 34 36
s23 15.5 33 15.5c5.33301 0 10 -2.16699 14 -6.5s6.66699 -12.5 8 -24.5z" />
    <glyph glyph-name="Acircumflex" unicode="&#xc2;" 
d="M-8 283c7.33301 19.333 20.167 32.8291 38.5 40.4961s40.166 11.5 65.499 11.5c11.333 0 22.833 -0.666992 34.5 -2s24.167 -3 37.5 -5l78 113l77.5 104.5c25 32.333 48.5 61.166 70.5 86.499s40.667 45.333 56 60c19.333 18.667 35.333 28 48 28
c14 0 31.667 -10.667 53 -32c-6.66699 -5.33301 -15.167 -19.666 -25.5 -42.999s-21.333 -52.166 -33 -86.499s-23.167 -72.333 -34.5 -114s-21.666 -83.667 -30.999 -126s-17 -83 -23 -122s-9 -73.167 -9 -102.5c0 -25.333 2.83301 -45 8.5 -59s15.167 -21 28.5 -21
c17.333 0 37 12 59 36s46 61.333 72 112l10 -10c-10 -26.667 -21.5 -51.167 -34.5 -73.5s-27 -41.5 -42 -57.5s-30.667 -28.5 -47 -37.5s-32.833 -13.5 -49.5 -13.5c-28 0 -48 12.167 -60 36.5s-18 56.833 -18 97.5c0 42.667 5.66699 92.334 17 149.001
c-30 4.66699 -57 8.5 -81 11.5l-67 8.5c-32 -58.667 -62.667 -118.5 -92 -179.5s-56.666 -121.167 -81.999 -180.5c-15.333 8.66699 -24.833 17.834 -28.5 27.501s-5.5 17.834 -5.5 24.501c0 14 4 31.833 12 53.5s18.833 46.167 32.5 73.5s29.667 56.833 48 88.5
s38.166 64.167 59.499 97.5c-24.667 2 -45.667 3.33301 -63 4s-32.333 1 -45 1h-35zM466.001 656.996c-15.333 -9.33301 -32.667 -24.5 -52 -45.5s-39.666 -46.167 -60.999 -75.5s-43.5 -62.5 -66.5 -99.5l-69.5 -117.5l67 -16l62 -15c7.33301 32.667 15.833 66 25.5 100
s19.667 67.167 30 99.5s21.166 62.833 32.499 91.5zM428 778.996c-4 2.66699 -6.66797 5.66992 -8.00098 9.00293s-2 6.66602 -2 9.99902c0 10 4.66699 20.167 14 30.5s20.333 19.666 33 27.999s25.334 15.333 38.001 21s22.334 8.5 29.001 8.5
c8 0 17.167 -3.83301 27.5 -11.5s20.166 -17 29.499 -28s17.166 -23 23.499 -36s9.5 -24.833 9.5 -35.5c0 -6.66699 -1.33301 -12.667 -4 -18s-7 -9.66602 -13 -12.999c-9.33301 19.333 -20 35.666 -32 48.999s-26 27.666 -42 42.999
c-20.667 -7.33301 -39.167 -15.333 -55.5 -24s-32.166 -19.667 -47.499 -33z" />
    <glyph glyph-name="Atilde" unicode="&#xc3;" 
d="M-8 283c7.33301 19.333 20.167 32.8291 38.5 40.4961s40.166 11.5 65.499 11.5c11.333 0 22.833 -0.666992 34.5 -2s24.167 -3 37.5 -5l78 113l77.5 104.5c25 32.333 48.5 61.166 70.5 86.499s40.667 45.333 56 60c19.333 18.667 35.333 28 48 28
c14 0 31.667 -10.667 53 -32c-6.66699 -5.33301 -15.167 -19.666 -25.5 -42.999s-21.333 -52.166 -33 -86.499s-23.167 -72.333 -34.5 -114s-21.666 -83.667 -30.999 -126s-17 -83 -23 -122s-9 -73.167 -9 -102.5c0 -25.333 2.83301 -45 8.5 -59s15.167 -21 28.5 -21
c17.333 0 37 12 59 36s46 61.333 72 112l10 -10c-10 -26.667 -21.5 -51.167 -34.5 -73.5s-27 -41.5 -42 -57.5s-30.667 -28.5 -47 -37.5s-32.833 -13.5 -49.5 -13.5c-28 0 -48 12.167 -60 36.5s-18 56.833 -18 97.5c0 42.667 5.66699 92.334 17 149.001
c-30 4.66699 -57 8.5 -81 11.5l-67 8.5c-32 -58.667 -62.667 -118.5 -92 -179.5s-56.666 -121.167 -81.999 -180.5c-15.333 8.66699 -24.833 17.834 -28.5 27.501s-5.5 17.834 -5.5 24.501c0 14 4 31.833 12 53.5s18.833 46.167 32.5 73.5s29.667 56.833 48 88.5
s38.166 64.167 59.499 97.5c-24.667 2 -45.667 3.33301 -63 4s-32.333 1 -45 1h-35zM466.001 656.996c-15.333 -9.33301 -32.667 -24.5 -52 -45.5s-39.666 -46.167 -60.999 -75.5s-43.5 -62.5 -66.5 -99.5l-69.5 -117.5l67 -16l62 -15c7.33301 32.667 15.833 66 25.5 100
s19.667 67.167 30 99.5s21.166 62.833 32.499 91.5zM373 758.996c13.333 17.333 26.667 29.332 40 35.999s27.666 10 42.999 10c14 0 28.5 -2.33301 43.5 -7l46.5 -15c16 -5.33301 32.667 -10.333 50 -15s35.333 -7 54 -7c10 0 20 1 30 3
c-12 -13.333 -24.5 -22.666 -37.5 -27.999s-26.5 -8 -40.5 -8s-28.5 2 -43.5 6s-30.167 8.5 -45.5 13.5s-30.833 9.5 -46.5 13.5s-31.5 6 -47.5 6c-17.333 0 -32.666 -2.66699 -45.999 -8z" />
    <glyph glyph-name="Adieresis" unicode="&#xc4;" 
d="M-8 283c7.33301 19.333 20.167 32.8291 38.5 40.4961s40.166 11.5 65.499 11.5c11.333 0 22.833 -0.666992 34.5 -2s24.167 -3 37.5 -5l78 113l77.5 104.5c25 32.333 48.5 61.166 70.5 86.499s40.667 45.333 56 60c19.333 18.667 35.333 28 48 28
c14 0 31.667 -10.667 53 -32c-6.66699 -5.33301 -15.167 -19.666 -25.5 -42.999s-21.333 -52.166 -33 -86.499s-23.167 -72.333 -34.5 -114s-21.666 -83.667 -30.999 -126s-17 -83 -23 -122s-9 -73.167 -9 -102.5c0 -25.333 2.83301 -45 8.5 -59s15.167 -21 28.5 -21
c17.333 0 37 12 59 36s46 61.333 72 112l10 -10c-10 -26.667 -21.5 -51.167 -34.5 -73.5s-27 -41.5 -42 -57.5s-30.667 -28.5 -47 -37.5s-32.833 -13.5 -49.5 -13.5c-28 0 -48 12.167 -60 36.5s-18 56.833 -18 97.5c0 42.667 5.66699 92.334 17 149.001
c-30 4.66699 -57 8.5 -81 11.5l-67 8.5c-32 -58.667 -62.667 -118.5 -92 -179.5s-56.666 -121.167 -81.999 -180.5c-15.333 8.66699 -24.833 17.834 -28.5 27.501s-5.5 17.834 -5.5 24.501c0 14 4 31.833 12 53.5s18.833 46.167 32.5 73.5s29.667 56.833 48 88.5
s38.166 64.167 59.499 97.5c-24.667 2 -45.667 3.33301 -63 4s-32.333 1 -45 1h-35zM466.001 656.996c-15.333 -9.33301 -32.667 -24.5 -52 -45.5s-39.666 -46.167 -60.999 -75.5s-43.5 -62.5 -66.5 -99.5l-69.5 -117.5l67 -16l62 -15c7.33301 32.667 15.833 66 25.5 100
s19.667 67.167 30 99.5s21.166 62.833 32.499 91.5zM448 773.996c-10 0 -18.667 2.33301 -26 7s-11 12.334 -11 23.001c0 6 2 11.833 6 17.5s9.33301 10.667 16 15s13.834 7.83301 21.501 10.5s15.167 4 22.5 4c9.33301 0 16.666 -2 21.999 -6s8 -11.333 8 -22
c0 -6 -1.66699 -11.833 -5 -17.5s-7.83301 -10.834 -13.5 -15.501s-12 -8.5 -19 -11.5s-14.167 -4.5 -21.5 -4.5zM592 752.996c-10 0 -18.667 2.33301 -26 7s-11 12.334 -11 23.001c0 6 2 11.833 6 17.5s9.33301 10.667 16 15s13.834 7.83301 21.501 10.5s15.167 4 22.5 4
c9.33301 0 16.666 -2 21.999 -6s8 -11.333 8 -22c0 -6 -1.66699 -11.833 -5 -17.5s-7.83301 -10.834 -13.5 -15.501s-12 -8.5 -19 -11.5s-14.167 -4.5 -21.5 -4.5z" />
    <glyph glyph-name="Aring" unicode="&#xc5;" 
d="M-8 283c7.33301 19.333 20.167 32.8291 38.5 40.4961s40.166 11.5 65.499 11.5c11.333 0 22.833 -0.666992 34.5 -2s24.167 -3 37.5 -5l78 113l77.5 104.5c25 32.333 48.5 61.166 70.5 86.499s40.667 45.333 56 60c19.333 18.667 35.333 28 48 28
c14 0 31.667 -10.667 53 -32c-6.66699 -5.33301 -15.167 -19.666 -25.5 -42.999s-21.333 -52.166 -33 -86.499s-23.167 -72.333 -34.5 -114s-21.666 -83.667 -30.999 -126s-17 -83 -23 -122s-9 -73.167 -9 -102.5c0 -25.333 2.83301 -45 8.5 -59s15.167 -21 28.5 -21
c17.333 0 37 12 59 36s46 61.333 72 112l10 -10c-10 -26.667 -21.5 -51.167 -34.5 -73.5s-27 -41.5 -42 -57.5s-30.667 -28.5 -47 -37.5s-32.833 -13.5 -49.5 -13.5c-28 0 -48 12.167 -60 36.5s-18 56.833 -18 97.5c0 42.667 5.66699 92.334 17 149.001
c-30 4.66699 -57 8.5 -81 11.5l-67 8.5c-32 -58.667 -62.667 -118.5 -92 -179.5s-56.666 -121.167 -81.999 -180.5c-15.333 8.66699 -24.833 17.834 -28.5 27.501s-5.5 17.834 -5.5 24.501c0 14 4 31.833 12 53.5s18.833 46.167 32.5 73.5s29.667 56.833 48 88.5
s38.166 64.167 59.499 97.5c-24.667 2 -45.667 3.33301 -63 4s-32.333 1 -45 1h-35zM466.001 656.996c-15.333 -9.33301 -32.667 -24.5 -52 -45.5s-39.666 -46.167 -60.999 -75.5s-43.5 -62.5 -66.5 -99.5l-69.5 -117.5l67 -16l62 -15c7.33301 32.667 15.833 66 25.5 100
s19.667 67.167 30 99.5s21.166 62.833 32.499 91.5zM574 919.996c28 0 47.668 -5.16699 59.001 -15.5s17 -23.166 17 -38.499c0 -12 -3.33301 -24.667 -10 -38s-15.834 -25.5 -27.501 -36.5s-25.167 -20 -40.5 -27s-31.333 -10.5 -48 -10.5c-26 0 -44.5 5.16699 -55.5 15.5
s-16.5 23.166 -16.5 38.499c0 12 3.16699 24.5 9.5 37.5s15 25 26 36s23.833 20.167 38.5 27.5s30.667 11 48 11zM569.001 896.996c-10 0 -19.6709 -2.66699 -29.0039 -8s-17.666 -12 -24.999 -20s-13.166 -16.833 -17.499 -26.5s-6.5 -18.834 -6.5 -27.501
c0 -9.33301 3.33301 -18.5 10 -27.5s17.334 -13.5 32.001 -13.5c10 0 19.667 2.83301 29 8.5s17.833 12.834 25.5 21.501s13.834 18 18.501 28s7 19.333 7 28c0 9.33301 -3.5 17.833 -10.5 25.5s-18.167 11.5 -33.5 11.5z" />
    <glyph glyph-name="AE" unicode="&#xc6;" horiz-adv-x="748" 
d="M-8 283c7.33301 19.333 20.1689 32.8301 38.502 40.4971s40.166 11.5 65.499 11.5c11.333 0 22.833 -0.666992 34.5 -2s24.167 -3 37.5 -5c34 51.333 68.333 100.666 103 147.999s67 89 97 125s56.333 64.833 79 86.5s39.667 32.5 51 32.5
c26.667 0 55.167 -0.833008 85.5 -2.5s59.666 -3.66699 87.999 -6s54.5 -4.83301 78.5 -7.5s43 -5 57 -7c-2.66699 -7.33301 -9.33398 -13.333 -20.001 -18s-23.667 -8.33398 -39 -11.001s-32.666 -4.5 -51.999 -5.5s-39 -1.5 -59 -1.5c-18 0 -35.833 0.166992 -53.5 0.5
s-34.167 0.833008 -49.5 1.5c-6 -11.333 -12.333 -25.666 -19 -42.999s-13.667 -36.666 -21 -57.999s-14.833 -44.5 -22.5 -69.5s-14.834 -50.833 -21.501 -77.5c46 -1.33301 86.5 -4.66602 121.5 -9.99902l86.5 -13c-2.66699 -7.33301 -9.33398 -13.333 -20.001 -18
s-23.667 -8.33398 -39 -11.001s-32.666 -4.5 -51.999 -5.5s-39 -1.5 -59 -1.5h-29.5c-8.33301 0 -16.166 0.333008 -23.499 1c-11.333 -49.333 -20.833 -97 -28.5 -143s-11.5 -86 -11.5 -120c0 -16.667 1 -30.334 3 -41.001c20.667 -3.33301 44.5 -6.16602 71.5 -8.49902
l79.5 -7c26 -2.33301 49.833 -4.66602 71.5 -6.99902s38.167 -4.83301 49.5 -7.5c-2.66699 -7.33301 -9.33398 -13.333 -20.001 -18s-23.667 -8.33398 -39 -11.001s-32.666 -4.5 -51.999 -5.5s-39 -1.5 -59 -1.5c-28 0 -55 0.166992 -81 0.5s-48.667 1.5 -68 3.5
c-10 10 -17.333 25 -22 45s-7 42.667 -7 68c0 42.667 5.66699 92.334 17 149.001c-30 4.66699 -57 8.5 -81 11.5l-67 8.5c-32 -58.667 -62.667 -118.5 -92 -179.5s-56.666 -121.167 -81.999 -180.5c-15.333 8.66699 -24.833 17.834 -28.5 27.501s-5.5 17.834 -5.5 24.501
c0 14 4 31.833 12 53.5s18.833 46.167 32.5 73.5s29.667 56.833 48 88.5s38.166 64.167 59.499 97.5c-24.667 2 -45.667 3.33301 -63 4s-32.333 1 -45 1h-35zM466.003 656.997c-15.333 -9.33301 -32.667 -24.5 -52 -45.5s-39.666 -46.167 -60.999 -75.5
s-43.5 -62.5 -66.5 -99.5l-69.5 -117.5l67 -16l62 -15c7.33301 32.667 15.833 66 25.5 100s19.667 67.167 30 99.5s21.166 62.833 32.499 91.5z" />
    <glyph glyph-name="Ccedilla" unicode="&#xc7;" horiz-adv-x="563" 
d="M436 689c-24 0 -48.8369 -8.33301 -74.5039 -25s-51 -39.167 -76 -67.5s-48.5 -61 -70.5 -98s-41.5 -75.833 -58.5 -116.5s-30.333 -81.834 -40 -123.501s-14.5 -81.167 -14.5 -118.5c0 -24.667 2.66699 -48.667 8 -72s13.666 -44 24.999 -62s25.833 -32.333 43.5 -43
s39.167 -16 64.5 -16c26.667 0 53.334 5.83301 80.001 17.5s52 27.334 76 47.001s46 42.5 66 68.5s36.667 53.333 50 82l14 -10c-13.333 -25.333 -27.666 -49.333 -42.999 -72s-32.333 -43.667 -51 -63l-39 -60c7.33301 5.33301 16.333 10.666 27 15.999s24 8 40 8
c30 0 45 -14 45 -42c0 -14 -3.16699 -27.833 -9.5 -41.5s-14.833 -25.667 -25.5 -36s-23.167 -18.666 -37.5 -24.999s-29.166 -9.5 -44.499 -9.5c-19.333 0 -34.333 3.66699 -45 11s-16 15.666 -16 24.999c0 11.333 7.33301 22.333 22 33c3.33301 -16 9 -27.5 17 -34.5
s16.333 -10.5 25 -10.5c9.33301 0 19 2.83301 29 8.5s19 12.834 27 21.501s14.5 18.167 19.5 28.5s7.5 19.833 7.5 28.5c0 5.33301 -1.16699 10.833 -3.5 16.5s-6.83301 8.5 -13.5 8.5s-14.334 -2.16699 -23.001 -6.5s-17 -9 -25 -14l-22.5 -14
c-7 -4.33301 -11.833 -6.5 -14.5 -6.5c-4.66699 0 -8.16699 2.16699 -10.5 6.5s-3.5 8.16602 -3.5 11.499c0 1.33301 1.66699 4.5 5 9.5s7.66602 11.167 12.999 18.5c-24 -17.333 -49.333 -30.833 -76 -40.5s-54.667 -14.5 -84 -14.5c-35.333 0 -65.5 7 -90.5 21
s-45.333 32.5 -61 55.5s-27.167 49 -34.5 78s-11 58.833 -11 89.5c0 44 5.83301 88.5 17.5 133.5s27.334 88.167 47.001 129.5s42.834 80.333 69.501 117s55.334 68.334 86.001 95.001s62.167 47.834 94.5 63.501s64.5 23.5 96.5 23.5c27.333 0 49.5 -6.5 66.5 -19.5
s25.5 -35.167 25.5 -66.5c0 -19.333 -3.5 -41.333 -10.5 -66s-16 -47.834 -27 -69.501s-23.333 -40 -37 -55s-27.5 -22.5 -41.5 -22.5c-5.33301 0 -10.833 1.66699 -16.5 5s-10.5 9.33301 -14.5 18c10 11.333 21.333 25.5 34 42.5s24.334 34.833 35.001 53.5
s19.667 37.334 27 56.001s11 35 11 49c0 13.333 -3.83301 24.166 -11.5 32.499s-20.167 12.5 -37.5 12.5z" />
    <glyph glyph-name="Egrave" unicode="&#xc8;" horiz-adv-x="499" 
d="M384 696c-23.333 0 -43.835 -5.33984 -61.502 -16.0068s-32.5 -25.167 -44.5 -43.5s-21.167 -39.666 -27.5 -63.999s-9.5 -50.166 -9.5 -77.499c0 -12 0.833008 -24.667 2.5 -38s4.5 -26.666 8.5 -39.999s9.83301 -26.333 17.5 -39s17.5 -24 29.5 -34
c-33.333 -5.33301 -63.666 -16.5 -90.999 -33.5s-50.666 -37.333 -69.999 -61s-34.166 -49.167 -44.499 -76.5s-15.5 -54.333 -15.5 -81c0 -16.667 2.33301 -33.5 7 -50.5s12 -32.5 22 -46.5s23.167 -25.5 39.5 -34.5s36.166 -13.5 59.499 -13.5
c26.667 0 53.334 5.83301 80.001 17.5s52 27.334 76 47.001s46 42.5 66 68.5s36.667 53.333 50 82l14 -10c-17.333 -34 -37.166 -65.5 -59.499 -94.5s-46.5 -54.333 -72.5 -76s-54.167 -38.5 -84.5 -50.5s-62.166 -18 -95.499 -18c-30 0 -57 4.83301 -81 14.5
s-44.5 22.834 -61.5 39.501s-30 36 -39 58s-13.5 45.333 -13.5 70c0 30.667 6.66699 60.834 20 90.501s31.833 56.334 55.5 80.001s51.167 43.5 82.5 59.5s65 25.667 101 29c-26 21.333 -45.167 46 -57.5 74s-18.5 56 -18.5 84c0 26.667 5.16699 52.334 15.5 77.001
s24.666 46.667 42.999 66s40 34.833 65 46.5s52.5 17.5 82.5 17.5c37.333 0 65.666 -9.33301 84.999 -28s29 -45.334 29 -80.001c0 -18.667 -2.66699 -37 -8 -55s-12 -34.167 -20 -48.5s-16.667 -25.833 -26 -34.5s-18 -13 -26 -13c-7.33301 0 -14.333 3.16699 -21 9.5
s-12 13.833 -16 22.5c23.333 20.667 43.166 42.5 59.499 65.5s24.5 47.5 24.5 73.5c0 20.667 -6 36.667 -18 48s-29.667 17 -53 17zM306.998 863.993c1.33301 12 4 20.1699 8 24.5029s8.66699 6.5 14 6.5c10 0 21 -5.16699 33 -15.5s23.333 -22.333 34 -36
s19.5 -27.167 26.5 -40.5s10.5 -23 10.5 -29c0 -3.33301 -1 -7.83301 -3 -13.5s-5.66699 -9.83398 -11 -12.501c-14.667 19.333 -31 38.166 -49 56.499s-39 38.166 -63 59.499z" />
    <glyph glyph-name="Eacute" unicode="&#xc9;" horiz-adv-x="499" 
d="M384 696c-23.333 0 -43.835 -5.33984 -61.502 -16.0068s-32.5 -25.167 -44.5 -43.5s-21.167 -39.666 -27.5 -63.999s-9.5 -50.166 -9.5 -77.499c0 -12 0.833008 -24.667 2.5 -38s4.5 -26.666 8.5 -39.999s9.83301 -26.333 17.5 -39s17.5 -24 29.5 -34
c-33.333 -5.33301 -63.666 -16.5 -90.999 -33.5s-50.666 -37.333 -69.999 -61s-34.166 -49.167 -44.499 -76.5s-15.5 -54.333 -15.5 -81c0 -16.667 2.33301 -33.5 7 -50.5s12 -32.5 22 -46.5s23.167 -25.5 39.5 -34.5s36.166 -13.5 59.499 -13.5
c26.667 0 53.334 5.83301 80.001 17.5s52 27.334 76 47.001s46 42.5 66 68.5s36.667 53.333 50 82l14 -10c-17.333 -34 -37.166 -65.5 -59.499 -94.5s-46.5 -54.333 -72.5 -76s-54.167 -38.5 -84.5 -50.5s-62.166 -18 -95.499 -18c-30 0 -57 4.83301 -81 14.5
s-44.5 22.834 -61.5 39.501s-30 36 -39 58s-13.5 45.333 -13.5 70c0 30.667 6.66699 60.834 20 90.501s31.833 56.334 55.5 80.001s51.167 43.5 82.5 59.5s65 25.667 101 29c-26 21.333 -45.167 46 -57.5 74s-18.5 56 -18.5 84c0 26.667 5.16699 52.334 15.5 77.001
s24.666 46.667 42.999 66s40 34.833 65 46.5s52.5 17.5 82.5 17.5c37.333 0 65.666 -9.33301 84.999 -28s29 -45.334 29 -80.001c0 -18.667 -2.66699 -37 -8 -55s-12 -34.167 -20 -48.5s-16.667 -25.833 -26 -34.5s-18 -13 -26 -13c-7.33301 0 -14.333 3.16699 -21 9.5
s-12 13.833 -16 22.5c23.333 20.667 43.166 42.5 59.499 65.5s24.5 47.5 24.5 73.5c0 20.667 -6 36.667 -18 48s-29.667 17 -53 17zM540.998 863.993c-24 -21.333 -45 -41.1689 -63 -59.502s-34.333 -37.166 -49 -56.499c-5.33301 2.66699 -9 6.83398 -11 12.501
s-3 10.167 -3 13.5c0 6 3.5 15.667 10.5 29s15.833 26.833 26.5 40.5s22 25.667 34 36s23 15.5 33 15.5c5.33301 0 10 -2.16699 14 -6.5s6.66699 -12.5 8 -24.5z" />
    <glyph glyph-name="Ecircumflex" unicode="&#xca;" horiz-adv-x="499" 
d="M384 696c-23.333 0 -43.835 -5.33984 -61.502 -16.0068s-32.5 -25.167 -44.5 -43.5s-21.167 -39.666 -27.5 -63.999s-9.5 -50.166 -9.5 -77.499c0 -12 0.833008 -24.667 2.5 -38s4.5 -26.666 8.5 -39.999s9.83301 -26.333 17.5 -39s17.5 -24 29.5 -34
c-33.333 -5.33301 -63.666 -16.5 -90.999 -33.5s-50.666 -37.333 -69.999 -61s-34.166 -49.167 -44.499 -76.5s-15.5 -54.333 -15.5 -81c0 -16.667 2.33301 -33.5 7 -50.5s12 -32.5 22 -46.5s23.167 -25.5 39.5 -34.5s36.166 -13.5 59.499 -13.5
c26.667 0 53.334 5.83301 80.001 17.5s52 27.334 76 47.001s46 42.5 66 68.5s36.667 53.333 50 82l14 -10c-17.333 -34 -37.166 -65.5 -59.499 -94.5s-46.5 -54.333 -72.5 -76s-54.167 -38.5 -84.5 -50.5s-62.166 -18 -95.499 -18c-30 0 -57 4.83301 -81 14.5
s-44.5 22.834 -61.5 39.501s-30 36 -39 58s-13.5 45.333 -13.5 70c0 30.667 6.66699 60.834 20 90.501s31.833 56.334 55.5 80.001s51.167 43.5 82.5 59.5s65 25.667 101 29c-26 21.333 -45.167 46 -57.5 74s-18.5 56 -18.5 84c0 26.667 5.16699 52.334 15.5 77.001
s24.666 46.667 42.999 66s40 34.833 65 46.5s52.5 17.5 82.5 17.5c37.333 0 65.666 -9.33301 84.999 -28s29 -45.334 29 -80.001c0 -18.667 -2.66699 -37 -8 -55s-12 -34.167 -20 -48.5s-16.667 -25.833 -26 -34.5s-18 -13 -26 -13c-7.33301 0 -14.333 3.16699 -21 9.5
s-12 13.833 -16 22.5c23.333 20.667 43.166 42.5 59.499 65.5s24.5 47.5 24.5 73.5c0 20.667 -6 36.667 -18 48s-29.667 17 -53 17zM344.998 778.993c-4 2.66699 -6.66797 5.66992 -8.00098 9.00293s-2 6.66602 -2 9.99902c0 10 4.66699 20.167 14 30.5
s20.333 19.666 33 27.999s25.334 15.333 38.001 21s22.334 8.5 29.001 8.5c8 0 17.167 -3.83301 27.5 -11.5s20.166 -17 29.499 -28s17.166 -23 23.499 -36s9.5 -24.833 9.5 -35.5c0 -6.66699 -1.33301 -12.667 -4 -18s-7 -9.66602 -13 -12.999
c-9.33301 19.333 -20 35.666 -32 48.999s-26 27.666 -42 42.999c-20.667 -7.33301 -39.167 -15.333 -55.5 -24s-32.166 -19.667 -47.499 -33z" />
    <glyph glyph-name="Edieresis" unicode="&#xcb;" horiz-adv-x="499" 
d="M384 696c-23.333 0 -43.835 -5.33984 -61.502 -16.0068s-32.5 -25.167 -44.5 -43.5s-21.167 -39.666 -27.5 -63.999s-9.5 -50.166 -9.5 -77.499c0 -12 0.833008 -24.667 2.5 -38s4.5 -26.666 8.5 -39.999s9.83301 -26.333 17.5 -39s17.5 -24 29.5 -34
c-33.333 -5.33301 -63.666 -16.5 -90.999 -33.5s-50.666 -37.333 -69.999 -61s-34.166 -49.167 -44.499 -76.5s-15.5 -54.333 -15.5 -81c0 -16.667 2.33301 -33.5 7 -50.5s12 -32.5 22 -46.5s23.167 -25.5 39.5 -34.5s36.166 -13.5 59.499 -13.5
c26.667 0 53.334 5.83301 80.001 17.5s52 27.334 76 47.001s46 42.5 66 68.5s36.667 53.333 50 82l14 -10c-17.333 -34 -37.166 -65.5 -59.499 -94.5s-46.5 -54.333 -72.5 -76s-54.167 -38.5 -84.5 -50.5s-62.166 -18 -95.499 -18c-30 0 -57 4.83301 -81 14.5
s-44.5 22.834 -61.5 39.501s-30 36 -39 58s-13.5 45.333 -13.5 70c0 30.667 6.66699 60.834 20 90.501s31.833 56.334 55.5 80.001s51.167 43.5 82.5 59.5s65 25.667 101 29c-26 21.333 -45.167 46 -57.5 74s-18.5 56 -18.5 84c0 26.667 5.16699 52.334 15.5 77.001
s24.666 46.667 42.999 66s40 34.833 65 46.5s52.5 17.5 82.5 17.5c37.333 0 65.666 -9.33301 84.999 -28s29 -45.334 29 -80.001c0 -18.667 -2.66699 -37 -8 -55s-12 -34.167 -20 -48.5s-16.667 -25.833 -26 -34.5s-18 -13 -26 -13c-7.33301 0 -14.333 3.16699 -21 9.5
s-12 13.833 -16 22.5c23.333 20.667 43.166 42.5 59.499 65.5s24.5 47.5 24.5 73.5c0 20.667 -6 36.667 -18 48s-29.667 17 -53 17zM349.998 773.993c-10 0 -18.667 2.33301 -26 7s-11 12.334 -11 23.001c0 6 2 11.833 6 17.5s9.33301 10.667 16 15
s13.834 7.83301 21.501 10.5s15.167 4 22.5 4c9.33301 0 16.666 -2 21.999 -6s8 -11.333 8 -22c0 -6 -1.66699 -11.833 -5 -17.5s-7.83301 -10.834 -13.5 -15.501s-12 -8.5 -19 -11.5s-14.167 -4.5 -21.5 -4.5zM493.998 752.993c-10 0 -18.667 2.33301 -26 7
s-11 12.334 -11 23.001c0 6 2 11.833 6 17.5s9.33301 10.667 16 15s13.834 7.83301 21.501 10.5s15.167 4 22.5 4c9.33301 0 16.666 -2 21.999 -6s8 -11.333 8 -22c0 -6 -1.66699 -11.833 -5 -17.5s-7.83301 -10.834 -13.5 -15.501s-12 -8.5 -19 -11.5
s-14.167 -4.5 -21.5 -4.5z" />
    <glyph glyph-name="Igrave" unicode="&#xcc;" horiz-adv-x="460" 
d="M82 641c4.66699 25.333 22.832 44.502 54.499 57.502s81.5 19.5 149.5 19.5c24.667 0 50 -0.833008 76 -2.5s50.833 -3.5 74.5 -5.5s45.167 -4.16699 64.5 -6.5s35 -4.5 47 -6.5c-16 -16 -32.833 -25.833 -50.5 -29.5s-33.167 -5.5 -46.5 -5.5h-59
c-18 0 -34.667 -0.333008 -50 -1c-2 -12 -5.16699 -29.5 -9.5 -52.5l-14.5 -78.5l-18 -94.5l-19.5 -100.5c-6.33301 -33.333 -12.833 -65 -19.5 -95l-18 -78c-11.333 -43.333 -23.5 -79.5 -36.5 -108.5s-28.833 -49.833 -47.5 -62.5c17.333 -1.33301 35.333 -3 54 -5
l56.5 -6c19 -2 37.5 -3.83301 55.5 -5.5s35 -2.5 51 -2.5c-19.333 -19.333 -39.5 -31.333 -60.5 -36s-38.5 -7 -52.5 -7c-54 -0.666992 -105.5 -1.33398 -154.5 -2.00098s-97.833 -5.66699 -146.5 -15c2 18 7.66699 32.333 17 43s21.333 18.834 36 24.501
s31.334 9.16699 50.001 10.5s38.667 2 60 2c12 26 24 58 36 96s23.5 78.5 34.5 121.5l32.5 132l30 129l26.5 111.5c8.33301 33.333 15.833 59.666 22.5 78.999c-26 -0.666992 -48.833 -1.33398 -68.5 -2.00098s-38 -1.83398 -55 -3.50098s-33.5 -3.66699 -49.5 -6
s-33.333 -5.16602 -52 -8.49902zM233.998 864.002c1.33301 12 4 20.1699 8 24.5029s8.66699 6.5 14 6.5c10 0 21 -5.16699 33 -15.5s23.333 -22.333 34 -36s19.5 -27.167 26.5 -40.5s10.5 -23 10.5 -29c0 -3.33301 -1 -7.83301 -3 -13.5s-5.66699 -9.83398 -11 -12.501
c-14.667 19.333 -31 38.166 -49 56.499s-39 38.166 -63 59.499z" />
    </font>
</defs>
</svg>
